/* XPM */
static char *result[] = {
/* columns rows colors chars-per-pixel */
"50 50 14 1 ",
"  c black",
". c #161b26",
"X c #502000",
"o c #A00000",
"O c #A05000",
"+ c #F04030",
"@ c #E07020",
"# c #A09000",
"$ c #F0F040",
"% c #406080",
"& c #508FC0",
"* c gray69",
"= c #F0C090",
"- c white",
/* pixels */
"..................................................",
"..................................................",
"..................................................",
".....................    .........................",
"..................   @=== ........................",
"................  ###  == ........................",
"............... $$$$$ ==== .......................",
".............. $$$$$# ===@@ ......................",
".............. +$$$### ==@@ ......................",
"...........   o++++o### @@ .......................",
".........  #$$$$$$+ooo @== .......................",
"..........     #$$$$$$ == ........................",
"............  O     #$ ==   ......................",
"........... . X@ O *   == ## .....................",
".............. O@ - -O @@@  ......................",
".............. ====-*@O @@@ ......................",
".............. O======@  @@@ .....................",
"............... @--O==  o o@   ...................",
"................ ==== @ ooooooo ..................",
".................      $o++++ooo .................",
".................... @@  $+++++oo ................",
"................    O@O   oo++++oo ...............",
"............... @@@@OO .  +$+++++o ...............",
"............... @@@OO .. oo ++++++ ...............",
"............... O @OO .. o % +++  ................",
"................ O OO ..  %%%   % ................",
"................   O ... %  &&&&% ................",
"..................  .... %% &&%%% ................",
"........................ % &&&%%   ...............",
"........................  &&&%%% @@ ..............",
".......................  &&&&%%  @@ ..............",
"....................... --&&%%  OOO ..............",
"....................... XX-&%  O OO  .............",
"...................... ==X -* O  OO  .............",
"...................... ==@     .   O .............",
"...................... ==@  .... O O .............",
"....................... @@ ......   ..............",
"........................ = .......................",
"........................ = .......................",
"........................ == ......................",
"........................ == ......................",
"....................... ==== .....................",
"...................... =====@ ....................",
"....................  =   ==@@ ...................",
".................... = === @@@ ...................",
".....................         ....................",
"..................................................",
"..................................................",
"..................................................",
".................................................."
};
