/* XPM */
static char *result[] = {
/* columns rows colors chars-per-pixel */
"70 70 9 1 ",
"  c #000B0C",
". c #000F11",
"X c #0D1017",
"o c #00181B",
"O c #212B2B",
"+ c #283434",
"@ c #4F4541",
"# c #6E524C",
"$ c None",
/* pixels */
"$$$$$$$$$$$$$$$$$$$$$$$$$$$$$$$$$$$$$$$$$$$$$$$$$$$$$$$$$$$$$$$$$$$$$$",
"$$$$$$$$$$$$$$$$$$$$$$$$$$$$$$$$$$$$$$$$$$$$$$$$$$$$$$$$$$$$$$$$$$$$$$",
"$$$$$$$$$$$$$$$$$$$$$$$$$$$$$$$$$$$$$$$$$$$$$$$$$$$$$$$$$$$$$$$$$$$$$$",
"$$$$$$$$$$$$$$$$$@@@@$$$$$$$$$$$$$$$$$$$$$$$$$$$$$$$$$$$$@@@@@@@@@$$$$",
"$$$$$$$$$$$$$$$$$@@@@$$$$$$$$$$$$$$$$$$$$$$$$$$$$$$$$$$$$@@@@@@@@@$$$$",
"$$$$$$$@@@@@@@@@@@@@@@@@$$@@@@@@@@@@@@@@$$$$$$$$$$@@@@@@@@@@@@@@@@@@@@",
"+++$$$@@@@@@@@@@@@@@@@@@@$@@@@@@@@@@@@@@@$$$$$$$$@@@@@####@@@@@@@@@@@@",
"+++$$$@@@@@@@@@@@@@@@@@@@$@@@@@@@@@@@@@@@$$$$$$$$@@@@@####@@@@@@@@@@@@",
"+++OOO++++@@@@@@@@@@@@@@@O@@@@@@@@@+++++@@@@@@@@@@++++++++@@@@@@@@@@@@",
"OOOOOOO++++++@@@@@@@@@+++OO++@@@@..@@@@@@@@@@@@+++OOOOO+++++++++++@@@@",
"ooOOOO.O++++++++@@@@@@+++OO++++...+++++O+@@@@@@@@OoooOOOOOOOO++@@@@@++",
"ooOOOO.O++++++++@@@@@@+++OO++++...+++++O+@@@@@@@@OoooOOOOOOOO++@@@@@++",
"@oOOOO.O++++@@@@@@@#####+OOOO+.....++++OO+++@@@+@@@@@@@@@@@@@@@@@@@+++",
"@@oooO.OOO++@@@#####++++OOO@@@@@@@....OOO++++@@O+@@@@@#######@@@@@++++",
"@@oooO..OOOOO++++++++OOOO+@@@@@@@@@@@@++++++@@@Oo+@@@++++++++###++++OO",
"@@oooO..OOOOO++++++++OOOO+@@@@@@@@@@@@++++++@@@Oo+@@@++++++++###++++OO",
"+@@ooO..OOOOOOOOOOOOOO@@@+@@@@+++++++++@@@@@@++Oo@@@++OOOO++++++++O+OO",
"++@ooO..OOO@@@@@@@@@O@@@@++++@@@@@@@@@@@@@@++++Oo@+++OOOOOO++++OOOO+OO",
"++@ooO..OOO@@@@@@@@@O@@@@++++@@@@@@@@@@@@@@++++Oo@+++OOOOOO++++OOOO+OO",
"O+@ooO@@@@@@@@@@@@@@O++++@@++@@@@@@#####@@@@+OOOo@++OOO......oOOOOOOOO",
"o++ooX+++++++@@@@@@+OoOOO@@@@@@@@@++++++####@@@Xo+++oo...o.ooooOOOOooo",
"o+oooXXXOOOO+++++++OOoooOO@@@@@@@++OOOOOOOOOOXXXoo++ooo+++++++ooooOooo",
"o+oooXXXOOOO+++++++OOoooOO@@@@@@@++OOOOOOOOOOXXXoo++ooo+++++++ooooOooo",
"oooooXXXXXXOOOOOOOOOoXXXXXO@@@@+++OOXXXXOOOX XXXoooo++++++++++ooooXooo",
"XooooXXXXXXXXOOOOXXXXXXXXXO@@@+++OOOXXXXXXXXXXXXo++++++++++++OoOooXXXX",
"XooooXXXXXXXXXXXXXXXXXXXXXO++++XXOOXXXXXXXXXXXXXo++++++OOOOOOOOOooXXXX",
"XooooXXXXXXXXXXXXXXXXXXXXXO++++XXOOXXXXXXXXXXXXXo++++++OOOOOOOOOooXXXX",
"XXXXXXXXXXXXXXXXXXXXXXXXXXO++++XXXXXXXXXXXXXXXXXXOOOOOOOOoXoooOOXXXXXX",
"XXXXXXXXXXXXXXXXXXXXXXXXXXXOOOXXXXXXXXXXXXXXXXXXXXOOOoooooXoooOOXXXXXX",
"XXXXXXXXXXXXXXXXXXXXXXXXXXXOOOXXXXXXXXXXXXXXXXXXXXOOOoooooXoooOOXXXXXX",
"XXXXXXXXXXXXXXXXXXXXXXXXXXXXXXXXXXXXXXXXXXXXXXXXXXXXXoXXXXXXXXXXXXXXXX",
"XXXXXXXXXXXXXXXXXXXXXXXXXXXXXXXXXXXXXXXXXXXXXXXXXXXXXXXXXXXXXXXXXXXXXX",
"XXXXXXXXXXXXXXXXXXXXXXXXXXXXXXXXXXXXXXXXXXXXXXXXXXXXXXXooooooXXXXXXXXX",
"XXXXXXXXXXXXXXXXXXXXXXXXXXXXXXXXXXXXXXXXXXXXXXXXXXXXXXXooooooXXXXXXXXX",
"XXXXXXXXXXXXXXXXXXXXXXXXXXXXXXXoooXXXXXXXXXXXXXXXXXXXoooooooooXXXXXXXX",
"..XXXXXXXXXXXXXXXXXXXXXXXXXXXooooXXXXXXXXXXXXXXXXXXXXXXXXXXXXoXXXXXXXX",
"XXXXXXXXXXXXXXXXXXXXXXXXXXXXXXXXXXXXXXXXXXXXXXXXXXXXXXXXXXXXXXXXXXXXXX",
"XXXXXXXXXXXXXXXXXXXXXXXXXXXXXXXXXXXXXXXXXXXXXXXXXXXXXXXXXXXXXXXXXXXXXX",
"XXXXXXXXXXXXXXXXXXXXXXXXXXXXXXXXXXXXXXXXXXXXXXXXXXXXXXXXXXXXXXXXXXXXXX",
"XXXXXXXXXXXXXXXXXXXXXXXXXXXXXXXXXXXXXXXXXXXXXXXXXXXXXXXXXXXXXXXXXXXXXX",
"XXXXXXXXXXXXXXXXXXXXXXXXXXXXXXXXXXXXXXXXXXXXXXXXXXXXXXXXXXXXXXXXXXXXXX",
"XXXXXXXXXXXXXXXXXXXXXXXXXXXXXXXXXXXXXXXXXXXXXXXXXXXXXXXXXXXXXXXXXXXXXX",
"XXXXXXXXXXXXXXXXXXXXXXXXXXXXXXXXXXXXXXXXXXXXXXXXXXXXXXXXXXXXXXXXXXXXXX",
"XXXXXXXXXXXXXXXXXXXXXXXXXXXXXXXXXXXXXXXXXXXXXXXXXXXXXXXXXXXXXXXXXXXXXX",
"XXXXXXXXXXXXXXXXXXXXXXXXXXXXXXXXXXXXXXXXXXXXXXXXXXXXXXXXXXXXXXXXXXXXXX",
"XXXXXXXXXXXXXXXXXXXXXXXXXXXXXXXXXXXXXXXXXXXXXXXXXXXXXXXXXXXXXXXXXXXXXX",
"XXXXXXXXXXXXXXXXXXXXXXXXXXXXXXXXXXXXXXXXXXXXXXXXXXXXXXXXXXXXXXXXXXXXXX",
"XXXXXXXXXXXXXXXXXXXXXXXXXXXXXXXXXXXXXXXXXXXXXXXXXXXXXXXXXXXXXXXXXXXXXX",
"XXXXXXXXXXXXXXXXXXXXXXXXXXXXXXXXXXXXXXXXXXXXXXXXXXXXXXXXXXXXXXXXXXXXXX",
"XXXXXXXXXXXXXXXXXXXXXXXXXXXXXXXXXXXXXXXXXXXXXXXXXXXXXXXXXXXXXXXXXXXXXX",
"XXXXXXXXXXXXXXXXXXXXXXXXXXXXXXXXXXXXXXXXXXXXXXXXXXXXXXXXXXXXXXXXXXXXXX",
"XXXXXXXXXXXXXXXXXXXXXXXXXXXXXXXXXXXXXXXXXXXXXXXXXXXXXXXXXXXXXXXXXXXXXX",
"XXXXXXXXXXXXXXXXXXXXXXXXXXXXXXXXXXXXXXXXXXXXXXXXXXXXXXXXXXXXXXXXXXXXXX",
"XXXXXXXXXXXXXXXXXXXXXXXXXXXXXXXXXXXXXXXXXXXXXXXXXXXXXXXXXXXXXXXXXXXXXX",
"XXXXXXXXXXXXXXXXXXXXXXXXXXXXXXXXXXXXXXXXXXXXXXXXXXXXXXXXXXXXXXXXXXXXXX",
"XXXXXXXXXXXXXXXXXXXXXXXXXXXXXXXXXXXXXXXXXXXXXXXXXXXXXXXXXXXXXXXXXXXXXX",
"XXXXXXXXXXXXXXXXXXXXXXXXXXXXXXXXXXXXXXXXXXXXXXXXXXXXXXXXXXXXXXXXXXXXXX",
"XXXXXXXXXXXXXXXXXXXXXXXXXXXXXXXXXXXXXXXXXXXXXXXXXXXXXXXXXXXXXXXXXXXXXX",
"XXXXXXXXXXXXXXXXXXXXXXXXXXXXXXXXXXXXXXXXXXXXXXXXXXXXXXXXXXXXXXXXXXXXXX",
"XXXXXXXXXXXXXXXXXXXXXXXXXXXXXXXXXXXXXXXXXXXXXXXXXXXXXXXXXXXXXXXXXXXXXX",
"XXXXXXXXXXXXXXXXXXXXXXXXXXXXXXXXXXXXXXXXXXXXXXXXXXXXXXXXXXXXXXXXXXXXXX",
"XXXXXXXXXXXXXXXXXXXXXXXXXXXXXXXXXXXXXXXXXXXXXXXXXXXXXXXXXXXXXXXXXXXXXX",
"XXXXXXXXXXXXXXXXXXXXXXXXXXXXXXXXXXXXXXXXXXXXXXXXXXXXXXXXXXXXXXXXXXXXXX",
"XXXXXXXXXXXXXXXXXXXXXXXXXXXXXXXXXXXXXXXXXXXXXXXXXXXXXXXXXXXXXXXXXXXXXX",
"XXXXXXXXXXXXXXXXXXXXXXXXXXXXXXXXXXXXXXXXXXXXXXXXXXXXXXXXXXXXXXXXXXXXXX",
"XXXXXXXXXXXXXXXXXXXXXXXXXXXXXXXXXXXXXXXXXXXXXXXXXXXXXXXXXXXXXXXXXXXXXX",
"XXXXXXXXXXXXXXXXXXXXXXXXXXXXXXXXXXXXXXXXXXXXXXXXXXXXXXXXXXXXXXXXXXXXXX",
"XXXXXXXXXXXXXXXXXXXXXXXXXXXXXXXXXXXXXXXXXXXXXXXXXXXXXXXXXXXXXXXXXXXXXX",
"XXXXXXXXXXXXXXXXXXXXXXXXXXXXXXXXXXXXXXXXXXXXXXXXXXXXXXXXXXXXXXXXXXXXXX",
"XXXXXXXXXXXXXXXXXXXXXXXXXXXXXXXXXXXXXXXXXXXXXXXXXXXXXXXXXXXXXXXXXXXXXX"
};
