/* XPM */
static char *result[] = {
/* columns rows colors chars-per-pixel */
"50 50 32 1 ",
"  c black",
". c #010000",
"X c #000100",
"o c #010100",
"O c #000001",
"+ c #010001",
"@ c #000101",
"# c #010101",
"$ c #060706",
"% c #161B26",
"& c #181A24",
"* c #191A24",
"= c #181B24",
"- c #181A25",
"; c #191A25",
": c #5F0F02",
"> c #5F0F03",
", c #72621C",
"< c #73621C",
"1 c #72621D",
"2 c #2E475A",
"3 c #A00000",
"4 c #A05000",
"5 c #F04030",
"6 c #D67E40",
"7 c #A09000",
"8 c #F0F040",
"9 c #406080",
"0 c #508FC0",
"q c #70A4CC",
"w c #F0C090",
"e c #FFF9EB",
/* pixels */
"==================================================",
"==================================================",
"==================================================",
"=====================ooooooo+=====================",
"====================o78888887+====================",
"===================o7788888887+===================",
"=================== 7887557887O===================",
"==================+555555555333+==================",
"================XX88888888888877X=================",
"===============o7887####X..@@7777XX===============",
"==============.7787oX@##.X@ OO@7777#==============",
"==============.1,<<O @6666666##7777#==============",
"===============....OO666666666#####===============",
"===============%%%%O6we@ww@ew6XX==================",
"===============%%%%OX6e@ww@e6OOO=========-========",
"===============%%%%%%Xwwwwww6@%O=======&==========",
"================&&&&%X6wwwww@%%=====&==-==========",
"================&&&&%%o6www6@%======&=============",
"=============&=&&&&&oo3444443oo=&&&&==============",
"=============&=&&&&#33354445333oo&%&&======%======",
"============*=&&&&X33335555553333O&&&===-=========",
"==============&&&o3333555855533333O&&====*========",
"=============&&&@333#355555553XX33O&&&&===========",
"=============&&&@>3##355555553X&333#&&&===========",
"=============&&X66X*#355585553X&X66#&&&&==========",
"=============&&X66#* 335555533@&&X66X&&&==========",
"=============&.66#** 333555333@&&X66X&&&==========",
"===========&&&.66#** 333583333@&&&.X&&&&&=========",
"=============#wwww@$@@@@999@@@@@&&&&&&&&&&========",
"=============.www@w 999999922222@&&&&&&&&&========",
"=============+wwoww@99999900qq99@&&&&&&&&&========",
"============*=Owww 99900000qqqq9o&&&&=============",
"===============@@@@900000000qqq99+&===============",
"=================+99000999999qqq9O&===============",
"============;===+9900099#oOo99qqq9+*=======*======",
"===============+9900009 ====o99qq99+==============",
"===============+9999009 ====@99qq92X==============",
"===============+9999999O====+299992X==============",
"================++99999@====+222222X==============",
"=================.:666++====+222222o==============",
"=================X666#+======@4444oo==============",
"=================X6ww#=======+44o=================",
"=================Xww6.=======#44o=================",
"=================.6wO=======X66##=================",
"=================+6w+=======Xww@#=================",
"==================6w6+======6Xw@+=================",
"=================O6@6.=======6w6+=================",
"================#6#6X+=======@@+6=================",
"===============#6#6ww#============================",
"===============+++X@ #============================"
};
