/* XPM */
static char *result[] = {
/* columns rows colors chars-per-pixel */
"50 50 30 1 ",
"  c black",
". c #010000",
"X c #000100",
"o c #010100",
"O c #000001",
"+ c #010001",
"@ c #000101",
"# c #010101",
"$ c #060706",
"% c #161B26",
"& c #181A24",
"* c #191A24",
"= c #181A25",
"- c #191A25",
"; c #5F0F03",
": c #73621C",
"> c #72621D",
", c #334D67",
"< c #A00000",
"1 c #A05000",
"2 c #A05E26",
"3 c #F04030",
"4 c #D67E40",
"5 c #A09000",
"6 c #D99A47",
"7 c #F0F040",
"8 c #406080",
"9 c #508FC0",
"0 c #F0C090",
"q c #FFF9EB",
/* pixels */
"%%%%%%%%%%%%%%%%%%%%%%%%%%%%%%%%%%%%%%%%%%%%%%%%%%",
"%%%%%%%%%%%%%%%%%%%%%%%%%%%%%%%%%%%%%%%%%%%%%%%%%%",
"%%%%%%%%%%%%%%%%%%%%%%%%%%%%%%%%%%%%%%%%%%%%%%%%%%",
"%%%%%%%%%%%%%%%%%%%%%+ooooooo%%%%%%%%%%%%%%%%%%%%%",
"%%%%%%%%%%%%%%%%%%%%+55777755o%%%%%%%%%%%%%%%%%%%%",
"%%%%%%%%%%%%%%%%%%%+5777777775o%%%%%%%%%%%%%%%%%%%",
"%%%%%%%%%%%%%%%%%%%O5733333355 %%%%%%%%%%%%%%%%%%%",
"%%%%%%%%%%%%%%%%%%+<<<377773333+%%%%%%%%%%%%%%%%%%",
"%%%%%%%%%%%%%%%%%X57777777777775XX%%%%%%%%%%%%%%%%",
"%%%%%%%%%%%%%%%XX5775@@..X####5555o%%%%%%%%%%%%%%%",
"%%%%%%%%%%%%%%#5555@OO @X.##@Xo5555.%%%%%%%%%%%%%%",
"%%%%%%%%%%%%%%#::>>##4444444@ O::55.%%%%%%%%%%%%%%",
"%%%%%%%%%%%%%%%#####444444444OO....%%%%%%%%%%%%%%%",
"%%%%%%%%%%%%%%%%%%XX40q@00@q04O%%%%%%%%%%%%%%%%%%%",
"%%%%%%%%=%%%%%%%%%OOO4q@00@q4XO%%%%%%%%%%%%%%%%%%%",
"%%%%%%%%%%&%%%%%%%O%@4000000X%%%%%%%%%%%%%%%%%%%%%",
"%%%%%%%%%%=%%&%%%%%%%@000004X%&&&&%%%%%%%%%%%%%%%%",
"%%%%%%%%%%%%%&%%%%%%%@40004o%%&&&&%%%%%%%%%%%%%%%%",
"%%%%%%%%%%%%%%&&&&%oo<11111<oo&&&&&%&%%%%%%%%%%%%%",
"%%%%%%%%%%%%%&&%&oo<<<31113<<<#&&&&%&%%%%%%%%%%%%%",
"%%%%%%%%%=%%%&&&O<<<<333333<<<<X&&&&%*%%%%%%%%%%%%",
"%%%%%%%%*%%%%&&O<<<<<3337333<<<<o&&&%%%%%%%%%%%%%%",
"%%%%%%%%%%%&&&&O<<XX<3333333<#<<<@&&&%%%%%%%%%%%%%",
"%%%%%%%%%%%&&&#<<<&X<3333333<##<;@&&&%%%%%%%%%%%%%",
"%%%%%%%%%%&&&&#44X&X<3337333<#*X44X&&%%%%%%%%%%%%%",
"%%%%%%%%%%&&&X44X&&@<<33333<< *#44X&&%%%%%%%%%%%%%",
"%%%%%%%%%%&&&X44X&&@<<<333<<< **#44.&%%%%%%%%%%%%%",
"%%%%%%%%%&&&&&X.&&&@<<<<73<<< **#44.&&&%%%%%%%%%%%",
"%%%%%%%%&&&&&&&&&&@@@@@888@@@@$@0000#%%%%%%%%%%%%%",
"%%%%%%%%&&&&&&&&&@888888888888 0@000.%%%%%%%%%%%%%",
"%%%%%%%%&&&&&&&&&@889999888888@00o00+%%%%%%%%%%%%%",
"%%%%%%%%%%%%%&&&&o8999999999888 000O%*%%%%%%%%%%%%",
"%%%%%%%%%%%%%%%&+88999999999998@@@@%%%%%%%%%%%%%%%",
"%%%%%%%%%%%%%%%&O899988888999988+%%%%%%%%%%%%%%%%%",
"%%%%%%*%%%%%%%*+899988oOo#8999988+%%%-%%%%%%%%%%%%",
"%%%%%%%%%%%%%%+889988o%%%% 8999988+%%%%%%%%%%%%%%%",
"%%%%%%%%%%%%%%X,89988@%%%% 8998888+%%%%%%%%%%%%%%%",
"%%%%%%%%%%%%%%X,88888+%%%%O8888888+%%%%%%%%%%%%%%%",
"%%%%%%%%%%%%%%X,,,,,,+%%%%@88888++%%%%%%%%%%%%%%%%",
"%%%%%%%%%%%%%%o,,,,,,+%%%%++1111.%%%%%%%%%%%%%%%%%",
"%%%%%%%%%%%%%%oo1111@%%%%%%+#441X%%%%%%%%%%%%%%%%%",
"%%%%%%%%%%%%%%%%%o11+%%%%%%%#004X%%%%%%%%%%%%%%%%%",
"%%%%%%%%%%%%%%%%%o11#%%%%%%%.400X%%%%%%%%%%%%%%%%%",
"%%%%%%%%%%%%%%%%%##22X%%%%%%%O04.%%%%%%%%%%%%%%%%%",
"%%%%%%%%%%%%%%%%%#@00X%%%%%%%+04+%%%%%%%%%%%%%%%%%",
"%%%%%%%%%%%%%%%%%+@0X0%%%%%%+444%%%%%%%%%%%%%%%%%%",
"%%%%%%%%%%%%%%%%%+000%%%%%%%.4@4O%%%%%%%%%%%%%%%%%",
"%%%%%%%%%%%%%%%%%0+@@%%%%%%%+X4#4#%%%%%%%%%%%%%%%%",
"%%%%%%%%%%%%%%%%%%%%%%%%%%%%#664#4#%%%%%%%%%%%%%%%",
"%%%%%%%%%%%%%%%%%%%%%%%%%%%%# @X+++%%%%%%%%%%%%%%%"
};
