/* XPM */
static char *result[] = {
/* columns rows colors chars-per-pixel */
"50 50 24 1 ",
"  c black",
". c #010000",
"X c #000100",
"o c #010100",
"O c #000001",
"+ c #010001",
"@ c #000101",
"# c #010101",
"$ c #060706",
"% c #191A24",
"& c #181B24",
"* c #5F0F03",
"= c #A00000",
"- c #A05000",
"; c #F04030",
": c #D67E40",
"> c #A09000",
", c #F0F040",
"< c #406080",
"1 c #285BC6",
"2 c #508FC0",
"3 c #F0C090",
"4 c #AAB8E3",
"5 c #FFF9EB",
/* pixels */
"&&&&&&&&&&&&&&&&&&&&&&&&&&&&&&&&&&&&&&&&&&&&&&&&&&",
"&&&&&&&&&&&&&&&&&&&&&&&&&&&&&&&&&&&&&&&&&&&&&&&&&&",
"&&&&&&&&&&&&&&&&&&&&&&&&&&&&&&&&&&&&&&&&&&&&&&&&&&",
"&&&&&&&&&&&&&&&&&&&&&&&&&&&&&&&&&&&&&&&&&&&&&&&&&&",
"&&&&&&&&&&&&&&&&&&&&&oooooooo&&&&&&&&&&&&&&&&&&&&&",
"&&&&&&&&&&&&&&&&&&&&+>>,,,,>>o&&&&&&&&&&&&&&&&&&&&",
"&&&&&&&&&&&&&&&&&&&+>>,,,,,,>>o&&&&&&&&&&&&&&&&&&&",
"&&&&&&&&&&&&&&&&&&&O>,,,;;,,,> &&&&&&&&&&&&&&&&&&&",
"&&&&&&&&&&&&&&&&&&+===;;;;;;;;;+&&&&&&&&&&&&&&&&&&",
"&&&&&&&&&&&&&&&&&X>,,,,,,,,,,,,>XX&&&&&&&&&&&&&&&&",
"&&&&&&&&&&&&&&&XX>,,>@@..X####>>>>o&&&&&&&&&&&&&&&",
"&&&&&&&&&&&&&&#>>>>@OO @X.##@Xo>>>>.&&&&&&&&&&&&&&",
"&&&&&&&&&&&&&&#>>>>##:::::::@ O>>>>.&&&&&&&&&&&&&&",
"&&&&&&&&&&&&&&&#####:::::::::OO....&&&&&&&&&&&&&&&",
"&&&&&&&&&&&&&&&&&&XX:35@33@53:O&&&&&&&&&&&&&&&&&&&",
"&&&&&&&&&&&&&&&&&&OOO:5@33@5:XO&&&&&&&&&&&&&&&&&&&",
"&&&&&&&&&&&&&&&&&&O&@:333:33X&&&&&&&&&&&&&&&&&&&&&",
"&&&&&&&&&&&&&&&&&&&&&@33333:X&&&&&&&&&&&&&&&&&&&&&",
"&&&&&&&&&&&&&&&&&&&&&@:333:o&&&&&&&&&&&&&&&&&&&&&&",
"&&&&&&&&&&&&&&&&&&&oo=-----=oo&&&&&&&&&&&&&&&&&&&&",
"&&&&&&&&&&&&&&&&&&o===;---;===#&&&&&&&&&&&&&&&&&&&",
"&&&&&&&&&&&&&&&&%o===;;;;;;====X&&&&&&&&&&&&&&&&&&",
"&&&&&&&&&&&&&&&&o====;;;,;;;====o&&&&&&&&&&&&&&&&&",
"&&&&&&&&&&&&&&&O===X=;;;;;;;=#===@&&&&&&&&&&&&&&&&",
"&&&&&&&&&&&&&&&#===X=;;;;;;;=##**@&&&&&&&&&&&&&&&&",
"&&&&&&&&&&&&&&#333XX=;;;,;;;=#&X**X&&&&&&&&&&&&&&&",
"&&&&&&&&&&&&&%#33X&@==;;;;;== &#**X&&&&&&&&&&&&&&&",
"&&&&&&&&&&&&&%#333X@========= &&#X&&&&&&&&&&&&&&&&",
"&&&&&&&&&&&&&%X333X@====,==== &&&&&&&&&&&&&&&&&&&&",
"&&&&&&&&&&&&&%%XXX%@@@@<<<@@@@$&&&&&&&&&&&&&&&&&&&",
"&&&&&&&&&&&&&%%%%%%o<<<2222221 &&&&&&&&&&&&&&&&&&&",
"&&&&&&&&&&&&%%%%&%o<<22222222<@&&&&&&&&&&&&&&&&&&&",
"&&&&&&&&&&&&&&&&&o<<<<<222222<< &&&&&&&&&&&&&&&&&&",
"&&&&&&&&&&&&&&&&+<<<<<<<<<2222<@&&&&&&&&&&&&&&&&&&",
"&&&&&&&&&&&&&&&&O<<<<<<<<<<222<<+&&&&&&&&&&&&&&&&&",
"&&&&&&&&&&&&&&&<<<<<<<oOo#<<222<<+&&&&&&&&&&&&&&&&",
"&&&&&&&&&&&&&&X<<<<<<+&&&& <222<<+&&&&&&&&&&&&&&&&",
"&&&&&&&&&&&&&&X<<<<<<+&&&& <2222<+&&&&&&&&&&&&&&&&",
"&&&&&&&&&&&&&&&X<<<<<+&&&&O<<22<<+&&&&&&&&&&&&&&&&",
"&&&&&&&&&&&&&&&&X---@&&&&&@4<<<<+&&&&&&&&&&&&&&&&&",
"&&&&&&&&&&&&&&&&&o--+&&&&&++3333.&&&&&&&&&&&&&&&&&",
"&&&&&&&&&&&&&&&&&&oo&&&&&&&+#333X&&&&&&&&&&&&&&&&&",
"&&&&&&&&&&&&&&&&&&&&&&&&&&&&#333X&&&&&&&&&&&&&&&&&",
"&&&&&&&&&&&&&&&&&&&&&&&&&&&&.333X&&&&&&&&&&&&&&&&&",
"&&&&&&&&&&&&&&&&&&&&&&&&&&&&&O33.&&&&&&&&&&&&&&&&&",
"&&&&&&&&&&&&&&&&&&&&&&&&&&&&&+:3:&&&&&&&&&&&&&&&&&",
"&&&&&&&&&&&&&&&&&&&&&&&&&&&&&.:@:O&&&&&&&&&&&&&&&&",
"&&&&&&&&&&&&&&&&&&&&&&&&&&&&&+X:#:#&&&&&&&&&&&&&&&",
"&&&&&&&&&&&&&&&&&&&&&&&&&&&&&#33:#:#&&&&&&&&&&&&&&",
"&&&&&&&&&&&&&&&&&&&&&&&&&&&&&# @X+++&&&&&&&&&&&&&&"
};
