/* XPM */
static char *result[] = {
/* columns rows colors chars-per-pixel */
"70 70 9 1 ",
"  c #000B0C",
". c #000F11",
"X c #0D1017",
"o c #00181B",
"O c #212B2B",
"+ c #283434",
"@ c #4F4541",
"# c #6E524C",
"$ c None",
/* pixels */
"$$$$$@@@@@++++OOOOOOooooXXXXXXXXXXXXXXXXXXXXXXXXXXXXXXXXXXXXXXXXXXXXXX",
"$$$$$@@@@@++++OOOOOOooooXXXXXXXXXXXXXXXXXXXXXXXXXXXXXXXXXXXXXXXXXXXXXX",
"$$$$$@@@@@@@+++++++OooooXXXXXXXXXXXXXXXXXXXXXXXXXXXXXXXXXXXXXXXXXXXXXX",
"$$$$$@@@@@@@@+++OOOOOOOXXXXXXXXXXXXXXXXXXXXXXXXXXXXXXXXXXXXXXXXXXXXXXX",
"$$$@@@@@@+@@@@+++OOOOooooooXXXXXXXXXXXXXXXXXXXXXXXXXXXXXXXXXXXXXXXXXXX",
"$$$@@@@@@+@@@@+++OOOOooooooXXXXXXXXXXXXXXXXXXXXXXXXXXXXXXXXXXXXXXXXXXX",
"$$$@@@@@@+@@@@##+OOOOoooOOOOOOXXXXXXXXXXXXXXXXXXXXXXXXXXXXXXXXXXXXXXXX",
"$$$@@@@@@+++@@##+++OoooooOOOOOXXXXXXXXXXXXXXXXXXXXXXXXXXXXXXXXXXXXXXXX",
"$$$@@@@@@+++@@##+++oo+++OOOoooXXXXooXXXXXXXXXXXXXXXXXXXXXXXXXXXXXXXXXX",
"$$$@@@@@@+OO@#+++++.o++++OOoooXXoooXXXXXXXXXXXXXXXXXXXXXXXXXXXXXXXXXXX",
"$$$@@@@@@+OO@#+++++.o++++OOoooXXoooXXXXXXXXXXXXXXXXXXXXXXXXXXXXXXXXXXX",
"$$$@@@@@@+OO@#+++OO..++++OOXXXXXoooXXXXXXXXXXXXXXXXXXXXXXXXXXXXXXXXXXX",
"$$$@@@##++OO@#++OOO.o++++OOoooXXoooXXXXXXXXXXXXXXXXXXXXXXXXXXXXXXXXXXX",
"$$$$$@##++OO@#++OOO..++++OOOooXXoooXXXXXXXXXXXXXXXXXXXXXXXXXXXXXXXXXXX",
"$$$$$@##++OO@#++OOO..++++OOOooXXoooXXXXXXXXXXXXXXXXXXXXXXXXXXXXXXXXXXX",
"$$$$$@##+OOO@#++OOOO.oo++++OooXXXXoXXXXXXXXXXXXXXXXXXXXXXXXXXXXXXXXXXX",
"$$$$$@@@+OOO@@+++OOOooo++++OoooXXXoXXXXXXXXXXXXXXXXXXXXXXXXXXXXXXXXXXX",
"$$$$$@@@+Ooo@@@@+++Oooo++++OOOXXXXXXXXXXXXXXXXXXXXXXXXXXXXXXXXXXXXXXXX",
"$$$$$@@@+Ooo@@@@@++++++o+++OOOXXXXXXXXXXXXXXXXXXXXXXXXXXXXXXXXXXXXXXXX",
"$$$$$@@@+Ooo@@@@@++++++o+++OOOXXXXXXXXXXXXXXXXXXXXXXXXXXXXXXXXXXXXXXXX",
"$$$$$$@@@+OO@@++@@@@+ooo+++OXXXXXXXXXXXXXXXXXXXXXXXXXXXXXXXXXXXXXXXXXX",
"$$$$$$$$@+@@@+oooooooooooooXXXXXXXXXXXXXXXXXXXXXXXXXXXXXXXXXXXXXXXXXXX",
"$$$$$$$$@+@@+OOOOOOOXXXXXXXXXXXXXXXXXXXXXXXXXXXXXXXXXXXXXXXXXXXXXXXXXX",
"$$$$$$$$@@@@@@@@+++O@XXXXXXXXXXXXXXXXXXXXXXXXXXXXXXXXXXXXXXXXXXXXXXXXX",
"$$$$$$$$@@@@@@@@+++O@XXXXXXXXXXXXXXXXXXXXXXXXXXXXXXXXXXXXXXXXXXXXXXXXX",
"$$$$$$$$@@@@@+@@@+++@OO XXXXXXXXXXXXXXXXXXXXXXXXXXXXXXXXXXXXXXXXXXXXXX",
"$$$$$$$$@@@@++++@++@#OOXXXXXXXXXXXXXXXXXXXXXXXXXXXXXXXXXXXXXXXXXXXXXXX",
"$$$$$$$$@@@@++++@@@@#OOOXXXXXXXXXXXXXXXXXXXXXXXXXXXXXXXXXXXXXXXXXXXXXX",
"$$$$$$$$@@@@++++@@@@#OOOXXXXXXXXXXXXXXXXXXXXXXXXXXXXXXXXXXXXXXXXXXXXXX",
"$$$$$$@@@@++OO++@@@@#OOOXXXXXXXXXXXXXXXXXXXXXXXXXXXXXXXXXXXXXXXXXXXXXX",
"$$$$$@@@+@OOOO++@@@#+OOXXXXXXXXXXXXXXXXXXXXXXXXXXXXXXXXXXXXXXXXXXXXXXX",
"$$$$$@@@+@+++O+++@@#+OOXXXXXXXXXXXXXXXXXXXXXXXXXXXXXXXXXXXXXXXXXXXXXXX",
"$$$$$@@@+@+++.@@+@@#+OOXXXXXXXXXXXXXXXXXXXXXXXXXXXXXXXXXXXXXXXXXXXXXXX",
"$$$$$@@@+@+++.@@+@@#+OOXXXXXXXXXXXXXXXXXXXXXXXXXXXXXXXXXXXXXXXXXXXXXXX",
"$$$$$@@@+@+++.@@+@@#+OOOOXXXXXXXXXXXXXXXXXXXXXXXXXXXXXXXXXXXXXXXXXXXXX",
"$$$$$@@@@.++..@@+@@@+++OOOOXXXXXXXXXXXXXXXXXXXXXXXXXXXXXXXXXXXXXXXXXXX",
"$$$$$@@@@....@@@+@@@@+++OOOXXXXXXXoXXXXXXXXXXXXXXXXXXXXXXXXXXXXXXXXXXX",
"$$$$$@@@@@...@@@+@@@@@@++XXXXXXXXXooXXXXXXXXXXXXXXXXXXXXXXXXXXXXXXXXXX",
"$$$$$@@@@@...@@@+@@@@@@++XXXXXXXXXooXXXXXXXXXXXXXXXXXXXXXXXXXXXXXXXXXX",
"$$$$$@@@@@++.@@@+@@@@@@@++++XXXXXXXoXXXXXXXXXXXXXXXXXXXXXXXXXXXXXXXXXX",
"$$$$$@@@@@+++@@@@@@@@@@@@+++OOXXXXXoXXXXXXXXXXXXXXXXXXXXXXXXXXXXXXXXXX",
"$$$$$@@@@+++O@@@@+++@@@@@+++OOXXXXXXXXXXXXXXXXXXXXXXXXXXXXXXXXXXXXXXXX",
"$$$$$@@@@+++O@@@@+++@@@@@+++OOXXXXXXXXXXXXXXXXXXXXXXXXXXXXXXXXXXXXXXXX",
"$$$$$@@@@OOOOO@@@++@@@@OOOOOXXXXXXXXXXXXXXXXXXXXXXXXXXXXXXXXXXXXXXXXXX",
"$$$$$$$$OOOOOO+++++@@OOXXXXXXXXXXXXXXXXXXXXXXXXXXXXXXXXXXXXXXXXXXXXXXX",
"$$$$$$@@@++++OOO@@@+OOOXXXXXXXXXXXXXXXXXXXXXXXXXXXXXXXXXXXXXXXXXXXXXXX",
"$$$$$@@@@+++#+OO@@@+OooXXXXXXXXXXXXXXXXXXXXXXXXXXXXXXXXXXXXXXXXXXXXXXX",
"$$$$$@@@@+++#+OO@@@+OooXXXXXXXXXXXXXXXXXXXXXXXXXXXXXXXXXXXXXXXXXXXXXXX",
"$$$$$@@@@@@@#+OOO@@+oooXXXXXXXXXXXXXXXXXXXXXXXXXXXXXXXXXXXXXXXXXXXXXXX",
"$$$@@@@@@@@@#+++OOOOOOOoXXXXXXXXXXXXXXXXXXXXXXXXXXXXXXXXXXXXXXXXXXXXXX",
"$$$@@@@@@@@@##++O@@@+OOOXXXXXXXXXXXXXXXXXXXXXXXXXXXXXXXXXXXXXXXXXXXXXX",
"$$$@@@@@@@@@@#++O@@@@++OXXXXXXXXXXXXXXXXXXXXXXXXXXXXXXXXXXXXXXXXXXXXXX",
"$$$@@@@@@@@@@#++O@@@@++OXXXXXXXXXXXXXXXXXXXXXXXXXXXXXXXXXXXXXXXXXXXXXX",
"$$$$$@@@@@@@@#++O@@@@++OOXXXXXXXXXXXXXXXXXXXXXXXXXXXXXXXXXXXXXXXXXXXXX",
"$$$$$@@@@@++@#++O@@@@++OOXXXXXXXXXXXXXXXXXXXXXXXXXXXXXXXXXXXXXXXXXXXXX",
"$$$$$@@@@@++@@++O@@@@++OOXXXXXXXXXXXXXXXXXXXXXXXXXXXXXXXXXXXXXXXXXXXXX",
"$$$$$@@@@@++@@++O@@@@++OOXXXXXXXXXXXXXXXXXXXXXXXXXXXXXXXXXXXXXXXXXXXXX",
"$$$$$@@@@+++@@OOO@@@+++OXXXXXXXXXXXXXXXXXXXXXXXXXXXXXXXXXXXXXXXXXXXXXX",
"$$$$$@@@@+++++OOO@@@+OOOXXXXXXXXXXXXXXXXXXXXXXXXXXXXXXXXXXXXXXXXXXXXXX",
"$$$$$@@@@+++++OOOOO@+OOXXXXXXXXXXXXXXXXXXXXXXXXXXXXXXXXXXXXXXXXXXXXXXX",
"$$$$$@@@+++++OOOOOO@+OOXXXXXXXXXXXXXXXXXXXXXXXXXXXXXXXXXXXXXXXXXXXXXXX",
"$$$$$@@@+++++OOOOOO@+OOXXXXXXXXXXXXXXXXXXXXXXXXXXXXXXXXXXXXXXXXXXXXXXX",
"$$$$$@@@++OOOO.....@+XXXXXXXXXXXXXXXXXXXXXXXXXXXXXXXXXXXXXXXXXXXXXXXXX",
"$$$$$$@@+O.........@+XXXXXXXXXXXXXXXXXXXXXXXXXXXXXXXXXXXXXXXXXXXXXXXXX",
"$$$$$$$$OOOOOOOOOOOOXXXXXXXXXXXXXXXXXXXXXXXXXXXXXXXXXXXXXXXXXXXXXXXXXX",
"$$$$$$$$OOOOOooooooooooooooXXXXXXXXXXXXXXXXXXXXXXXXXXXXXXXXXXXXXXXXXXX",
"$$$$$$$$OOOOOooooooooooooooXXXXXXXXXXXXXXXXXXXXXXXXXXXXXXXXXXXXXXXXXXX",
"$$$$$$+++OOOOooo@@@@+ooooooXXXXXXXXXXXXXXXXXXXXXXXXXXXXXXXXXXXXXXXXXXX",
"$$$$$$+++Oooo@@@@++++++ooooXXXXXXXX.XXXXXXXXXXXXXXXXXXXXXXXXXXXXXXXXXX",
"$$$$$$+++Ooo@@@@+++OooooXXXXXXXXXXX.XXXXXXXXXXXXXXXXXXXXXXXXXXXXXXXXXX"
};
