/* XPM */
static char *result[] = {
/* columns rows colors chars-per-pixel */
"50 50 31 1 ",
"  c black",
". c #010000",
"X c #000100",
"o c #010100",
"O c #000001",
"+ c #010001",
"@ c #000101",
"# c #010101",
"$ c #181A24",
"% c #191A24",
"& c #181B24",
"* c #191B24",
"= c #181A25",
"- c #191A25",
"; c #181B25",
": c #191B25",
"> c #5F0F03",
", c #2E475A",
"< c #A00000",
"1 c #A05000",
"2 c #F04030",
"3 c #D67E40",
"4 c #A09000",
"5 c #F0F040",
"6 c #406080",
"7 c #687EC1",
"8 c #508FC0",
"9 c #70A4CC",
"0 c #F0C090",
"q c #AAB8E2",
"w c #FEFEFE",
/* pixels */
"***********&&&&&&&&&&oooooooo&&&&&&&&&************",
"***********&&&&&&&&&+44555554o&&&&&&&&************",
"***********&&&&&&&&+4455555544o&&&&&&&************",
"***********&&&&&&&X444555555444+&&&&&&************",
"***********&&&&&&X24455555544442XX&&&&************",
"***********&&&&XX45225555544422444o&&&************",
"***********&&&#44455422222222444544.&&************",
"***********&&&#44455554445554555544.&&************",
"***********&&&&##.4445555455444444.&&&************",
"***********&&&&&&...4444444444.OOO&&&&************",
"***********&&&&&&&OOO.......OOOOO&&&&&************",
"***********&&&&&&&O&OOOOOOOOOO&O&&&&&&************",
"***********&&&&&&&&&&@OOOOOOX&&&&&&&&&************",
"***********&&&&&&&&&oo<<<<<<<#&&&&&&&&************",
"*************&&&&&&o<<<<222<<<#&&&&&&*************",
"*************&&&&&o<<<<22222<<<#&&&&&*************",
"*************&&&&o><<X<22222<<<<X&&&&*************",
"*************&&&&o><XX<22222<<<<<@&&&*************",
"*************&&&o>>>X<2222222<X<<<&&&*************",
"*************&&&O>>XX<2222222<X#<<@&&*************",
"*************&&&#>X&X<2222222<##>>>X&*************",
"*************&&#33X&X<2222222<#&X>>X&*************",
"*************&%#333X@<2222222< &#>>X&*************",
"*************&%#333X@<2222222< &&#X&&*************",
"*************&%X333X@<222222<< &&&&&&*************",
"*************&%%XXX&@<<<<<<<<<@&&&&&&*************",
"*******************@<<<<<<@@@@@@******************",
"*******************O@@@@@@666,,@&***&*************",
"****************&&*O66666668,,,,O%**&*************",
"****************&;o66999999,,,,,O%**%*************",
"****************&;o6999998,,,,8,O;**$*************",
"****************;;o699998oo,,,8,.***=*************",
"****************;;;#6999,o$o,,,,.*****************",
"****************;;;#69998#$o,,,,.=**;*************",
"****************;;;#69999o;o,,,,.;**;*************",
"****************=$;#66997o%&O11#:***;*************",
"****************=$;$#wqqqo$&O11O%***%*************",
"****************&;$$#333+o%& 11#&&**$*************",
"****************&==$ 333o&%;#33+-%**-*************",
"****************&*$; 003o$$%.33+--**%*************",
"****************=*&%X00o---$-++---****************",
"****************$%%$o00o-;--------**:*************",
"****************%%*;.003#;:-------**=*************",
"****************$*;- 0033#:-------**%*************",
"****************===-O033XO=-------**-*************",
"****************-::%%OO  ===&--------*************",
"****************=*=********===-------*************",
"**************************************************",
"**************************************************",
"**************************************************"
};
