/* XPM */
static char *result[] = {
/* columns rows colors chars-per-pixel */
"70 70 9 1 ",
"  c #000B0C",
". c #000F11",
"X c #0D1017",
"o c #00181B",
"O c #212B2B",
"+ c #283434",
"@ c #4F4541",
"# c #6E524C",
"$ c None",
/* pixels */
"XXXXXXXXXXXXXXXXXXXXXXXXXXXXXXXXXX.XXXXXXXXXXXooooO+++@@@@ooO+++$$$$$$",
"XXXXXXXXXXXXXXXXXXXXXXXXXXXXXXXXXX.XXXXXXXXoooo++++++@@@@oooO+++$$$$$$",
"XXXXXXXXXXXXXXXXXXXXXXXXXXXXXXXXXXXXXXXXXXXoooooo+@@@@oooOOOO+++$$$$$$",
"XXXXXXXXXXXXXXXXXXXXXXXXXXXXXXXXXXXXXXXXXXXooooooooooooooOOOOO$$$$$$$$",
"XXXXXXXXXXXXXXXXXXXXXXXXXXXXXXXXXXXXXXXXXXXooooooooooooooOOOOO$$$$$$$$",
"XXXXXXXXXXXXXXXXXXXXXXXXXXXXXXXXXXXXXXXXXXXXXXXXXXOOOOOOOOOOOO$$$$$$$$",
"XXXXXXXXXXXXXXXXXXXXXXXXXXXXXXXXXXXXXXXXXXXXXXXXX+@.........O+@@$$$$$$",
"XXXXXXXXXXXXXXXXXXXXXXXXXXXXXXXXXXXXXXXXXXXXXXXXX+@.....OOOO++@@@$$$$$",
"XXXXXXXXXXXXXXXXXXXXXXXXXXXXXXXXXXXXXXXXXXXXXXXOO+@OOOOOO+++++@@@$$$$$",
"XXXXXXXXXXXXXXXXXXXXXXXXXXXXXXXXXXXXXXXXXXXXXXXOO+@OOOOOO+++++@@@$$$$$",
"XXXXXXXXXXXXXXXXXXXXXXXXXXXXXXXXXXXXXXXXXXXXXXXOO+@OOOOO+++++@@@@$$$$$",
"XXXXXXXXXXXXXXXXXXXXXXXXXXXXXXXXXXXXXXXXXXXXXXOOO+@@@OOO+++++@@@@$$$$$",
"XXXXXXXXXXXXXXXXXXXXXXXXXXXXXXXXXXXXXXXXXXXXXXO+++@@@OOO@@+++@@@@$$$$$",
"XXXXXXXXXXXXXXXXXXXXXXXXXXXXXXXXXXXXXXXXXXXXXOO++@@@@O++@@++@@@@@$$$$$",
"XXXXXXXXXXXXXXXXXXXXXXXXXXXXXXXXXXXXXXXXXXXXXOO++@@@@O++@@++@@@@@$$$$$",
"XXXXXXXXXXXXXXXXXXXXXXXXXXXXXXXXXXXXXXXXXXXXXOO++@@@@O++#@++@@@@@$$$$$",
"XXXXXXXXXXXXXXXXXXXXXXXXXXXXXXXXXXXXXXXXXXXXXOO++@@@@O++#@@@@@@@@$$$$$",
"XXXXXXXXXXXXXXXXXXXXXXXXXXXXXXXXXXXXXXXXXXXXXXO++@@@@O++#@@@@@@@@@@$$$",
"XXXXXXXXXXXXXXXXXXXXXXXXXXXXXXXXXXXXXXXXXXXXXXO++@@@@O++#@@@@@@@@@@$$$",
"XXXXXXXXXXXXXXXXXXXXXXXXXXXXXXXXXXXXXXXXXXXXXXOOO+@@@O++##@@@@@@@@@$$$",
"XXXXXXXXXXXXXXXXXXXXXXXXXXXXXXXXXXXXXXXXXXXXXXoOOOOOOO+++#@@@@@@@@@$$$",
"XXXXXXXXXXXXXXXXXXXXXXXXXXXXXXXXXXXXXXXXXXXXXXXooo+@@OOO+#@@@@@@@$$$$$",
"XXXXXXXXXXXXXXXXXXXXXXXXXXXXXXXXXXXXXXXXXXXXXXXooO+@@@OO+#+++@@@@$$$$$",
"XXXXXXXXXXXXXXXXXXXXXXXXXXXXXXXXXXXXXXXXXXXXXXXooO+@@@OO+#+++@@@@$$$$$",
"XXXXXXXXXXXXXXXXXXXXXXXXXXXXXXXXXXXXXXXXXXXXXXXOOO+@@@OOO++++@@@$$$$$$",
"XXXXXXXXXXXXXXXXXXXXXXXXXXXXXXXXXXXXXXXXXXXXXXXOO@@+++++OOOOOO$$$$$$$$",
"XXXXXXXXXXXXXXXXXXXXXXXXXXXXXXXXXXXXXXXXXXOOOOO@@@@++@@@OOOOO@@@@$$$$$",
"XXXXXXXXXXXXXXXXXXXXXXXXXXXXXXXXXXXXXXXXOO+++@@@@@+++@@@@O+++@@@@$$$$$",
"XXXXXXXXXXXXXXXXXXXXXXXXXXXXXXXXXXXXXXXXOO+++@@@@@+++@@@@O+++@@@@$$$$$",
"XXXXXXXXXXXXXXXXXXXXXXXXXXXXXXXXXXoXXXXXOO+++@@@@@@@@@@@@+++@@@@@$$$$$",
"XXXXXXXXXXXXXXXXXXXXXXXXXXXXXXXXXXoXXXXXXX++++@@@@@@@+@@@.++@@@@@$$$$$",
"XXXXXXXXXXXXXXXXXXXXXXXXXXXXXXXXXXooXXXXXXXXX++@@@@@@+@@@...@@@@@$$$$$",
"XXXXXXXXXXXXXXXXXXXXXXXXXXXXXXXXXXooXXXXXXXXX++@@@@@@+@@@...@@@@@$$$$$",
"XXXXXXXXXXXXXXXXXXXXXXXXXXXXXXXXXXXoXXXXXXXOOO+++@@@@+@@@....@@@@$$$$$",
"XXXXXXXXXXXXXXXXXXXXXXXXXXXXXXXXXXXXXXXXXXXOOOO+++@@@+@@..++.@@@@$$$$$",
"XXXXXXXXXXXXXXXXXXXXXXXXXXXXXXXXXXXXXXXXXXXXXOOOO+#@@+@@.+++@+@@@$$$$$",
"XXXXXXXXXXXXXXXXXXXXXXXXXXXXXXXXXXXXXXXXXXXXXXXOO+#@@+@@.+++@+@@@$$$$$",
"XXXXXXXXXXXXXXXXXXXXXXXXXXXXXXXXXXXXXXXXXXXXXXXOO+#@@+@@.+++@+@@@$$$$$",
"XXXXXXXXXXXXXXXXXXXXXXXXXXXXXXXXXXXXXXXXXXXXXXXOO+#@@+++O+++@+@@@$$$$$",
"XXXXXXXXXXXXXXXXXXXXXXXXXXXXXXXXXXXXXXXXXXXXXXXOO+#@@@++OOOO@+@@@$$$$$",
"XXXXXXXXXXXXXXXXXXXXXXXXXXXXXXXXXXXXXXXXXXXXXXOOO#@@@@++OO++@@@@$$$$$$",
"XXXXXXXXXXXXXXXXXXXXXXXXXXXXXXXXXXXXXXXXXXXXXXOOO#@@@@++++@@@@$$$$$$$$",
"XXXXXXXXXXXXXXXXXXXXXXXXXXXXXXXXXXXXXXXXXXXXXXOOO#@@@@++++@@@@$$$$$$$$",
"XXXXXXXXXXXXXXXXXXXXXXXXXXXXXXXXXXXXXXXXXXXXXXXOO#@++@++++@@@@$$$$$$$$",
"XXXXXXXXXXXXXXXXXXXXXXXXXXXXXXXXXXXXXXXXXXXXXX OO@+++@@@+@@@@@$$$$$$$$",
"XXXXXXXXXXXXXXXXXXXXXXXXXXXXXXXXXXXXXXXXXXXXXXXXX@O+++@@@@@@@@$$$$$$$$",
"XXXXXXXXXXXXXXXXXXXXXXXXXXXXXXXXXXXXXXXXXXXXXXXXX@O+++@@@@@@@@$$$$$$$$",
"XXXXXXXXXXXXXXXXXXXXXXXXXXXXXXXXXXXXXXXXXXXXXXXXXXOOOOOOO+@@+@$$$$$$$$",
"XXXXXXXXXXXXXXXXXXXXXXXXXXXXXXXXXXXXXXXXXXXooooooooooooo+@@@+@$$$$$$$$",
"XXXXXXXXXXXXXXXXXXXXXXXXXXXXXXXXXXXXXXXXXXO+++ooo+@@@@++@@OO+@@@$$$$$$",
"XXXXXXXXXXXXXXXXXXXXXXXXXXXXXXXXXXXXXXXXOOO+++o++++++@@@@@ooO+@@@$$$$$",
"XXXXXXXXXXXXXXXXXXXXXXXXXXXXXXXXXXXXXXXXOOO+++o++++++@@@@@ooO+@@@$$$$$",
"XXXXXXXXXXXXXXXXXXXXXXXXXXXXXXXXXXXXXXXXOOO++++oooO+++@@@@ooO+@@@$$$$$",
"XXXXXXXXXXXXXXXXXXXXXXXXXXXXXXXXXXXoXXXoooO++++oooOOO+++@@OOO+@@@$$$$$",
"XXXXXXXXXXXXXXXXXXXXXXXXXXXXXXXXXXXoXXXXooO++++oo.OOOO++#@OOO+##@$$$$$",
"XXXXXXXXXXXXXXXXXXXXXXXXXXXXXXXXXXXoooXXooOOO++++..OOO++#@OO++##@$$$$$",
"XXXXXXXXXXXXXXXXXXXXXXXXXXXXXXXXXXXoooXXooOOO++++..OOO++#@OO++##@$$$$$",
"XXXXXXXXXXXXXXXXXXXXXXXXXXXXXXXXXXXoooXXoooOO++++o.OOO++#@OO++##@@@$$$",
"XXXXXXXXXXXXXXXXXXXXXXXXXXXXXXXXXXXoooXXXXXOO++++..OO+++#@OO+@@@@@@$$$",
"XXXXXXXXXXXXXXXXXXXXXXXXXXXXXXXXXXXoooXXoooOO++++o.+++++#@OO+@@@@@@$$$",
"XXXXXXXXXXXXXXXXXXXXXXXXXXXXXXXXXXXoooXXoooOO++++o.+++++#@OO+@@@@@@$$$",
"XXXXXXXXXXXXXXXXXXXXXXXXXXXXXXXXXXooXXXXoooOOO+++oo+++##@@+++@@@@@@$$$",
"XXXXXXXXXXXXXXXXXXXXXXXXXXXXXXXXXXXXXXXXOOOOOoooooO+++##@@+++@@@@@@$$$",
"XXXXXXXXXXXXXXXXXXXXXXXXXXXXXXXXXXXXXXXXOOOOOOoooOOOO+##@@@@+@@@@@@$$$",
"XXXXXXXXXXXXXXXXXXXXXXXXXXXXXXXXXXXXXXXXXXXooooooOOOO+++@@@@+@@@@@@$$$",
"XXXXXXXXXXXXXXXXXXXXXXXXXXXXXXXXXXXXXXXXXXXooooooOOOO+++@@@@+@@@@@@$$$",
"XXXXXXXXXXXXXXXXXXXXXXXXXXXXXXXXXXXXXXXXXXXXXXXOOOOOOO+++@@@@@@@@$$$$$",
"XXXXXXXXXXXXXXXXXXXXXXXXXXXXXXXXXXXXXXXXXXXXXXooooO+++++++@@@@@@@$$$$$",
"XXXXXXXXXXXXXXXXXXXXXXXXXXXXXXXXXXXXXXXXXXXXXXooooOOOOOO++++@@@@@$$$$$",
"XXXXXXXXXXXXXXXXXXXXXXXXXXXXXXXXXXXXXXXXXXXXXXooooOOOOOO++++@@@@@$$$$$"
};
