/* XPM */
static char *result[] = {
/* columns rows colors chars-per-pixel */
"70 70 9 1 ",
"  c #000B0C",
". c #000F11",
"X c #0D1017",
"o c #00181B",
"O c #212B2B",
"+ c #283434",
"@ c #4F4541",
"# c #6E524C",
"$ c None",
/* pixels */
"XXXXXXXXXXXXXXXXXXXXXXXXXXXXXXXXXXXXXXXXXXXXXXXXXXXXXXXXXXXXXXXXXXXXXX",
"XXXXXXXXXXXXXXXXXXXXXXXXXXXXXXXXXXXXXXXXXXXXXXXXXXXXXXXXXXXXXXXXXXXXXX",
"XXXXXXXXXXXXXXXXXXXXXXXXXXXXXXXXXXXXXXXXXXXXXXXXXXXXXXXXXXXXXXXXXXXXXX",
"XXXXXXXXXXXXXXXXXXXXXXXXXXXXXXXXXXXXXXXXXXXXXXXXXXXXXXXXXXXXXXXXXXXXXX",
"XXXXXXXXXXXXXXXXXXXXXXXXXXXXXXXXXXXXXXXXXXXXXXXXXXXXXXXXXXXXXXXXXXXXXX",
"XXXXXXXXXXXXXXXXXXXXXXXXXXXXXXXXXXXXXXXXXXXXXXXXXXXXXXXXXXXXXXXXXXXXXX",
"XXXXXXXXXXXXXXXXXXXXXXXXXXXXXXXXXXXXXXXXXXXXXXXXXXXXXXXXXXXXXXXXXXXXXX",
"XXXXXXXXXXXXXXXXXXXXXXXXXXXXXXXXXXXXXXXXXXXXXXXXXXXXXXXXXXXXXXXXXXXXXX",
"XXXXXXXXXXXXXXXXXXXXXXXXXXXXXXXXXXXXXXXXXXXXXXXXXXXXXXXXXXXXXXXXXXXXXX",
"XXXXXXXXXXXXXXXXXXXXXXXXXXXXXXXXXXXXXXXXXXXXXXXXXXXXXXXXXXXXXXXXXXXXXX",
"XXXXXXXXXXXXXXXXXXXXXXXXXXXXXXXXXXXXXXXXXXXXXXXXXXXXXXXXXXXXXXXXXXXXXX",
"XXXXXXXXXXXXXXXXXXXXXXXXXXXXXXXXXXXXXXXXXXXXXXXXXXXXXXXXXXXXXXXXXXXXXX",
"XXXXXXXXXXXXXXXXXXXXXXXXXXXXXXXXXXXXXXXXXXXXXXXXXXXXXXXXXXXXXXXXXXXXXX",
"XXXXXXXXXXXXXXXXXXXXXXXXXXXXXXXXXXXXXXXXXXXXXXXXXXXXXXXXXXXXXXXXXXXXXX",
"XXXXXXXXXXXXXXXXXXXXXXXXXXXXXXXXXXXXXXXXXXXXXXXXXXXXXXXXXXXXXXXXXXXXXX",
"XXXXXXXXXXXXXXXXXXXXXXXXXXXXXXXXXXXXXXXXXXXXXXXXXXXXXXXXXXXXXXXXXXXXXX",
"XXXXXXXXXXXXXXXXXXXXXXXXXXXXXXXXXXXXXXXXXXXXXXXXXXXXXXXXXXXXXXXXXXXXXX",
"XXXXXXXXXXXXXXXXXXXXXXXXXXXXXXXXXXXXXXXXXXXXXXXXXXXXXXXXXXXXXXXXXXXXXX",
"XXXXXXXXXXXXXXXXXXXXXXXXXXXXXXXXXXXXXXXXXXXXXXXXXXXXXXXXXXXXXXXXXXXXXX",
"XXXXXXXXXXXXXXXXXXXXXXXXXXXXXXXXXXXXXXXXXXXXXXXXXXXXXXXXXXXXXXXXXXXXXX",
"XXXXXXXXXXXXXXXXXXXXXXXXXXXXXXXXXXXXXXXXXXXXXXXXXXXXXXXXXXXXXXXXXXXXXX",
"XXXXXXXXXXXXXXXXXXXXXXXXXXXXXXXXXXXXXXXXXXXXXXXXXXXXXXXXXXXXXXXXXXXXXX",
"XXXXXXXXXXXXXXXXXXXXXXXXXXXXXXXXXXXXXXXXXXXXXXXXXXXXXXXXXXXXXXXXXXXXXX",
"XXXXXXXXXXXXXXXXXXXXXXXXXXXXXXXXXXXXXXXXXXXXXXXXXXXXXXXXXXXXXXXXXXXXXX",
"XXXXXXXXXXXXXXXXXXXXXXXXXXXXXXXXXXXXXXXXXXXXXXXXXXXXXXXXXXXXXXXXXXXXXX",
"XXXXXXXXXXXXXXXXXXXXXXXXXXXXXXXXXXXXXXXXXXXXXXXXXXXXXXXXXXXXXXXXXXXXXX",
"XXXXXXXXXXXXXXXXXXXXXXXXXXXXXXXXXXXXXXXXXXXXXXXXXXXXXXXXXXXXXXXXXXXXXX",
"XXXXXXXXXXXXXXXXXXXXXXXXXXXXXXXXXXXXXXXXXXXXXXXXXXXXXXXXXXXXXXXXXXXXXX",
"XXXXXXXXXXXXXXXXXXXXXXXXXXXXXXXXXXXXXXXXXXXXXXXXXXXXXXXXXXXXXXXXXXXXXX",
"XXXXXXXXXXXXXXXXXXXXXXXXXXXXXXXXXXXXXXXXXXXXXXXXXXXXXXXXXXXXXXXXXXXXXX",
"XXXXXXXXXXXXXXXXXXXXXXXXXXXXXXXXXXXXXXXXXXXXXXXXXXXXXXXXXXXXXXXXXXXXXX",
"XXXXXXXXXXXXXXXXXXXXXXXXXXXXXXXXXXXXXXXXXXXXXXXXXXXXXXXXXXXXXXXXXXXXXX",
"XXXXXXXXXXXXXXXXXXXXXXXXXXXXXXXXXXXXXXXXXXXXXXXXXXXXXXXXXXXXXXXXXXXXXX",
"XXXXXXXXXXXXXXXXXXXXXXXXXXXXXXXXXXXXXXXXXXXXXXXXXXXXXXXXXXXXXXXXXXXXXX",
"XXXXXXXXoXXXXXXXXXXXXXXXXXXXXXXXXXXXXooooXXXXXXXXXXXXXXXXXXXXXXXXXXX..",
"XXXXXXXXoooooooooXXXXXXXXXXXXXXXXXXXoooXXXXXXXXXXXXXXXXXXXXXXXXXXXXXXX",
"XXXXXXXXXooooooXXXXXXXXXXXXXXXXXXXXXXXXXXXXXXXXXXXXXXXXXXXXXXXXXXXXXXX",
"XXXXXXXXXooooooXXXXXXXXXXXXXXXXXXXXXXXXXXXXXXXXXXXXXXXXXXXXXXXXXXXXXXX",
"XXXXXXXXXXXXXXXXXXXXXXXXXXXXXXXXXXXXXXXXXXXXXXXXXXXXXXXXXXXXXXXXXXXXXX",
"XXXXXXXXXXXXXXXXoXXXXXXXXXXXXXXXXXXXXXXXXXXXXXXXXXXXXXXXXXXXXXXXXXXXXX",
"XXXXXXOOoooXoooooOOOXXXXXXXXXXXXXXXXXXXXOOOXXXXXXXXXXXXXXXXXXXXXXXXXXX",
"XXXXXXOOoooXoooooOOOXXXXXXXXXXXXXXXXXXXXOOOXXXXXXXXXXXXXXXXXXXXXXXXXXX",
"XXXXXXOOoooXoOOOOOOOOXXXXXXXXXXXXXXXXXX++++OXXXXXXXXXXXXXXXXXXXXXXXXXX",
"XXXXooOOOOOOOOO++++++oXXXXXXXXXXXXXOOXX++++OXXXXXXXXXXXXXXXXXXXXXooooX",
"XXXXooOOOOOOOOO++++++oXXXXXXXXXXXXXOOXX++++OXXXXXXXXXXXXXXXXXXXXXooooX",
"XXXXooOoO++++++++++++oXXXXXXXXXXXXOOO+++@@@OXXXXXXXXXOOOOXXXXXXXXooooX",
"oooXoooo++++++++++ooooXXX XOOOXXXXOO+++@@@@OXXXXXoOOOOOOOOOXXXXXXooooo",
"oooOoooo+++++++ooo++ooXXXOOOOOOOOOO++@@@@@@@OOoooOO+++++++OOOOXXXooo+o",
"oooOoooo+++++++ooo++ooXXXOOOOOOOOOO++@@@@@@@OOoooOO+++++++OOOOXXXooo+o",
"oooOOOOoooo.o...oo+++oX@@@####++++++@@@@@@@@@OOOoO+@@@@@@+++++++Xoo++o",
"OOOOOOOOo......OOO++@oOOO+@@@@#####@@@@@@++@@++++O@@@@@@@@@@@@@@Ooo@+O",
"OO+OOOO++++OOOOOO+++@oO++++@@@@@@@@@@@@@@++++@@@@O@@@@@@@@@OOO..Ooo@++",
"OO+OOOO++++OOOOOO+++@oO++++@@@@@@@@@@@@@@++++@@@@O@@@@@@@@@OOO..Ooo@++",
"OO+O++++++++OOOO++@@@oO++@@@@@@+++++++++@@@@+@@@OOOOOOOOOOOOOO..Ooo@@+",
"OO++++###++++++++@@@+oO@@@++++++@@@@@@@@@@@@+OOOO++++++++OOOOO..Oooo@@",
"OO++++###++++++++@@@+oO@@@++++++@@@@@@@@@@@@+OOOO++++++++OOOOO..Oooo@@",
"++++@@@@@#######@@@@@+O@@++++OOO....@@@@@@@OOO++++#####@@@++OOO.Oooo@@",
"+++@@@@@@@@@@@@@@@@@@@+@@@+++OO++++.....+OOOO+#####@@@@@@@++++O.OOOOo@",
"++@@@@@++OOOOOOOOoooO@@@@@@@@+O+++++...++++OO+++@@@@@@++++++++O.OOOOoo",
"++@@@@@++OOOOOOOOoooO@@@@@@@@+O+++++...++++OO+++@@@@@@++++++++O.OOOOoo",
"@@@@+++++++++++OOOOO+++@@@@@@@@@@@@..@@@@++OO+++@@@@@@@@@++++++OOOOOOO",
"@@@@@@@@@@@@++++++++@@@@@@@@@@+++++@@@@@@@@@O@@@@@@@@@@@@@@@++++OOO+++",
"@@@@@@@@@@@@####@@@@@$$$$$$$$@@@@@@@@@@@@@@@$@@@@@@@@@@@@@@@@@@@$$$+++",
"@@@@@@@@@@@@####@@@@@$$$$$$$$@@@@@@@@@@@@@@@$@@@@@@@@@@@@@@@@@@@$$$+++",
"@@@@@@@@@@@@@@@@@@@@$$$$$$$$$$@@@@@@@@@@@@@@$$@@@@@@@@@@@@@@@@@$$$$$$$",
"$$$$@@@@@@@@@$$$$$$$$$$$$$$$$$$$$$$$$$$$$$$$$$$$$@@@@$$$$$$$$$$$$$$$$$",
"$$$$@@@@@@@@@$$$$$$$$$$$$$$$$$$$$$$$$$$$$$$$$$$$$@@@@$$$$$$$$$$$$$$$$$",
"$$$$$$$$$$$$$$$$$$$$$$$$$$$$$$$$$$$$$$$$$$$$$$$$$$$$$$$$$$$$$$$$$$$$$$",
"$$$$$$$$$$$$$$$$$$$$$$$$$$$$$$$$$$$$$$$$$$$$$$$$$$$$$$$$$$$$$$$$$$$$$$",
"$$$$$$$$$$$$$$$$$$$$$$$$$$$$$$$$$$$$$$$$$$$$$$$$$$$$$$$$$$$$$$$$$$$$$$"
};
