/* XPM */
static char *result[] = {
/* columns rows colors chars-per-pixel */
"70 70 7 1 ",
"  c black",
". c #161B26",
"X c #943B29",
"o c #B86555",
"O c #616983",
"+ c #AA8D8F",
"@ c #D9C9C9",
/* pixels */
"......................................................................",
"......................................................................",
"......................................................................",
"......................................................................",
"......................................................................",
"......................................................................",
"......................................................................",
"......................................................................",
"......................................................................",
"......................................................................",
"........................................O.............................",
"....................................O...OO............................",
".........................................OO...........................",
"..........................................O...........................",
"........................................OO............................",
".....................................OOOO.............................",
"....................................OOOO..............................",
"...................................OOOO...............................",
"...................................OOO................................",
"...............................O..OOO.....OO..........................",
"...............................O..OOOO..OOO...........................",
"...........................O...OO.OOOO.OOO............................",
"...........................OO..OOOOOOO.OOOO...........................",
"............................OO..OOOOOO.OOOO...........................",
"............................OO...OOOOO.OOOOO..........................",
"............................O....OOOOOO.OOOOO.........................",
"...........................OO....OO.OOOOOOOOOO........................",
"...........................OOO..OOO..       OO.......    .............",
"..........................OOOO.OOO   ooooooo  ...... @@@@ ............",
"..........................OOOOO   oooooooooXoo  ... @@@@@ ............",
"..........................O.   ooooooooooooooooo .. @@@@@ ............",
".........................O  ooooooooooooooooooooo . @@@@+ ............",
"......................... ooooooXoooooooooXooooooo @@@++ .............",
"........................ ooooooooooooooooooooooooo +++++ .............",
"....................... ooooooooooooXoooooooooooooX +++++ ............",
"...................... oooXoooooooooooooooooooooooX +++++ ............",
"..................... ooooooooooooooooooooooXooooXX ++++++ ...........",
"..................... oooXXXXXooooooooooooooooooXXX  +++++ ...........",
".................... ooXXXXXXXXXoXoooooXXooooooXXoX . ++++ ...........",
".............     .. oXXXXX XXXXXoooooooooooooXXXXX ..    ............",
"............ @@@@@ . oXX     XXXXoooooooooooXXXXXXX ..................",
"........... @@@@@@@     @@@++ XXXXooooooooXXXXXXXXX ..................",
"........... @@@@@@@@@@@@@@@@++ XXXXXoooXXXXXXooXXX ...................",
"........... @@@@@@@@@@@@++++++ XXoXXXXXXXXXXXXXXXX ...................",
"............   +@@@@@@++++++++ XXXXXXXXXXXXXXXXXX ....................",
"............... +@@@@+++++    XXXXXXXXXoXXXXXXXX .....................",
"................ +@@+++   XXX XXXXXXXXXXXXXXXXX ......................",
"................ +++++ XXXXXXXXXXXXXXXXXXXXXXX .......................",
"................ +++++  XXXXXXXXXXXXXXXXXXXX  ........................",
"................ +++++ . XXXXXXXXXXXXXXXXX  ..........................",
"................ ++++ ...  XXXXXXXXXXXXX  ............................",
".................    ......  XXXXXXXX   ..............................",
".............................        .................................",
"......................................................................",
"......................................................................",
"......................................................................",
"......................................................................",
"......................................................................",
"......................................................................",
"......................................................................",
"......................................................................",
"......................................................................",
"......................................................................",
"......................................................................",
"......................................................................",
"......................................................................",
"......................................................................",
"......................................................................",
"......................................................................",
"......................................................................"
};
