/* XPM */
static char *result[] = {
/* columns rows colors chars-per-pixel */
"50 50 14 1 ",
"  c black",
". c #161b26",
"X c #502000",
"o c #A00000",
"O c #A05000",
"+ c #F04030",
"@ c #E07020",
"# c #A09000",
"$ c #F0F040",
"% c #406080",
"& c #508FC0",
"* c gray69",
"= c #F0C090",
"- c white",
/* pixels */
"..................................................",
"................    ..............................",
".............   ==== .............................",
"...........  ###  == .............................",
".......... $$$$$ ==== ............................",
"......... $$$$$# ===@@ ...........................",
"......... +$$$### ==@@ ...........................",
".....    o++++o### @@ ............................",
"...  #$$$$$$$+ooo == .......    ..................",
"....      #$$$$$ === .....  @@@  .................",
".......  O     # ==@   .  @@@@OOO ................",
"...... . X@ O *  ==@ ## O@  OOO O ................",
"......... O@ - -O @@@  OOOOO   OO ................",
"......... ====-*@O @@@ OO   OOO  .................",
"......... =======@  @@@  ...    ..................",
".......... @--O==  o @@  .........................",
"........... ==== @ oooooo ........................",
"............      $o+++ooo .......................",
"..................  $++++o .......................",
"...................  +++++o ......................",
".................... +$++++o .....................",
".................... o +++++o ....................",
"..................... %   +++o ...................",
"..................   %&&&%     ...................",
"..............   %%%%%%%%&&&&%% ..................",
".............  *%%%%%%%% %&&&&&% .................",
"............ @@X*%%%%%%%%  %&&&&% ................",
"............ @@X*%%%%%      %&&&&% ...............",
"............ @OO *%   ...... %&&&* ...............",
"............ @OO   .......... &&--  ..............",
"............ @O .............. -- @ ..............",
"............ @O ...............  === .............",
".......  ... @ .................. === ............",
".....   @   OO ................... @@@ ...........",
"..... @ @@@@ O .................... @@@   ........",
".....     O @O ..................... ==@@@ .......",
"....... ##  OOO ..................... ===@ .......",
"........    OOO ...................... === .......",
"......... ## OO ...................... ===@ ......",
"..........  #  ....................... ===@ ......",
"...........   ......................... == @ .....",
"....................................... = =@ .....",
".......................................   =@ .....",
"....................................... = = ......",
"........................................ = .......",
"........................................  ........",
"..................................................",
"..................................................",
"..................................................",
".................................................."
};
