/* XPM */
static char *result[] = {
/* columns rows colors chars-per-pixel */
"50 50 15 1 ",
"  c black",
". c #161b26",
"X c #502000",
"o c #A00000",
"O c #A05000",
"+ c #F04030",
"@ c #E07020",
"# c #A09000",
"$ c #F0F040",
"% c #406080",
"& c #508FC0",
"* c gray69",
"= c #F0C090",
"- c white",
"; c None",
/* pixels */
"..................................................",
"..................    ............................",
"...............   @=== ...........................",
".............  ###  == ...........................",
"............ $$$$$ ==== ..........................",
"........... $$$$$# ====@ .........................",
"........... +$$$### ==@@ .........................",
"........   o++++o## @=@ ..........................",
"......  #$$$$$$+ooo == ...........................",
".......     #$$$$$$ == ...........................",
".........  O     #$ ==   .........................",
"........ . X@ O *   @@@ # ........................",
"........... O@ - -O  @@  .........................",
"........... ====-*@O @@@ .........................",
"........... =======@  @@@ ........................",
"............ @--O==  o O@  .......................",
"............. ==== @ oooooo ......................",
"..............      o$+++ooo .....................",
"...................   +$+++oo ....................",
".................... O oo+++oo ...................",
"............   .... @O +$++++o ...................",
"........... === ... @O o ++++oo ..................",
".......... ==  @   OOO   +++++o ..................",
"......... @ @O @@@@@O ; %       ..................",
"......... @@  @@ OOOO  %%%&&&&% ..................",
".........  O@ @@     &&&&&&&%%% ..................",
"..........   O  ... --&&&&%%% % ..................",
".......... OO  ....  --&%%%% %% ..................",
"...........   .... == --%%   %%% .................",
".................. ==@ *   %%%%% .................",
"................... ==@ ... %%%%* ................",
".................... ==@ ... %%** ................",
"..................... ==@ ..  ** .................",
"...................... ==  ..   O ................",
"....................... =@@@.. OOO ...............",
"....................... ==@@@.. OO ...............",
"....................... ====@@. OO ...............",
"....................... ======.. OO ..............",
"...................... ==  =..== OO ..............",
".....................    ====.... O  .............",
".................... = @@@@===... @OO ............",
"....................       @@@... @OO ............",
"..............................@@ @@OOO ...........",
"................................   OOO ...........",
"..............................   @@ OO ...........",
"............................. @ @@OO  ............",
".............................        .............",
"..................................................",
"..................................................",
".................................................."
};
