/* XPM */
static char *result[] = {
/* columns rows colors chars-per-pixel */
"50 50 15 1 ",
"  c black",
". c #161b26",
"X c #502000",
"o c #A00000",
"O c #A05000",
"+ c #F04030",
"@ c #E07020",
"# c #A09000",
"$ c #F0F040",
"% c #406080",
"& c #508FC0",
"* c gray62",
"= c #F0C090",
"- c white",
"; c None",
/* pixels */
"..................................................",
"..................................................",
"..................    ............................",
"..............    @=== ...........................",
"............  ###   == ...........................",
"........... $$$$$$ ==== ..........................",
".......... $$$$$## ====@ .........................",
".......... +$$$#### ===@ .........................",
".......   o++++o### @@= ..........................",
".....  #$$$$$$+ooooo == ..........................",
"......     #$$$$$$#o == ..........................",
"........  O     #$$$ ==@ .........................",
"....... . X@ O *    # @@ .........................",
".......... O@ ; ;O =  @@ .........................",
".......... ====;*@O=  @@@ ........................",
".......... =======@    @@ ........................",
"........... @==O==   o @@@ .......................",
"............ ====  @ oooooo ......................",
".........   .      oo$++++oo .....................",
"........ ==@ .... @   o$+++oo ....................",
"....... === X ... @O . oo+++o ....................",
"....... =O@X@@    OO .. $++++o ...................",
"...... ===XX@  @@@O ... o+++++ ...................",
"...... =O@@X OOOOOO ...    +++o ..................",
"....... @XXO       .   %&&&     ..................",
"........    .....   %%&&&&&&%%% ..................",
"................  --&&&&&&&&%%% ..................",
"............... ==O--&&&&&%%%  % .................",
"............... ==@O-&&&%%   %%%* ................",
"............... ==@O*%%     %%%** ................",
"................ @@    ..... ***    ..............",
"................ =@ .........   OOOO ...  ........",
"................ =@ ...........  OOOO   @@ .......",
"................ =@ .............  OOOO @@@ ......",
"............   . == ...............  OOOOO@ ......",
"........... ==   == .................  OOOO  .....",
"........... @@ == =@ .................. OOO  .....",
"...........      @=@ ................... OO O ....",
"............ ####  @ ...................    O ....",
".............    ##  .................... O O ....",
".............. ##    ..................... O  ....",
"...............  ##  ......................  .....",
"................    ..............................",
"..................................................",
"..................................................",
"..................................................",
"..................................................",
"..................................................",
"..................................................",
".................................................."
};
