/* XPM */
static char *result[] = {
/* columns rows colors chars-per-pixel */
"50 50 15 1 ",
"  c black",
". c #0D1017",
"X c #502000",
"o c #A00000",
"O c #A05000",
"+ c #F04030",
"@ c #E07020",
"# c #A09000",
"$ c #F0F040",
"% c #406080",
"& c #508FC0",
"* c gray69",
"= c #F0C090",
"- c white",
"; c None",
/* pixels */
"..................................................",
"..................................................",
"..................................................",
"....................    ..........................",
".................   @=== .........................",
"...............  ###  == .........................",
".............. $$$$$ ==== ........................",
"............. $$$$$# ====@ .......................",
"............. +$$$### ==@@ .......................",
"..........   o++++o##  @@ ........................",
"........  #$$$$$$+ooo == .........................",
".........     #$$$$$ === .........................",
"...........  O     # ==@   .......................",
".......... . O@ O *  @@@ ## ......................",
"............. O@ ; ;O @@@     ....................",
"............. ====;*@O @@@ OOO ...................",
"............. O======@  @@@  O ...................",
".............. @--O==  o O@ o  ...................",
"............... ==== @ oooooooo ..................",
"................      $o++++++oo .................",
".....................  o$+++++++o ................",
"......................   o+++++++o ...............",
"........................ $+++      ...............",
"........................  +  %%%% ................",
"........................ % %%%%%% ................",
"....................... %%%%&&&%% ................",
".....................  %%%% %&&%% ................",
"...................  %%%%%%% %&&%% ..   ..........",
".................. *%%%%%%%% %&&%% . === .........",
".................. X***%%%    &&&% . === .........",
"................... XX**  ... &&&%  ==== .........",
"................... @@X ..... &&&&  =@@= .........",
"................... @@@ ..... %&&- @@ @@  ........",
".................... @@O .... *-- =@  @ = ........",
"..................... @@O ....   =@ .  @= ........",
"...................... @@ .... === ..  @ .........",
"....................... @O ....   ....  ..........",
"...................... @@O .......................",
"....................  @@@OO ......................",
"..................   @ @@OO ......................",
"................. @ @@O OOO ......................",
".................          .......................",
"..................................................",
"..................................................",
"..................................................",
"..................................................",
"..................................................",
"..................................................",
"..................................................",
".................................................."
};
