/* XPM */
static char *result[] = {
/* columns rows colors chars-per-pixel */
"50 50 14 1 ",
"  c black",
". c #0D1017",
"X c #502000",
"o c #A00000",
"O c #A05000",
"+ c #F04030",
"@ c #E07020",
"# c #A09000",
"$ c #F0F040",
"% c #406080",
"& c #508FC0",
"* c gray69",
"= c #F0C090",
"- c white",
/* pixels */
"..................................................",
".................    .............................",
"..............   ==== ............................",
"............  ###  == ............................",
"........... $$$$$ ==== ...........................",
".......... $$$$$# ====@ ..........................",
".......... +$$$### ==@@ ..........................",
".......   o++++o## @=@ ...........................",
".....  #$$$$$$$ooo == ............................",
"......     #$$$$$ === ............................",
"........  O     # ==@   .      ...................",
"....... . X@ O *  @@@ ## @@@@@@  .................",
".......... O@ - -O @@@  OOOOOOO@@  ...............",
".......... ====-*@O @@@ OO    @@@ O ..............",
".......... O======@  @@@  .. @ @@@@ ..............",
"........... @--O==  o @@  .. @@ @@O ..............",
"............ ==== @ oooooo .   OO@ ...............",
".............      $o+++ooo @@@O  ................",
"...................  $++++o OO....................",
"....................  oo+++o .....................",
"..................... +$++++ .....................",
"....................  o ++++o ....................",
"...............     %  % ++++o ...................",
".............. X*%%%%%%%%      ...................",
"............. @@X*%%%% %%%%%%%% ..................",
"............. @@OX*%%%%  %&&&%% ..................",
"............. @@OX*%%     %&&&%% .................",
".............. OOO   ..... %&&&%% ................",
"...............  OOO ...... &&&&% ................",
"................. OOO ..... %&&&&% ...............",
".................. @OO ..... %&&&- ...............",
"................... @@OO..... &&-- ...............",
"................... @@@OO.... *--  ...............",
"................... @@@@OO...    @@ ..............",
"................... @@@@..OO... === ..............",
"................... @  OO....... ==@ .............",
".................. O @@OOO....... ==@ ............",
"................. O @@@@@OO....... ==  ...........",
".................     ..OOOOO...... ==@ ..........",
"................................... ===@ .........",
"................................... ===@ .........",
".................................. ====@ .........",
".................................. =   @ .........",
".................................    ==  .........",
"................................ == ===  .........",
".................................       ..........",
"..................................................",
"..................................................",
"..................................................",
".................................................."
};
