/* XPM */
static char *result[] = {
/* columns rows colors chars-per-pixel */
"70 70 103 2 ",
"   c #00060A",
".  c #00060B",
"X  c #00070B",
"o  c #00070C",
"O  c #00080D",
"+  c #00080E",
"@  c #00090E",
"#  c #00090F",
"$  c #000A10",
"%  c #000A11",
"&  c #000B11",
"*  c #000B12",
"=  c #000D14",
"-  c #000D15",
";  c #020D14",
":  c #000E16",
">  c #000F17",
",  c #010F17",
"<  c #001019",
"1  c #051018",
"2  c #051219",
"3  c #00131C",
"4  c #00131D",
"5  c #00141D",
"6  c #00141E",
"7  c #00151E",
"8  c #00151F",
"9  c #001620",
"0  c #001721",
"q  c #021720",
"w  c #021923",
"e  c #041B25",
"r  c #051B25",
"t  c #071D27",
"y  c #0C1F28",
"u  c #0C222C",
"i  c #0F232C",
"p  c #132028",
"a  c #132129",
"s  c #13222A",
"d  c #13222B",
"f  c #11242D",
"g  c #13252E",
"h  c #112731",
"j  c #122731",
"k  c #152831",
"l  c #142933",
"z  c #162933",
"x  c #152A34",
"c  c #1F2B33",
"v  c #192B35",
"b  c #1B2C35",
"n  c #1C2D36",
"m  c #1F2F38",
"M  c #23282F",
"N  c #202D36",
"B  c #203039",
"V  c #21323B",
"C  c #263139",
"Z  c #26313A",
"A  c #21343E",
"S  c #23343E",
"D  c #27343D",
"F  c #2B343C",
"G  c #30333A",
"H  c #233640",
"J  c #233741",
"K  c #253842",
"L  c #263842",
"P  c #263943",
"I  c #273A44",
"U  c #283A44",
"Y  c #2A3B45",
"T  c #2B3B45",
"R  c #2C3C45",
"E  c #313840",
"W  c #343F49",
"Q  c #364048",
"!  c #37414A",
"~  c #3A424A",
"^  c #3B434B",
"/  c #3F4249",
"(  c #3F434B",
")  c #3C444C",
"_  c #3D444C",
"`  c #3E444D",
"'  c #40424A",
"]  c #4A474E",
"[  c #484951",
"{  c #494A51",
"}  c #4D4C53",
"|  c #4E4C53",
" . c #4F4D53",
".. c #504D54",
"X. c #514E54",
"o. c #524E55",
"O. c #575057",
"+. c #595158",
"@. c #5E545A",
"#. c #6C5B60",
"$. c #6D5B60",
"%. c #6F5C61",
"&. c None",
/* pixels */
"                                                                                                                                            ",
"                                                                                                                                            ",
"                                                                                                                                            ",
"                                                                                                                                            ",
"                                                                                                                                            ",
"                                                                                                                                            ",
"                                                                                                                                            ",
"                                                                                                                                            ",
"                                                                                                                                            ",
"                                                                                                                                            ",
"                                                                                                                                            ",
"                                                                                                                                            ",
"                                                                                                                                            ",
"                                                                                                                                            ",
"                                                                                                                                            ",
"                                                                                                                                            ",
"                                                                                                                                            ",
"                                                                                                                                            ",
"                                                                                                                                            ",
"                                                                                                                                            ",
"                                                                                                                                            ",
"                                                                                                                                            ",
"                                                                                                                                            ",
"                                                                                                                                            ",
"                                o o o o                                                                                                     ",
"< < < # # #                     o o o o                                                                                                     ",
"< < < # # #                     o o o o                                                                                                     ",
"                                                                                                                                            ",
"* : : : 6 6 6 * * * < < < # # # # o o o                     % %                                                                             ",
"* : : : 6 6 6 * * * < < < # # # # o o o # # # # # # * * * % % %                       o o O O O + + + + *                                   ",
"* : : : 6 6 6 * * * < < < # # # # o o o # # # # # # * * * % % % % # # # + + +       o o o O O O + + + + *                                   ",
"7 r r r r r r 8 8 8 4 4 4 % % % % . . . * * * 1 1 1 * * * * * * * * * * @ @ @ X X X X X X                                                   ",
"7 r r r r r r 8 8 8 4 4 4 % % % % . . . * * * 1 1 1 * * * * * * * * * * @ @ @ X X X X X X                                                   ",
"7 r r r r r r 8 8 8 4 4 4 % % % % . . . * * * 1 1 1 * * * * * * * * * * @ @ @ X X X X X X                                                   ",
"g m m m m m m i i i 0 0 0 a a a a p p p s s s k k k 3 3 3 > > > > * * * # # # & & & % % % X X X                                             ",
"g m m m m m m i i i 0 0 0 a a a a p p p s s s k k k 3 3 3 > > > > * * * # # # & & & % % % X X X                                             ",
"g m m m m m m i i i 0 0 0 a a a a p p p s s s k k k 3 3 3 > > > > * * * # # # & & & % % % X X X                                             ",
"W R R R U U U P P P P P P B B B B B B B B B B f f f w w w 0 0 0 0 0 0 0 3 3 3 * * * o o o * * *                                             ",
"W R R R U U U P P P P P P B B B B B B B B B B f f f w w w 0 0 0 0 0 0 0 3 3 3 * * * o o o * * *                                             ",
"W R R R U U U P P P P P P B B B B B B B B B B f f f w w w 0 0 0 0 0 0 0 3 3 3 * * * o o o * * *                                             ",
"W R R R U U U P P P P P P B B B B B B B B B B f f f w w w 0 0 0 0 0 0 0 3 3 3 * * * o o o * * *                                             ",
"@.%.%.%.O.O.O.} } } } } } { { { { P P P P P P S S S S S S l l l l w w w 0 0 0 - - - o o o * * * O O O O # # #                               ",
"@.%.%.%.O.O.O.} } } } } } { { { { P P P P P P S S S S S S l l l l w w w 0 0 0 - - - o o o * * * O O O O # # #                               ",
"@.%.%.%.O.O.O.} } } } } } { { { { P P P P P P S S S S S S l l l l w w w 0 0 0 - - - o o o * * * O O O O # # #                               ",
"' ................................................................T T T P P P P P P o o o * * * $ $ $ $ # # #                               ",
"' ................................................................T T T P P P P P P o o o * * * $ $ $ $ # # #                               ",
"' ................................................................T T T P P P P P P o o o * * * $ $ $ $ # # #                               ",
"m D D D ) ) ) ............! ! ! ! P P P K K K j j j j j j 0 0 0 0 C C C F F F v v v = = = * * * $ $ $ $ # # #                               ",
"m D D D ) ) ) ............! ! ! ! P P P K K K j j j j j j 0 0 0 0 C C C F F F v v v = = = * * * $ $ $ $ # # #                               ",
"m D D D ) ) ) ............! ! ! ! P P P K K K j j j j j j 0 0 0 0 C C C F F F v v v = = = * * * $ $ $ $ # # #                               ",
"m L L L P P P $.$.$.$.$.$.#.#.#.#.+.+.+.} } } } } } U U U J J J J e e e u u u J J J 5 5 5 * * * * * * * O O O                               ",
"m L L L P P P $.$.$.$.$.$.#.#.#.#.+.+.+.} } } } } } U U U J J J J e e e u u u J J J 5 5 5 * * * * * * * O O O                               ",
"m L L L P P P $.$.$.$.$.$.#.#.#.#.+.+.+.} } } } } } U U U J J J J e e e u u u J J J 5 5 5 * * * * * * * O O O                               ",
"Q _ _ _ ......[ [ [ P P P o.o.o.o.] ] ] E E E ' ' ' ......` ` ` ` h h h : : : s s s b b b x x x O O O O X X X                               ",
"Q _ _ _ ......[ [ [ P P P o.o.o.o.] ] ] E E E ' ' ' ......` ` ` ` h h h : : : s s s b b b x x x O O O O X X X                               ",
"Q _ _ _ ......[ [ [ P P P o.o.o.o.] ] ] E E E ' ' ' ......` ` ` ` h h h : : : s s s b b b x x x O O O O X X X                               ",
"..............&.&.&.&.&.&.&.&.&.&.H H H A A A z z z y y y Z Z Z Z Y Y Y 3 3 3 * * * ; ; ; 2 2 2 * * * * & & &                               ",
"..............&.&.&.&.&.&.&.&.&.&.H H H A A A z z z y y y Z Z Z Z Y Y Y 3 3 3 * * * ; ; ; 2 2 2 * * * * & & &                               ",
"..............&.&.&.&.&.&.&.&.&.&.H H H A A A z z z y y y Z Z Z Z Y Y Y 3 3 3 * * * ; ; ; 2 2 2 * * * * & & &                               ",
"X. . . .&.&.&.&.&.&.&.&.&.&.&.&.&.&.&.&.( ( ( c c c , , , - - - - G G G M M M * * * * * * * * * o o o o                                     ",
"X. . . .&.&.&.&.&.&.&.&.&.&.&.&.&.&.&.&.( ( ( c c c , , , - - - - G G G M M M * * * * * * * * * o o o o                                     ",
"X. . . .&.&.&.&.&.&.&.&.&.&.&.&.&.&.&.&.( ( ( c c c , , , - - - - G G G M M M * * * * * * * * * o o o o                                     ",
"&.&.&.&.&.&.&.&.&.&.&.&.&.&.&.&.&.&.&.&.m m m ~ ~ ~ / / / 9 9 9 9 6 6 6 d d d * * * * * * * * * X X X X @ @ @                               ",
"&.&.&.&.&.&.&.&.&.&.&.&.&.&.&.&.&.&.&.&.m m m ~ ~ ~ / / / 9 9 9 9 6 6 6 d d d * * * * * * * * * X X X X @ @ @                               ",
"&.&.&.&.&.&.&.&.&.&.&.&.&.&.&.&.&.&.&.&.m m m ~ ~ ~ / / / 9 9 9 9 6 6 6 d d d * * * * * * * * * X X X X @ @ @                               ",
"&.&.&.&.&.&.&.&.&.&.&.&.&.&.&.&.&.&.&.&.m m m ~ ~ ~ / / / 9 9 9 9 6 6 6 d d d * * * * * * * * * X X X X @ @ @                               ",
"&.&.&.&.&.&.&.&.&.&.&.&.&.&.&.&.&.&.&.&.V V V T T T | | | 0 0 0 0 0 0 0 n n n q q q 5 5 5 * * * O O O O * * * *                             ",
"&.&.&.&.&.&.&.&.&.&.&.&.&.&.&.&.&.&.&.&.V V V T T T | | | 0 0 0 0 0 0 0 n n n q q q 5 5 5 * * * O O O O * * * *                             ",
"&.&.&.&.&.&.&.&.&.&.&.&.&.&.&.&.&.&.&.&.V V V T T T | | | 0 0 0 0 0 0 0 n n n q q q 5 5 5 * * * O O O O * * * *                             ",
"&.&.&.&.&.&.&.&.&.&.&.&.&.P P P P P P P I I I ^ ^ ^ | | | N N N N 0 0 0 P P P t t t 5 5 5 * * * * * * * * * * *                             "
};
