/* XPM */
static char *result[] = {
/* columns rows colors chars-per-pixel */
"70 70 108 2 ",
"   c #00060A",
".  c #00060B",
"X  c #00070B",
"o  c #00070C",
"O  c #00080D",
"+  c #00080E",
"@  c #00090E",
"#  c #00090F",
"$  c #000A10",
"%  c #000A11",
"&  c #000B11",
"*  c #000B12",
"=  c #000D14",
"-  c #000D15",
";  c #020D14",
":  c #000E16",
">  c #000F17",
",  c #010F17",
"<  c #001019",
"1  c #051018",
"2  c #051219",
"3  c #00131C",
"4  c #00131D",
"5  c #00141D",
"6  c #00141E",
"7  c #00151E",
"8  c #00151F",
"9  c #001620",
"0  c #001721",
"q  c #021720",
"w  c #021923",
"e  c #041B25",
"r  c #051B25",
"t  c #071D27",
"y  c #0C1F28",
"u  c #0C222C",
"i  c #0F232C",
"p  c #132028",
"a  c #132129",
"s  c #13222A",
"d  c #13222B",
"f  c #11242D",
"g  c #13252E",
"h  c #112731",
"j  c #122731",
"k  c #152831",
"l  c #142933",
"z  c #162933",
"x  c #152A34",
"c  c #1F2B33",
"v  c #192B35",
"b  c #1B2C35",
"n  c #1C2D36",
"m  c #1F2F38",
"M  c #23282F",
"N  c #202D36",
"B  c #203039",
"V  c #21323B",
"C  c #263139",
"Z  c #26313A",
"A  c #21343E",
"S  c #23343E",
"D  c #27343D",
"F  c #2B343C",
"G  c #30333A",
"H  c #233640",
"J  c #233741",
"K  c #223745",
"L  c #253842",
"P  c #263842",
"I  c #263943",
"U  c #243A42",
"Y  c #253A42",
"T  c #273A44",
"R  c #283A44",
"E  c #2A3B45",
"W  c #2B3B45",
"Q  c #2C3C45",
"!  c #313840",
"~  c #343F49",
"^  c #364048",
"/  c #37414A",
"(  c #3A424A",
")  c #3B434B",
"_  c #3F4249",
"`  c #3F434B",
"'  c #3C444C",
"]  c #3D444C",
"[  c #3E444D",
"{  c #40424A",
"}  c #4A474E",
"|  c #454C53",
" . c #484951",
".. c #494A51",
"X. c #4D4C53",
"o. c #4E4C53",
"O. c #4F4D53",
"+. c #4F4C54",
"@. c #504D54",
"#. c #514E54",
"$. c #524E55",
"%. c #575057",
"&. c #595158",
"*. c #5E545A",
"=. c #6C5B60",
"-. c #6D5B60",
";. c #6F5C61",
":. c None",
/* pixels */
"o o o o o o o o o o o o o * * * * * * * * * * * * 5 5 5 t t t I I I 0 0 0 N N N N o.o.o.) ) ) T T T I I I I I I I :.:.:.:.:.:.:.:.:.:.:.:.:.",
"o o o o o o o o o o o o o * * * * * O O O O * * * 5 5 5 q q q n n n 0 0 0 0 0 0 0 o.o.o.W W W V V V U U U :.:.:.:.:.:.:.:.:.:.:.:.:.:.:.:.:.",
"o o o o o o o o o o o o o * * * * * O O O O * * * 5 5 5 q q q n n n 0 0 0 0 0 0 0 o.o.o.W W W V V V U U U :.:.:.:.:.:.:.:.:.:.:.:.:.:.:.:.:.",
"o o o o o o o o o o o o o * * * * * O O O O * * * 5 5 5 q q q n n n 0 0 0 0 0 0 0 o.o.o.W W W V V V U U U :.:.:.:.:.:.:.:.:.:.:.:.:.:.:.:.:.",
"o o o o o o o o o o o o o * * @ @ @ X X X X * * * * * * * * * d d d 6 6 6 9 9 9 9 _ _ _ ( ( ( m m m :.:.:.:.:.:.:.:.:.:.:.:.:.:.:.:.:.:.:.:.",
"o o o o o o o o o o o o o * * @ @ @ X X X X * * * * * * * * * d d d 6 6 6 9 9 9 9 _ _ _ ( ( ( m m m :.:.:.:.:.:.:.:.:.:.:.:.:.:.:.:.:.:.:.:.",
"o o o o o o o o o o o o o * * @ @ @ X X X X * * * * * * * * * d d d 6 6 6 9 9 9 9 _ _ _ ( ( ( m m m :.:.:.:.:.:.:.:.:.:.:.:.:.:.:.:.:.:.:.:.",
"o o o o o o o o o o o o o * * @ @ @ X X X X * * * * * * * * * d d d 6 6 6 9 9 9 9 _ _ _ ( ( ( m m m :.:.:.:.:.:.:.:.:.:.:.:.:.:.:.:.:.:.:.:.",
"o o o o o o o o o o o o o o O       o o o o * * * * * * * * * M M M G G G - - - - , , , c c c ` ` ` +.+.+.:.:.:.:.:.:.:.:.:.:.:.:.:.O.O.O.#.",
"o o o o o o o o o o o o o o O       o o o o * * * * * * * * * M M M G G G - - - - , , , c c c ` ` ` +.+.+.:.:.:.:.:.:.:.:.:.:.:.:.:.O.O.O.#.",
"o o o o o o o o o o o o o o O       o o o o * * * * * * * * * M M M G G G - - - - , , , c c c ` ` ` +.+.+.:.:.:.:.:.:.:.:.:.:.:.:.:.O.O.O.#.",
"o o o o o o o o o o o o o o   & & & * * * * 2 2 2 ; ; ; * * * 3 3 3 E E E Z Z Z Z y y y z z z A A A H H H Y Y Y Y K K K | | | @.@.@.@.@.@.@.",
"o o o o o o o o o o o o o o   & & & * * * * 2 2 2 ; ; ; * * * 3 3 3 E E E Z Z Z Z y y y z z z A A A H H H Y Y Y Y K K K | | | @.@.@.@.@.@.@.",
"o o o o o o o o o o o o o o   & & & * * * * 2 2 2 ; ; ; * * * 3 3 3 E E E Z Z Z Z y y y z z z A A A H H H Y Y Y Y K K K | | | @.@.@.@.@.@.@.",
"o o o o o o o o o o o o o o   X X X O O O O x x x b b b s s s : : : h h h [ [ [ [ @.@.@.{ { { ! ! ! } } } $.$.$.$.I I I  . . .@.@.@.] ] ] ^ ",
"o o o o o o o o o o o o o o o X X X O O O O x x x b b b s s s : : : h h h [ [ [ [ @.@.@.{ { { ! ! ! } } } $.$.$.$.I I I  . . .@.@.@.] ] ] ^ ",
"o o o o o o o o o o o o o o o X X X O O O O x x x b b b s s s : : : h h h [ [ [ [ @.@.@.{ { { ! ! ! } } } $.$.$.$.I I I  . . .@.@.@.] ] ] ^ ",
"o o o o o o o o o o o o o o o O O O * * * * * * * 5 5 5 J J J u u u e e e J J J J R R R X.X.X.X.X.X.&.&.&.=.=.=.=.-.-.-.-.-.-.I I I P P P m ",
"o o o o o o o o o o o o o o o O O O * * * * * * * 5 5 5 J J J u u u e e e J J J J R R R X.X.X.X.X.X.&.&.&.=.=.=.=.-.-.-.-.-.-.I I I P P P m ",
"o o o o o o o o o o o o o o o O O O * * * * * * * 5 5 5 J J J u u u e e e J J J J R R R X.X.X.X.X.X.&.&.&.=.=.=.=.-.-.-.-.-.-.I I I P P P m ",
"o o o o o o o o o o o o o o o # # # $ $ $ $ * * * = = = v v v F F F C C C 0 0 0 0 j j j j j j L L L I I I / / / / @.@.@.@.@.@.' ' ' D D D m ",
"o o o o o o o o o o o o o o o # # # $ $ $ $ * * * = = = v v v F F F C C C 0 0 0 0 j j j j j j L L L I I I / / / / @.@.@.@.@.@.' ' ' D D D m ",
"o o o o o o o o o o o o o o o # # # $ $ $ $ * * * = = = v v v F F F C C C 0 0 0 0 j j j j j j L L L I I I / / / / @.@.@.@.@.@.' ' ' D D D m ",
"o o o o o o o o o o o o o o o # # # $ $ $ $ * * * o o o I I I I I I W W W @.@.@.@.@.@.@.@.@.@.@.@.@.@.@.@.@.@.@.@.@.@.@.@.@.@.@.@.@.@.@.@.{ ",
"o o o o o o o o o o o o o o o # # # $ $ $ $ * * * o o o I I I I I I W W W @.@.@.@.@.@.@.@.@.@.@.@.@.@.@.@.@.@.@.@.@.@.@.@.@.@.@.@.@.@.@.@.{ ",
"o o o o o o o o o o o o o o o # # # $ $ $ $ * * * o o o I I I I I I W W W @.@.@.@.@.@.@.@.@.@.@.@.@.@.@.@.@.@.@.@.@.@.@.@.@.@.@.@.@.@.@.@.{ ",
"o o o o o o o o o o o o o o o # # # O O O O * * * o o o - - - 0 0 0 w w w l l l l S S S S S S I I I I I I ........X.X.X.X.X.X.%.%.%.;.;.;.*.",
"o o o o o o o o o o o o o o o # # # O O O O * * * o o o - - - 0 0 0 w w w l l l l S S S S S S I I I I I I ........X.X.X.X.X.X.%.%.%.;.;.;.*.",
"o o o o o o o o o o o o o o o # # # O O O O * * * o o o - - - 0 0 0 w w w l l l l S S S S S S I I I I I I ........X.X.X.X.X.X.%.%.%.;.;.;.*.",
"o o o o o o o o o o o o o o o               * * * o o o * * * 3 3 3 0 0 0 0 0 0 0 w w w f f f B B B B B B B B B B I I I I I I R R R Q Q Q ~ ",
"o o o o o o o o o o o o o o o               * * * o o o * * * 3 3 3 0 0 0 0 0 0 0 w w w f f f B B B B B B B B B B I I I I I I R R R Q Q Q ~ ",
"o o o o o o o o o o o o o o o               * * * o o o * * * 3 3 3 0 0 0 0 0 0 0 w w w f f f B B B B B B B B B B I I I I I I R R R Q Q Q ~ ",
"o o o o o o o o o o o o o o o               * * * o o o * * * 3 3 3 0 0 0 0 0 0 0 w w w f f f B B B B B B B B B B I I I I I I R R R Q Q Q ~ ",
"o o o o o o o o o o o o o o o               X X X % % % & & & # # # * * * > > > > 3 3 3 k k k s s s p p p a a a a 0 0 0 i i i m m m m m m g ",
"o o o o o o o o o o o o o o o               X X X % % % & & & # # # * * * > > > > 3 3 3 k k k s s s p p p a a a a 0 0 0 i i i m m m m m m g ",
"o o o o o o o o o o o o o o o               X X X % % % & & & # # # * * * > > > > 3 3 3 k k k s s s p p p a a a a 0 0 0 i i i m m m m m m g ",
"o o o o o o o o o o o o o o o                     X X X X X X @ @ @ * * * * * * * * * * 1 1 1 * * * . . . % % % % 4 4 4 8 8 8 r r r r r r 7 ",
"o o o o o o o o o o o o o o o o                   X X X X X X @ @ @ * * * * * * * * * * 1 1 1 * * * . . . % % % % 4 4 4 8 8 8 r r r r r r 7 ",
"o o o o o o o o o o o o o o o o                   X X X X X X @ @ @ * * * * * * * * * * 1 1 1 * * * . . . % % % % 4 4 4 8 8 8 r r r r r r 7 ",
"o o o o o o o o o o o o o o o o * * + + + + O O O o o o       + + + # # # % % % % * * * # # # # # # o o o # # # # < < < * * * 6 6 6 : : : * ",
"o o o o o o o o o o o o o o o o * * + + + + O O O o o o       + + + # # # % % % % * * * # # # # # # o o o # # # # < < < * * * 6 6 6 : : : * ",
"o o o o o o o o o o o o o o o o o * + + + + O O O o o o       + + + # # # % % % % * * * # # # # # # o o o # # # # < < < * * * 6 6 6 : : : * ",
"o o o o o o o o o o o o o o o o o                                           o o o o o o o o o o o o o o                                     ",
"o o o o o o o o o o o o o o o o o o o o o o o o o o o o o o o o o o o o o o o o o o o o o o o o o o o o o o o o o o o o o : : : # # # < < < ",
"o o o o o o o o o o o o o o o o o o o o o o o o o o o o o o o o o o o o o o o o o o o o o o o o o o o o o o o o o o o o o o : : # # # < < < ",
"o o o o o o o o o o o o o o o o o o o o o o o o o o o o o o o o o o o o o o o o o o o o o o o o o o o o o o o o o o o o o o o o o o o o o o ",
"o o o o o o o o o o o o o o o o o o o o o o o o o o o o o o o o o o o o o o o o o o o o o o o o o o o o o o o o o o o o o o o o o o o o o o ",
"o o o o o o o o o o o o o o o o o o o o o o o o o o o o o o o o o o o o o o o o o o o o o o o o o o o o o o o o o o o o o o o o o o o o o o ",
"o o o o o o o o o o o o o o o o o o o o o o o o o o o o o o o o o o o o o o o o o o o o o o o o o o o o o o o o o o o o o o o o o o o o o o ",
"o o o o o o o o o o o o o o o o o o o o o o o o o o o o o o o o o o o o o o o o o o o o o o o o o o o o o o o o o o o o o o o o o o o o o o ",
"o o o o o o o o o o o o o o o o o o o o o o o o o o o o o o o o o o o o o o o o o o o o o o o o o o o o o o o o o o o o o o o o o o o o o o ",
"o o o o o o o o o o o o o o o o o o o o o o o o o o o o o o o o o o o o o o o o o o o o o o o o o o o o o o o o o o o o o o o o o o o o o o ",
"o o o o o o o o o o o o o o o o o o o o o o o o o o o o o o o o o o o o o o o o o o o o o o o o o o o o o o o o o o o o o o o o o o o o o o ",
"o o o o o o o o o o o o o o o o o o o o o o o o o o o o o o o o o o o o o o o o o o o o o o o o o o o o o o o o o o o o o o o o o o o o o o ",
"o o o o o o o o o o o o o o o o o o o o o o o o o o o o o o o o o o o o o o o o o o o o o o o o o o o o o o o o o o o o o o o o o o o o o o ",
"o o o o o o o o o o o o o o o o o o o o o o o o o o o o o o o o o o o o o o o o o o o o o o o o o o o o o o o o o o o o o o o o o o o o o o ",
"o o o o o o o o o o o o o o o o o o o o o o o o o o o o o o o o o o o o o o o o o o o o o o o o o o o o o o o o o o o o o o o o o o o o o o ",
"o o o o o o o o o o o o o o o o o o o o o o o o o o o o o o o o o o o o o o o o o o o o o o o o o o o o o o o o o o o o o o o o o o o o o o ",
"o o o o o o o o o o o o o o o o o o o o o o o o o o o o o o o o o o o o o o o o o o o o o o o o o o o o o o o o o o o o o o o o o o o o o o ",
"o o o o o o o o o o o o o o o o o o o o o o o o o o o o o o o o o o o o o o o o o o o o o o o o o o o o o o o o o o o o o o o o o o o o o o ",
"o o o o o o o o o o o o o o o o o o o o o o o o o o o o o o o o o o o o o o o o o o o o o o o o o o o o o o o o o o o o o o o o o o o o o o ",
"o o o o o o o o o o o o o o o o o o o o o o o o o o o o o o o o o o o o o o o o o o o o o o o o o o o o o o o o o o o o o o o o o o o o o o ",
"o o o o o o o o o o o o o o o o o o o o o o o o o o o o o o o o o o o o o o o o o o o o o o o o o o o o o o o o o o o o o o o o o o o o o o ",
"o o o o o o o o o o o o o o o o o o o o o o o o o o o o o o o o o o o o o o o o o o o o o o o o o o o o o o o o o o o o o o o o o o o o o o ",
"o o o o o o o o o o o o o o o o o o o o o o o o o o o o o o o o o o o o o o o o o o o o o o o o o o o o o o o o o o o o o o o o o o o o o o ",
"o o o o o o o o o o o o o o o o o o o o o o o o o o o o o o o o o o o o o o o o o o o o o o o o o o o o o o o o o o o o o o o o o o o o o o ",
"o o o o o o o o o o o o o o o o o o o o o o o o o o o o o o o o o o o o o o o o o o o o o o o o o o o o o o o o o o o o o o o o o o o o o o ",
"o o o o o o o o o o o o o o o o o o o o o o o o o o o o o o o o o o o o o o o o o o o o o o o o o o o o o o o o o o o o o o o o o o o o o o ",
"o o o o o o o o o o o o o o o o o o o o o o o o o o o o o o o o o o o o o o o o o o o o o o o o o o o o o o o o o o o o o o o o o o o o o o ",
"o o o o o o o o o o o o o o o o o o o o o o o o o o o o o o o o o o o o o o o o o o o o o o o o o o o o o o o o o o o o o o o o o o o o o o "
};
