/* XPM */
static char *result[] = {
/* columns rows colors chars-per-pixel */
"70 70 19 1 ",
"  c black",
". c #230000",
"X c #161B26",
"o c #401E1C",
"O c #673B3C",
"+ c #7A4B2F",
"@ c #293855",
"# c #2E475A",
"$ c #42505D",
"% c #755351",
"& c #435C78",
"* c #9F6F4B",
"= c #788861",
"- c #879BA2",
"; c #A2AEA0",
": c #A3ADA2",
"> c #87A9C2",
", c white",
"< c None",
/* pixels */
"XXXXXXXXXXXXXXXXXXXXXXXXXXXXXXXXXXXXXXXXXXXXXXXXXXXXXXXXXXXXXXXXXXXXXX",
"XXXXXXXXXXXXXXXXXXXXXXXXXXXXXXXXXXXXXXXXXXXXXXXXXXXXXXXXXXXXXXXXXXXXXX",
"XXXXXXXXXXXXXXXXXXXXXXXXXXXXXXXXXXXXXXXXXXXXXXXXXXXXXXXXXXXXXXXXXXXXXX",
"XXXXXXXXXXXXXXXXXXXXXXXXXXXXXXXXXXXXXXXXXXXXXXXXXXXXXXXXXXXXXXXXXXXXXX",
"XXXXXXXXXXXXXXXXXXXXXXXXXXXXXXXXXXXXXXXXXXXXXXXXXXXXXXXXXXXXXXXXXXXXXX",
"XXXXXXXXXXXXXXXXXXXXXXXXXXXXXXXXXXXXXXXXXXXXXXXXXXXXXXXXX:::XXXXXXXXXX",
"XXXXXXXXXXXXXXXXXXXXXXXXXXXXXXXXXXXXXXXXXXXXXXXXXXXXXXXX====:XXXXXXXXX",
"XXXXXXXXXXXXXXXXXXXXXXXXXXXXXXXXXXXXXXXXXXXXXXXXXXX&&&&X=====:XXXXXXXX",
"XXXXXXXXXXXXXXXXXXXXXXXXXXXXXXXXXXXXXXXXXXXXXXXXXXX&&&&X=====:XXXXXXXX",
"XXXXXXXXXXXXXXXXXXXXXXXXXXXXXXXXXXXXXXXXXXXXXXXXXX&&>>>&%%..==:XXXXXXX",
"XXXXXXXXXXXXXXXXXXXXXXXXXXXXXXXXXXXXXXXXXXXXXXXXX&>>>>>>&...==:XXXXXXX",
"XXXXXXXXXXXXXXXXXXXXXXXXXXXXXXXXXXXXXXXXXXXXXXX&&>>>&>>>>&..==XXXXXXXX",
"XXXXXXXXXXXXXXXXXXXXXXXXXXXXXXXXXXXXXXXXXXXXXX&>>>>>>&&>>>&&XXXXXXXXXX",
"XXXXXXXXXXXXXXXXXXXXXXXXXXXXXXXXXXXXXXXXXXXXXX&>>>>>>&&>>>&&XXXXXXXXXX",
"XXXXXXXXXXXXXXXXXXXXXXXXXXXXXXXXXXXXXXXXXXXXX&>>>>&>>>>&>>&&&XXXXXXXXX",
"XXXXXXXXXXXXXXXXXXXXXXXXXXXXXXXXXXX XXXXXXXX&>>>>>>&>>>>&&>>&XXXXXXXXX",
"XXXXXXXXXXXXXXXXXXXXXXXXXXXXXX XXX  XXX XXXX&>>&&>>>&>>>&>>>>&XXXXXXXX",
"XXXXXXXXXXXXXXXXXXXXXXXXXXXXXX   X   XX XXXXX>>>>&>>>&&&>>&&>&XXXXXXXX",
"XXXXXXXXXXXXXXXXXXXXXXXXXXXXXX   X   XX XXXXX>>>>&>>>&&&>>&&>&XXXXXXXX",
"XXXXXXXXXXXXXXXXXXXXXXXXXXXXXX          X XXX&>>>>&>>&&>>>>>&&XXXXXXXX",
"XXXXXXXXXXXXXXXXXXXXXXXXXXXX X          : ::%%&>>>>&&>>>>&&&>&&XXXXXXX",
"XXXXXXXXXXXXXXXXXXXXXXXXXXXX   >> > >     :::..&&&&>>&&>>>>>>&&XXXXXXX",
"XXXXXXXXXXXXXXXXXXXXXXXXXXXX  &>>>>>>>>&  ==::.&&>>>&&&>>&&&>>&XXXXXXX",
"XXXXXXXXXXXXXXXXXXXXXXXXXXXXX &>>>>>>>>& ====::##&&&>>>>>>>>&&&XXXXXXX",
"XXXXXXXXXXXXXXXXXXXXXXXXXXXXX &   >>   & ====::##&&&>>>>>>>>&&&XXXXXXX",
"XXXXXXXXXXXXXXXXXXXXXXXXXXXX  &,, >> ,,&  ===&&&&&&&&&&>>>>>>&XXXXXXXX",
"XXXXXXXXXXXXXXXXXXXXXXXXXXXX  &,,<  <,,&  **&>>>>>&&>>>>>&>>&XXXXXXXXX",
"XXXXXXXXXXXXXXXXXXXXXXXXXX**> &>>>>>>>>& -**>>>>>>>>>>>&>>>>&XXXXXXXXX",
"XXXXXXXXXXXXXXXXXXXXXXXXX***> &>>>>>>>>& -**>>>>>>>>>&&>>&&&XXXXXXXXXX",
"XXXXXXXXXXXXXXXXXXXXXXXXX***> &>>    >>& -**>>>>>>>>>&&>>&&&XXXXXXXXXX",
"XXXXXXXXXXXXXXXXXXXXXXXX&***&>>> >>>> >>>-**>>>>>>>>>&&>&XXXXXXXXXXXXX",
"XXXXXXXXXXXXXXXXXXXXX&&&&***>>&>>&&&&>>&>-**&&>>>>>&>XXXXXXXXXXXXXXXXX",
"XXXXXXXXXXXXXXXXXXXX&>>>>***>&>>>&>>&>>>->***>&&&&&>XXXXXXXXXXXXXXXXXX",
"XXXXXXXXXXXXXXXXXX&&>>>>>*++&&&&&>>>>&&&-&>>*>>>>>>XXXXXXXXXXXXXXXXXXX",
"XXXXXXXXXXXXXXXXXX&&>>>>>*++&&&&&>>>>&&&-&>>*>>>>>>XXXXXXXXXXXXXXXXXXX",
"XXXXXXXXXXXXXXXXX&>&>>>>>+&&>>>>>&>>&>>>->&&**>>>&>XXXXXXXXXXXXXXXXXXX",
"XXXXXXXXXXXXXXX&&>>&>>>>>+&&>>>>>>&&>>>-->&&&+>>>&XXXXXXXXXXXXXXXXXXXX",
"XXXXXXXXXXXXXX&>>>>>>>>&&+&&>>>>>>&&--->>>&&>++&&XXXXXXXXXXXXXXXXXXXXX",
"XXXXXXXXXXXXX&>>>>>>>&&>++>>&&&&&&--&&&&&&>>&*+&&XXXXXXXXXXXXXXXXXXXXX",
"XXXXXXXXXXXXX&>>>&>>>>>&+>>>&>&--->>>>>&>&>>>**XXXXXXXXXXXXXXXXXXXXXXX",
"XXXXXXXXXXXXX&>>>&>>>>>&+>>>&>&--->>>>>&>&>>>**XXXXXXXXXXXXXXXXXXXXXXX",
"XXXXXXXXXXXXX&>>>>&>&@@++>&&>-->>>&&>>>&>>&&>XXXXXXXXXXXXXXXXXXXXXXXXX",
"XXXXXXXXXXXX&>>>>&>&&$$   ---&&&&&&&&&&&&>>>XXXXXXXXXXXXXXXXXXXXXXXXXX",
"XXXXXXXXXXXX&>>&&&&&&     XX>>&>>>>>>>>&>>XXXXXXXXXXXXXXXXXXXXXXXXXXXX",
"XXXXXXXXXXXX>>>>>>>>&&&  XXXX>&>>>&&>>>&>XXXXXXXXXXXXXXXXXXXXXXXXXXXXX",
"XXXXXXXXXXXX>>>>>>>>&&&  XXXX>&>>>&&>>>&>XXXXXXXXXXXXXXXXXXXXXXXXXXXXX",
"XXXXXXXXXXXX>>&>>&&&&>>&XXXXXXOOOooooOOOXXXXXXXXXXXXXXXXXXXXXXXXXXXXXX",
"XXXXXXXXXXXX>&>>>>>>&>>&XXXXXOOOOOooOOOOOXXXXXXXXXXXXXXXXXXXXXXXXXXXXX",
"XXXXXXXXXXXX>>>&&&&&&>>&XXXXOOOOOooooOOOOOXXXXXXXXXXXXXXXXXXXXXXXXXXXX",
"XXXXXXXXXXXX&>>>>>>>&&&XXXOOOOOoooXXoooOOOOOXXXXXXXXXXXXXXXXXXXXXXXXXX",
"XXXXXXXXXXXX&>>>>>>>&&&XXXOOOOOoooXXoooOOOOOXXXXXXXXXXXXXXXXXXXXXXXXXX",
"XXXXXXXXXXXX>>&&&&&&&XXXX>OOOOoooXXXXXXooOOO>XXXXXXXXXXXXXXXXXXXXXXXXX",
"XXXXXXXXXXXX&>>>>>>>&XXX>&XXXXXXXXXXXXXXXXXX&>XXXXXXXXXXXXXXXXXXXXXXXX",
"XXXXXXXXXXXX;&&&&&&&&XXXX>&&XXXXXXXXXXXXXX&&>XXXXXXXXXXXXXXXXXXXXXXXXX",
"XXXXXXXXXXXXX==XXXXXXXXX>&&&XXXXXXXXXXXXXX&&&>XXXXXXXXXXXXXXXXXXXXXXXX",
"XXXXXXXXXXXXXXXXXXXXXXXXXXXXXXXXXXXXXXXXXXXXXXXXXXXXXXXXXXXXXXXXXXXXXX",
"XXXXXXXXXXXXXXXXXXXXXXXXXXXXXXXXXXXXXXXXXXXXXXXXXXXXXXXXXXXXXXXXXXXXXX",
"XXXXXXXXXXXXXXXXXXXXXXXXXXXXXXXXXXXXXXXXXXXXXXXXXXXXXXXXXXXXXXXXXXXXXX",
"XXXXXXXXXXXXXXXXXXXXXXXXXXXXXXXXXXXXXXXXXXXXXXXXXXXXXXXXXXXXXXXXXXXXXX",
"XXXXXXXXXXXXXXXXXXXXXXXXXXXXXXXXXXXXXXXXXXXXXXXXXXXXXXXXXXXXXXXXXXXXXX",
"XXXXXXXXXXXXXXXXXXXXXXXXXXXXXXXXXXXXXXXXXXXXXXXXXXXXXXXXXXXXXXXXXXXXXX",
"XXXXXXXXXXXXXXXXXXXXXXXXXXXXXXXXXXXXXXXXXXXXXXXXXXXXXXXXXXXXXXXXXXXXXX",
"XXXXXXXXXXXXXXXXXXXXXXXXXXXXXXXXXXXXXXXXXXXXXXXXXXXXXXXXXXXXXXXXXXXXXX",
"XXXXXXXXXXXXXXXXXXXXXXXXXXXXXXXXXXXXXXXXXXXXXXXXXXXXXXXXXXXXXXXXXXXXXX",
"XXXXXXXXXXXXXXXXXXXXXXXXXXXXXXXXXXXXXXXXXXXXXXXXXXXXXXXXXXXXXXXXXXXXXX",
"XXXXXXXXXXXXXXXXXXXXXXXXXXXXXXXXXXXXXXXXXXXXXXXXXXXXXXXXXXXXXXXXXXXXXX",
"XXXXXXXXXXXXXXXXXXXXXXXXXXXXXXXXXXXXXXXXXXXXXXXXXXXXXXXXXXXXXXXXXXXXXX",
"XXXXXXXXXXXXXXXXXXXXXXXXXXXXXXXXXXXXXXXXXXXXXXXXXXXXXXXXXXXXXXXXXXXXXX",
"XXXXXXXXXXXXXXXXXXXXXXXXXXXXXXXXXXXXXXXXXXXXXXXXXXXXXXXXXXXXXXXXXXXXXX",
"XXXXXXXXXXXXXXXXXXXXXXXXXXXXXXXXXXXXXXXXXXXXXXXXXXXXXXXXXXXXXXXXXXXXXX"
};
