/* XPM */
static char *result[] = {
/* columns rows colors chars-per-pixel */
"70 70 19 1 ",
"  c black",
". c #230000",
"X c #161B26",
"o c #401E1C",
"O c #673B3C",
"+ c #7A4B2F",
"@ c #293855",
"# c #2E475A",
"$ c #42505D",
"% c #755351",
"& c #435C78",
"* c #9F6F4B",
"= c #788861",
"- c #879BA2",
"; c #A2AEA0",
": c #A3ADA2",
"> c #87A9C2",
", c white",
"< c None",
/* pixels */
"XXXXXXXXXXXXXXXXXXXXXXXXXXXXXXXXXXXXXXXXXXXXXXXXXXXXXXXXXXXXXXXXXXXXXX",
"XXXXXXXXXXXXXXXXXXXXXXXXXXXXXXXXXXXXXXXXXXXXXXXXXXXXXXXXXXXXXXXXXXXXXX",
"XXXXXXXXXXXXXXXXXXXXXXXXXXXXXXXXXXXXXXXXXXXXXXXXXXXXXXXXXXXXXXXXXXXXXX",
"XXXXXXXXXXXXXXXXXXXXXXXXXXXXXXXXXXXXXXXXXXXXXXXXXXXXXXXXXXXXXXXXXXXXXX",
"XXXXXXXXXXXXXXXXXXXXXXXXXXXXXXXXXXXXXXXXXXXXXXXXXXXXXXXXXX:::XXXXXXXXX",
"XXXXXXXXXXXXXXXXXXXXXXXXXXXXXXXXXXXXXXXXXXXXXXXXXXXXXXXXX====:XXXXXXXX",
"XXXXXXXXXXXXXXXXXXXXXXXXXXXXXXXXXXXXXXXXXXXXXXXXXXXX&&&&X=====:XXXXXXX",
"XXXXXXXXXXXXXXXXXXXXXXXXXXXXXXXXXXXXXXXXXXXXXXXXXXX&&>>>&%%%.==::XXXXX",
"XXXXXXXXXXXXXXXXXXXXXXXXXXXXXXXXXXXXXXXXXXXXXXXXXXX&&>>>&%%%.==::XXXXX",
"XXXXXXXXXXXXXXXXXXXXXXXXXXXXXXXXXXXXXXXXXXXXXXXXXX&>>>>>>&...==::XXXXX",
"XXXXXXXXXXXXXXXXXXXXXXXXXXXXXXXXXXXXXXXXXXXXXXXXX&>>>&&>>>&&.==XXXXXXX",
"XXXXXXXXXXXXXXXXXXXXXXXXXXXXXXXXXXXXXXXXXXXXXXX&&>>>>>>&>>>>&XXXXXXXXX",
"XXXXXXXXXXXXXXXXXXXXXXXXXXXXXXXXXXXXXXXXXXXXXX&>>>>&>>>>&>>>&&XXXXXXXX",
"XXXXXXXXXXXXXXXXXXXXXXXXXXXXXXXXXXXXXXXXXXXXXX&>>>>&>>>>&>>>&&XXXXXXXX",
"XXXXXXXXXXXXXXXXXXXXXXXXXXXXXXXXXXX XXXXXXXXX&>>>>>>&>>>>&&&>&XXXXXXXX",
"XXXXXXXXXXXXXXXXXXXXXXXXXXXXXX XXX  XXX XXXXX&>>>&>>>&&>>&>>>>&XXXXXXX",
"XXXXXXXXXXXXXXXXXXXXXXXXXXXXXX   X   XX XXXXXX>>>>&>>>>&&>>>&>&XXXXXXX",
"XXXXXXXXXXXXXXXXXXXXXXXXXXXXXX          X XXXX&>>>>&>>>&>>>>>&&XXXXXXX",
"XXXXXXXXXXXXXXXXXXXXXXXXXXXXXX          X XXXX&>>>>&>>>&>>>>>&&XXXXXXX",
"XXXXXXXXXXXXXXXXXXXXXXXXXXXX X          : ::;%%&&>>>&&&>>>&&&>&&&XXXXX",
"XXXXXXXXXXXXXXXXXXXXXXXXXXXX   >> > >     ==;:...&&&>>>&>>>>>>&&&XXXXX",
"XXXXXXXXXXXXXXXXXXXXXXXXXXXX  &>>>>>>>>&  ===::..&>>>&&&>>&&&>>&&XXXXX",
"XXXXXXXXXXXXXXXXXXXXXXXXXXXXX &   >>   & =====:::#&&&>>>>>>>>&&&&XXXXX",
"XXXXXXXXXXXXXXXXXXXXXXXXXXXX  &,, >> ,,&  ===&&&&&&&&&&>>>>>>&XXXXXXXX",
"XXXXXXXXXXXXXXXXXXXXXXXXXXXX  &,, >> ,,&  ===&&&&&&&&&&>>>>>>&XXXXXXXX",
"XXXXXXXXXXXXXXXXXXXXXXXXXXXX  &,,<  <,,&  **&>>>>>&&>>>>>&>>&XXXXXXXXX",
"XXXXXXXXXXXXXXXXXXXXXXXXXX**> &>>>>>>>>& -**>>>>>>>>>>>&>>>>&XXXXXXXXX",
"XXXXXXXXXXXXXXXXXXXXXXXXX***> &>>    >>& -**>>>>>>>>>&&>>&&&XXXXXXXXXX",
"XXXXXXXXXXXXXXXXXXXXXXXX&***&>>> >>>> >>>-**>>>>>>>>>&&>&XXXXXXXXXXXXX",
"XXXXXXXXXXXXXXXXXXXXXXXX&***&>>>>>>>>>>>>-**>>>>>>>>>&&>&XXXXXXXXXXXXX",
"XXXXXXXXXXXXXXXXXXXXX&&&&***>>&>>&&&&>>&>-**&&>>>>>&>XXXXXXXXXXXXXXXXX",
"XXXXXXXXXXXXXXXXXXXX&>>>>***>&>>>&>>&>>>->***>&&&&&>XXXXXXXXXXXXXXXXXX",
"XXXXXXXXXXXXXXXXXX&&>>>>>*++&&&&&>>>>&&&-&>>*>>>>>>XXXXXXXXXXXXXXXXXXX",
"XXXXXXXXXXXXXXXXX&>&>>>>>+&&>>>>>&>>&>>>->&&**>>>&>XXXXXXXXXXXXXXXXXXX",
"XXXXXXXXXXXXXXXXX&>&>>>>>+&&>>>>>&>>&>>>->&&**>>>&>XXXXXXXXXXXXXXXXXXX",
"XXXXXXXXXXXXXXX&&>>&>>>>>+&&>>>>>>&&>>>-->&&&+>>>&XXXXXXXXXXXXXXXXXXXX",
"XXXXXXXXXXXXXX&>>>>>>>>&&+&&>>>>>>&&--->>>&&>++&&XXXXXXXXXXXXXXXXXXXXX",
"XXXXXXXXXXXXX&>>>>>>>&&>++>>&&&&&&--&&&&&&>>&*+&&XXXXXXXXXXXXXXXXXXXXX",
"XXXXXXXXXXXXX&>>>&>>>>>&+>>>&>&--->>>>>&>&>>>**XXXXXXXXXXXXXXXXXXXXXXX",
"XXXXXXXXXXXXX&>>>>&>&@@++>&&>-->>>&&>>>&>>&&>XXXXXXXXXXXXXXXXXXXXXXXXX",
"XXXXXXXXXXXXX&>>>>&>&@@++>&&>-->>>&&>>>&>>&&>XXXXXXXXXXXXXXXXXXXXXXXXX",
"XXXXXXXXXXXX&>>>>&>&&$$   ---&&&&&&&&&&&&>>>XXXXXXXXXXXXXXXXXXXXXXXXXX",
"XXXXXXXXXXXX&>>&&&&&&     XX>>&>>>>>>>>&>>XXXXXXXXXXXXXXXXXXXXXXXXXXXX",
"XXXXXXXXXXXX>>>>>>>>&&&  XXXX>&>>>&&>>>&>XXXXXXXXXXXXXXXXXXXXXXXXXXXXX",
"XXXXXXXXXXXX>>&>>&&&&>>&XXXXXXOOOooooOOOXXXXXXXXXXXXXXXXXXXXXXXXXXXXXX",
"XXXXXXXXXXXX>>&>>&&&&>>&XXXXXXOOOooooOOOXXXXXXXXXXXXXXXXXXXXXXXXXXXXXX",
"XXXXXXXXXXXX>&>>>>>>&>>&XXXXXOOOOOooOOOOOXXXXXXXXXXXXXXXXXXXXXXXXXXXXX",
"XXXXXXXXXXXX>>>&&&&&&>>&XXXXOOOOOooooOOOOOXXXXXXXXXXXXXXXXXXXXXXXXXXXX",
"XXXXXXXXXXXX&>>>>>>>&&&XXXOOOOooooXXoooOOOOOXXXXXXXXXXXXXXXXXXXXXXXXXX",
"XXXXXXXXXXXX>>&&&&&&&XXXXXOOOooXXXXXXXXooOOOXXXXXXXXXXXXXXXXXXXXXXXXXX",
"XXXXXXXXXXXX>>&&&&&&&XXXXXOOOooXXXXXXXXooOOOXXXXXXXXXXXXXXXXXXXXXXXXXX",
"XXXXXXXXXXXX&>>>>>>>&XXXXX>>&XXXXXXXXXXXX&>>XXXXXXXXXXXXXXXXXXXXXXXXXX",
"XXXXXXXXXXXXX&&&&&&&&XXXXX>>&XXXXXXXXXXXX&>>XXXXXXXXXXXXXXXXXXXXXXXXXX",
"XXXXXXXXXXXXXXXXXXXXXXXXX>&&XXXXXXXXXXXXXX&&>XXXXXXXXXXXXXXXXXXXXXXXXX",
"XXXXXXXXXXXXXXXXXXXXXXXX>&&&XXXXXXXXXXXXXX&&&>XXXXXXXXXXXXXXXXXXXXXXXX",
"XXXXXXXXXXXXXXXXXXXXXXXXXXXXXXXXXXXXXXXXXXXXXXXXXXXXXXXXXXXXXXXXXXXXXX",
"XXXXXXXXXXXXXXXXXXXXXXXXXXXXXXXXXXXXXXXXXXXXXXXXXXXXXXXXXXXXXXXXXXXXXX",
"XXXXXXXXXXXXXXXXXXXXXXXXXXXXXXXXXXXXXXXXXXXXXXXXXXXXXXXXXXXXXXXXXXXXXX",
"XXXXXXXXXXXXXXXXXXXXXXXXXXXXXXXXXXXXXXXXXXXXXXXXXXXXXXXXXXXXXXXXXXXXXX",
"XXXXXXXXXXXXXXXXXXXXXXXXXXXXXXXXXXXXXXXXXXXXXXXXXXXXXXXXXXXXXXXXXXXXXX",
"XXXXXXXXXXXXXXXXXXXXXXXXXXXXXXXXXXXXXXXXXXXXXXXXXXXXXXXXXXXXXXXXXXXXXX",
"XXXXXXXXXXXXXXXXXXXXXXXXXXXXXXXXXXXXXXXXXXXXXXXXXXXXXXXXXXXXXXXXXXXXXX",
"XXXXXXXXXXXXXXXXXXXXXXXXXXXXXXXXXXXXXXXXXXXXXXXXXXXXXXXXXXXXXXXXXXXXXX",
"XXXXXXXXXXXXXXXXXXXXXXXXXXXXXXXXXXXXXXXXXXXXXXXXXXXXXXXXXXXXXXXXXXXXXX",
"XXXXXXXXXXXXXXXXXXXXXXXXXXXXXXXXXXXXXXXXXXXXXXXXXXXXXXXXXXXXXXXXXXXXXX",
"XXXXXXXXXXXXXXXXXXXXXXXXXXXXXXXXXXXXXXXXXXXXXXXXXXXXXXXXXXXXXXXXXXXXXX",
"XXXXXXXXXXXXXXXXXXXXXXXXXXXXXXXXXXXXXXXXXXXXXXXXXXXXXXXXXXXXXXXXXXXXXX",
"XXXXXXXXXXXXXXXXXXXXXXXXXXXXXXXXXXXXXXXXXXXXXXXXXXXXXXXXXXXXXXXXXXXXXX",
"XXXXXXXXXXXXXXXXXXXXXXXXXXXXXXXXXXXXXXXXXXXXXXXXXXXXXXXXXXXXXXXXXXXXXX",
"XXXXXXXXXXXXXXXXXXXXXXXXXXXXXXXXXXXXXXXXXXXXXXXXXXXXXXXXXXXXXXXXXXXXXX"
};
