/* XPM */
static char *result[] = {
/* columns rows colors chars-per-pixel */
"70 70 19 1 ",
"  c black",
". c #230000",
"X c #161B26",
"o c #401E1C",
"O c #673B3C",
"+ c #7A4B2F",
"@ c #293855",
"# c #2E475A",
"$ c #42505D",
"% c #755351",
"& c #435C78",
"* c #9F6F4B",
"= c #788861",
"- c #879BA2",
"; c #A2AEA0",
": c #A3ADA2",
"> c #87A9C2",
", c white",
"< c None",
/* pixels */
"XXXXXXXXXXXXXXXXXXXXXXXXXXXXXXXXXXXXXXXXXXXXXXXXXXXXXXXXXXXXXXXXXXXXXX",
"XXXXXXXXXXXXXXXXXXXXXXXXXXXXXXXXXXXXXXXXXXXXXXXXXXXXXXXXXXXXXXXXXXXXXX",
"XXXXXXXXXXXXXXXXXXXXXXXXXXXXXXXXXXXXXXXXXXXXXXXXXXXXXXXXXXXXXXXXXXXXXX",
"XXXXXXXXXXXXXXXXXXXXXXXXXXXXXXXXXXXXXXXXXXXXXXXXXXXXXXXXXXXXXXXXXXXXXX",
"XXXXXXXXXXXXXXXXXXXXXXXXXXXXXXXXXXXXXXXXXXXXXXXXXXXXXXXXXXXX::XXXXXXXX",
"XXXXXXXXXXXXXXXXXXXXXXXXXXXXXXXXXXXXXXXXXXXXXXXXXXXXXXXXXX====:XXXXXXX",
"XXXXXXXXXXXXXXXXXXXXXXXXXXXXXXXXXXXXXXXXXXXXXXXXXXXXX&&&&X=====::XXXXX",
"XXXXXXXXXXXXXXXXXXXXXXXXXXXXXXXXXXXXXXXXXXXXXXXXXXXX&&&>>&%%%.===:XXXX",
"XXXXXXXXXXXXXXXXXXXXXXXXXXXXXXXXXXXXXXXXXXXXXXXXXXXX&&&>>&%%%.===:XXXX",
"XXXXXXXXXXXXXXXXXXXXXXXXXXXXXXXXXXXXXXXXXXXXXXXXXXX&>>>>>>&&..===:XXXX",
"XXXXXXXXXXXXXXXXXXXXXXXXXXXXXXXXXXXXXXXXXXXXXXXXXX&>>>>&>>>>&.===XXXXX",
"XXXXXXXXXXXXXXXXXXXXXXXXXXXXXXXXXXXXXXXXXXXXXXXXX&>>>>>>&>>>>&XXXXXXXX",
"XXXXXXXXXXXXXXXXXXXXXXXXXXXXXXXXXXXXXXXXXXXXXXX&&>>>&>>>>&>>>&&XXXXXXX",
"XXXXXXXXXXXXXXXXXXXXXXXXXXXXXXXXXXXXXXXXXXXXXXX&&>>>&>>>>&>>>&&XXXXXXX",
"XXXXXXXXXXXXXXXXXXXXXXXXXXXXXXXXXXX XXXXXXXXXX&>>>>>>&&>>>&&&>&XXXXXXX",
"XXXXXXXXXXXXXXXXXXXXXXXXXXXXXX XXX  XXX XXXXXX&>>>&>>>>&>>&&>>>&&XXXXX",
"XXXXXXXXXXXXXXXXXXXXXXXXXXXXXX   X   XX XXXXXXX>>>>&>>>>&&>>>&>&&XXXXX",
"XXXXXXXXXXXXXXXXXXXXXXXXXXXXXX          X :::%%&&>>>&>>>&>>>>>&&&XXXXX",
"XXXXXXXXXXXXXXXXXXXXXXXXXXXXXX          X :::%%&&>>>&>>>&>>>>>&&&XXXXX",
"XXXXXXXXXXXXXXXXXXXXXXXXXXXX X          : ::;:%%%&>>>&&&>>>>&&>&&&XXXX",
"XXXXXXXXXXXXXXXXXXXXXXXXXXXX   >> > >     ==;::...&&&>>>&>>>>>>&&&XXXX",
"XXXXXXXXXXXXXXXXXXXXXXXXXXXX  &>>>>>>>>&  ===::::.&>>>>&&>>>&&>>>&XXXX",
"XXXXXXXXXXXXXXXXXXXXXXXXXXXXX &   >>   & =====::::#&&&&>>>>>>>&&&&XXXX",
"XXXXXXXXXXXXXXXXXXXXXXXXXXXX  &,, >> ,,&  ====&&&&&&&&&&>>>>>>&XXXXXXX",
"XXXXXXXXXXXXXXXXXXXXXXXXXXXX  &,, >> ,,&  ====&&&&&&&&&&>>>>>>&XXXXXXX",
"XXXXXXXXXXXXXXXXXXXXXXXXXXXX  &,,<  <,,&  **&&>>>>>&&>>>>>&&>&XXXXXXXX",
"XXXXXXXXXXXXXXXXXXXXXXXXXX**> &>>>>>>>>& -**>>>>>>>>>>>>&>>>>&XXXXXXXX",
"XXXXXXXXXXXXXXXXXXXXXXXXX***> &>>    >>& -**>>>>>>>>>>>&>>&&&XXXXXXXXX",
"XXXXXXXXXXXXXXXXXXXXXXX&&***&>>> >>>> >>>-**>>>>>>>>>>>&>&XXXXXXXXXXXX",
"XXXXXXXXXXXXXXXXXXXXXXX&&***&>>>>>>>>>>>>-**>>>>>>>>>>>&>&XXXXXXXXXXXX",
"XXXXXXXXXXXXXXXXXXXX&&&>>***>>&>>&&&&>>&>-**&&&>>>>>&>>XXXXXXXXXXXXXXX",
"XXXXXXXXXXXXXXXXXXX&>>>>>***>&>>>&>>&>>>->***>>&&&&&>XXXXXXXXXXXXXXXXX",
"XXXXXXXXXXXXXXXXX&&>>>>>>*++&&&&&>>>>&&&-&>>*>>>>>>XXXXXXXXXXXXXXXXXXX",
"XXXXXXXXXXXXXXX&&>&>>>>>>+&&>>>>>&>>&>>>->&&**>>>&>XXXXXXXXXXXXXXXXXXX",
"XXXXXXXXXXXXXXX&&>&>>>>>>+&&>>>>>&>>&>>>->&&**>>>&>XXXXXXXXXXXXXXXXXXX",
"XXXXXXXXXXXXXX&>>>&>>>>>>+&&>>>>>>&&>>>-->&&&+>>>&XXXXXXXXXXXXXXXXXXXX",
"XXXXXXXXXXXXX&>>>>>>>&&&&+&&>>>>>>&&--->>>&&>++&&XXXXXXXXXXXXXXXXXXXXX",
"XXXXXXXXXXXX&>>>>>>>&>>+++>>&&&&&&--&&&&&&>>&*+&&XXXXXXXXXXXXXXXXXXXXX",
"XXXXXXXXXXXX&>>&&>>>>&&++>>>&>&--->>>>>&>&>>>**XXXXXXXXXXXXXXXXXXXXXXX",
"XXXXXXXXXXXX&>>>>&>&@++ +>&&>-->>>&&>>>&>>&&>XXXXXXXXXXXXXXXXXXXXXXXXX",
"XXXXXXXXXXXX&>>>>&>&@++ +>&&>-->>>&&>>>&>>&&>XXXXXXXXXXXXXXXXXXXXXXXXX",
"XXXXXXXXXX&&>>>&&>&&$     ---&&&&&&&&&&&&>>>XXXXXXXXXXXXXXXXXXXXXXXXXX",
"XXXXXXXXXX&&>>&&&&&&      XX>>&>>>>>>>>&>>XXXXXXXXXXXXXXXXXXXXXXXXXXXX",
"XXXXXXXXXX>>>>>>>>>&&    XXXX>&>>>&&>>>&>XXXXXXXXXXXXXXXXXXXXXXXXXXXXX",
"XXXXXXXXXX>>>&>&&&&&>&&XXXXXXXOOOooooOOOXXXXXXXXXXXXXXXXXXXXXXXXXXXXXX",
"XXXXXXXXXX>>>&>&&&&&>&&XXXXXXXOOOooooOOOXXXXXXXXXXXXXXXXXXXXXXXXXXXXXX",
"XXXXXXXXXX>>&>>>>>>&>&&XXXXXXOOOOOooOOOOOXXXXXXXXXXXXXXXXXXXXXXXXXXXXX",
"XXXXXXXXXX>>>>&&&&&&>&&XXXXXOOOOOooooOOOOOXXXXXXXXXXXXXXXXXXXXXXXXXXXX",
"XXXXXXXXXX&&>>>>>>>&&XXXXXOOOOooooXXoooOOOOOXXXXXXXXXXXXXXXXXXXXXXXXXX",
"XXXXXXXXXX>>>&&&&&&&XXXXXXOOOooXXXXXXXXooOOOXXXXXXXXXXXXXXXXXXXXXXXXXX",
"XXXXXXXXXX>>>&&&&&&&XXXXXXOOOooXXXXXXXXooOOOXXXXXXXXXXXXXXXXXXXXXXXXXX",
"XXXXXXXXXX&&>>>>>>>&XXXXXX>>&XXXXXXXXXXXX&>>XXXXXXXXXXXXXXXXXXXXXXXXXX",
"XXXXXXXXXXXX&&&&&&&&XXXXXX>>&XXXXXXXXXXXX&>>XXXXXXXXXXXXXXXXXXXXXXXXXX",
"XXXXXXXXXXXXXXXXXXXXXXXXX>&&XXXXXXXXXXXXXX&&>XXXXXXXXXXXXXXXXXXXXXXXXX",
"XXXXXXXXXXXXXXXXXXXXXXXX>&&&XXXXXXXXXXXXXX&&&>XXXXXXXXXXXXXXXXXXXXXXXX",
"XXXXXXXXXXXXXXXXXXXXXXXXXXXXXXXXXXXXXXXXXXXXXXXXXXXXXXXXXXXXXXXXXXXXXX",
"XXXXXXXXXXXXXXXXXXXXXXXXXXXXXXXXXXXXXXXXXXXXXXXXXXXXXXXXXXXXXXXXXXXXXX",
"XXXXXXXXXXXXXXXXXXXXXXXXXXXXXXXXXXXXXXXXXXXXXXXXXXXXXXXXXXXXXXXXXXXXXX",
"XXXXXXXXXXXXXXXXXXXXXXXXXXXXXXXXXXXXXXXXXXXXXXXXXXXXXXXXXXXXXXXXXXXXXX",
"XXXXXXXXXXXXXXXXXXXXXXXXXXXXXXXXXXXXXXXXXXXXXXXXXXXXXXXXXXXXXXXXXXXXXX",
"XXXXXXXXXXXXXXXXXXXXXXXXXXXXXXXXXXXXXXXXXXXXXXXXXXXXXXXXXXXXXXXXXXXXXX",
"XXXXXXXXXXXXXXXXXXXXXXXXXXXXXXXXXXXXXXXXXXXXXXXXXXXXXXXXXXXXXXXXXXXXXX",
"XXXXXXXXXXXXXXXXXXXXXXXXXXXXXXXXXXXXXXXXXXXXXXXXXXXXXXXXXXXXXXXXXXXXXX",
"XXXXXXXXXXXXXXXXXXXXXXXXXXXXXXXXXXXXXXXXXXXXXXXXXXXXXXXXXXXXXXXXXXXXXX",
"XXXXXXXXXXXXXXXXXXXXXXXXXXXXXXXXXXXXXXXXXXXXXXXXXXXXXXXXXXXXXXXXXXXXXX",
"XXXXXXXXXXXXXXXXXXXXXXXXXXXXXXXXXXXXXXXXXXXXXXXXXXXXXXXXXXXXXXXXXXXXXX",
"XXXXXXXXXXXXXXXXXXXXXXXXXXXXXXXXXXXXXXXXXXXXXXXXXXXXXXXXXXXXXXXXXXXXXX",
"XXXXXXXXXXXXXXXXXXXXXXXXXXXXXXXXXXXXXXXXXXXXXXXXXXXXXXXXXXXXXXXXXXXXXX",
"XXXXXXXXXXXXXXXXXXXXXXXXXXXXXXXXXXXXXXXXXXXXXXXXXXXXXXXXXXXXXXXXXXXXXX",
"XXXXXXXXXXXXXXXXXXXXXXXXXXXXXXXXXXXXXXXXXXXXXXXXXXXXXXXXXXXXXXXXXXXXXX"
};
