/* XPM */
static char *result[] = {
/* columns rows colors chars-per-pixel */
"70 70 108 2 ",
"   c #00060A",
".  c #00060B",
"X  c #00070B",
"o  c #00070C",
"O  c #00080D",
"+  c #00080E",
"@  c #00090E",
"#  c #00090F",
"$  c #000A10",
"%  c #000A11",
"&  c #000B11",
"*  c #000B12",
"=  c #000D14",
"-  c #000D15",
";  c #020D14",
":  c #000E16",
">  c #000F17",
",  c #010F17",
"<  c #001019",
"1  c #051018",
"2  c #051219",
"3  c #00131C",
"4  c #00131D",
"5  c #00141D",
"6  c #00141E",
"7  c #00151E",
"8  c #00151F",
"9  c #001620",
"0  c #001721",
"q  c #021720",
"w  c #021923",
"e  c #041B25",
"r  c #051B25",
"t  c #071D27",
"y  c #0C1F28",
"u  c #0C222C",
"i  c #0F232C",
"p  c #132028",
"a  c #132129",
"s  c #13222A",
"d  c #13222B",
"f  c #11242D",
"g  c #13252E",
"h  c #112731",
"j  c #122731",
"k  c #152831",
"l  c #142933",
"z  c #162933",
"x  c #152A34",
"c  c #1F2B33",
"v  c #192B35",
"b  c #1B2C35",
"n  c #1C2D36",
"m  c #1F2F38",
"M  c #23282F",
"N  c #202D36",
"B  c #203039",
"V  c #21323B",
"C  c #263139",
"Z  c #26313A",
"A  c #21343E",
"S  c #23343E",
"D  c #27343D",
"F  c #2B343C",
"G  c #30333A",
"H  c #233640",
"J  c #233741",
"K  c #223745",
"L  c #253842",
"P  c #263842",
"I  c #263943",
"U  c #243A42",
"Y  c #253A42",
"T  c #273A44",
"R  c #283A44",
"E  c #2A3B45",
"W  c #2B3B45",
"Q  c #2C3C45",
"!  c #313840",
"~  c #343F49",
"^  c #364048",
"/  c #37414A",
"(  c #3A424A",
")  c #3B434B",
"_  c #3F4249",
"`  c #3F434B",
"'  c #3C444C",
"]  c #3D444C",
"[  c #3E444D",
"{  c #40424A",
"}  c #4A474E",
"|  c #454C53",
" . c #484951",
".. c #494A51",
"X. c #4D4C53",
"o. c #4E4C53",
"O. c #4F4D53",
"+. c #4F4C54",
"@. c #504D54",
"#. c #514E54",
"$. c #524E55",
"%. c #575057",
"&. c #595158",
"*. c #5E545A",
"=. c #6C5B60",
"-. c #6D5B60",
";. c #6F5C61",
":. c None",
/* pixels */
":.:.:.:.:.:.:.:.#.#.#.@.@.@.^ ^ ^ m m m m m m { { { *.*.*.~ ~ ~ ~ g g g 7 7 7 * * *   < <                                                   ",
":.:.:.:.:.:.:.:.O.O.O.@.@.@.] ] ] P P P D D D @.@.@.;.;.;.Q Q Q Q m m m r r r : : :   < <                                                   ",
":.:.:.:.:.:.:.:.O.O.O.@.@.@.] ] ] P P P D D D @.@.@.;.;.;.Q Q Q Q m m m r r r : : :   < <                                                   ",
":.:.:.:.:.:.:.:.O.O.O.@.@.@.] ] ] P P P D D D @.@.@.;.;.;.Q Q Q Q m m m r r r : : :   # #                                                   ",
":.:.:.:.:.:.:.:.:.:.:.@.@.@.@.@.@.I I I ' ' ' @.@.@.%.%.%.R R R R m m m r r r 6 6 6   # #                                                   ",
":.:.:.:.:.:.:.:.:.:.:.@.@.@.@.@.@.I I I ' ' ' @.@.@.%.%.%.R R R R m m m r r r 6 6 6   # #                                                   ",
":.:.:.:.:.:.:.:.:.:.:.@.@.@.@.@.@.I I I ' ' ' @.@.@.%.%.%.R R R R m m m r r r 6 6 6   : :                                                   ",
":.:.:.:.:.:.:.:.:.:.:.| | |  . . .-.-.-.@.@.@.@.@.@.X.X.X.I I I I i i i 8 8 8 * * *   : :                                                   ",
":.:.:.:.:.:.:.:.:.:.:.| | |  . . .-.-.-.@.@.@.@.@.@.X.X.X.I I I I i i i 8 8 8 * * *   : :                                                   ",
":.:.:.:.:.:.:.:.:.:.:.| | |  . . .-.-.-.@.@.@.@.@.@.X.X.X.I I I I i i i 8 8 8 * * *   s s                                                   ",
":.:.:.:.:.:.:.:.:.:.:.K K K I I I -.-.-.@.@.@.@.@.@.X.X.X.I I I I 0 0 0 4 4 4 < < <   s s s                                                 ",
":.:.:.:.:.:.:.:.:.:.:.K K K I I I -.-.-.@.@.@.@.@.@.X.X.X.I I I I 0 0 0 4 4 4 < < <   s s s                                                 ",
":.:.:.:.:.:.:.:.:.:.:.K K K I I I -.-.-.@.@.@.@.@.@.X.X.X.I I I I 0 0 0 4 4 4 < < <   o o o                                                 ",
"I :.:.:.:.:.:.:.:.:.:.Y Y Y $.$.$.=.=.=./ / / @.@.@.......B B B B a a a % % % # # #   o o o                                                 ",
"I :.:.:.:.:.:.:.:.:.:.Y Y Y $.$.$.=.=.=./ / / @.@.@.......B B B B a a a % % % # # #   o o o                                                 ",
"I :.:.:.:.:.:.:.:.:.:.Y Y Y $.$.$.=.=.=./ / / @.@.@.......B B B B a a a % % % # # #   o o o                                                 ",
"I :.:.:.:.:.:.:.:.:.:.Y Y Y $.$.$.=.=.=./ / / @.@.@.......B B B B a a a % % % # # #   o o o                                                 ",
"I U U U :.:.:.:.+.+.+.H H H } } } &.&.&.I I I @.@.@.I I I B B B B p p p . . . o o o   o o o                                                 ",
"I U U U :.:.:.:.+.+.+.H H H } } } &.&.&.I I I @.@.@.I I I B B B B p p p . . . o o o   o o o                                                 ",
"I U U U :.:.:.:.+.+.+.H H H } } } &.&.&.I I I @.@.@.I I I B B B B p p p . . . o o o   o o o                                                 ",
"T V V V m m m m ` ` ` A A A ! ! ! X.X.X.L L L @.@.@.I I I B B B B s s s * * * # #                                                           ",
"T V V V m m m m ` ` ` A A A ! ! ! X.X.X.L L L @.@.@.I I I B B B B s s s * * * # #                                                           ",
"T V V V m m m m ` ` ` A A A ! ! ! X.X.X.L L L @.@.@.I I I B B B B s s s * * * # #                                                           ",
") W W W ( ( ( ( c c c z z z { { { X.X.X.j j j @.@.@.S S S f f f f k k k 1 1 1 # #                                                           ",
") W W W ( ( ( ( c c c z z z { { { X.X.X.j j j @.@.@.S S S f f f f k k k 1 1 1 # #                                                           ",
") W W W ( ( ( ( c c c z z z { { { X.X.X.j j j @.@.@.S S S f f f f k k k 1 1 1 # #                                                           ",
"o.o.o.o._ _ _ _ , , , y y y @.@.@.R R R j j j @.@.@.S S S w w w w 3 3 3 * * * * *                                                           ",
"o.o.o.o._ _ _ _ , , , y y y @.@.@.R R R j j j @.@.@.S S S w w w w 3 3 3 * * * * *                                                           ",
"o.o.o.o._ _ _ _ , , , y y y @.@.@.R R R j j j @.@.@.S S S w w w w 3 3 3 * * * * *                                                           ",
"N 0 0 0 9 9 9 9 - - - Z Z Z [ [ [ J J J 0 0 0 @.@.@.l l l 0 0 0 0 > > > * * * % %                                                           ",
"N 0 0 0 9 9 9 9 - - - Z Z Z [ [ [ J J J 0 0 0 @.@.@.l l l 0 0 0 0 > > > * * * % % %                                                         ",
"N 0 0 0 9 9 9 9 - - - Z Z Z [ [ [ J J J 0 0 0 @.@.@.l l l 0 0 0 0 > > > * * * % % %                                                         ",
"N 0 0 0 9 9 9 9 - - - Z Z Z [ [ [ J J J 0 0 0 @.@.@.l l l 0 0 0 0 > > > * * * %                                                             ",
"0 0 0 0 6 6 6 6 G G G E E E h h h e e e C C C W W W w w w 0 0 0 0 * * * * * * #                                                             ",
"0 0 0 0 6 6 6 6 G G G E E E h h h e e e C C C W W W w w w 0 0 0 0 * * * * * * #                                                             ",
"0 0 0 0 6 6 6 6 G G G E E E h h h e e e C C C W W W w w w 0 0 0 0 * * * * * * #                                                             ",
"I n n n d d d d M M M 3 3 3 : : : u u u F F F I I I 0 0 0 3 3 3 3 # # # @ @ @ +                                                             ",
"I n n n d d d d M M M 3 3 3 : : : u u u F F F I I I 0 0 0 3 3 3 3 # # # @ @ @ +                                                             ",
"I n n n d d d d M M M 3 3 3 : : : u u u F F F I I I 0 0 0 3 3 3 3 # # # @ @ @ +                                                             ",
"t q q q * * * * * * * * * * s s s J J J v v v I I I - - - * * * * & & & X X X                                                               ",
"t q q q * * * * * * * * * * s s s J J J v v v I I I - - - * * * * & & & X X X                                                               ",
"t q q q * * * * * * * * * * s s s J J J v v v I I I - - - * * * * & & & X X X                                                               ",
"5 5 5 5 * * * * * * * ; ; ; b b b 5 5 5 = = = o o o o o o o o o o % % % X X X o                                                             ",
"5 5 5 5 * * * * * * * ; ; ; b b b 5 5 5 = = = o o o o o o o o o o % % % X X X o o                                                           ",
"5 5 5 5 * * * * * * * ; ; ; b b b 5 5 5 = = = o o o o o o o o o o % % % X X X o o                                                           ",
"* * * * * * * * * * * 2 2 2 x x x * * * * * * * * * * * * * * * * X X X       O O                                                           ",
"* * * * * * * * * * * 2 2 2 x x x * * * * * * * * * * * * * * * * X X X       O O                                                           ",
"* * * * * * * * * * * 2 2 2 x x x * * * * * * * * * * * * * * * * X X X       O O                                                           ",
"* O O O X X X X o o o * * * O O O * * * $ $ $ $ $ $ O O O                     + +                                                           ",
"* O O O X X X X o o o * * * O O O * * * $ $ $ $ $ $ O O O                     + +                                                           ",
"* O O O X X X X o o o * * * O O O * * * $ $ $ $ $ $ O O O                     + +                                                           ",
"* O O O X X X X o o o * * * O O O * * * $ $ $ $ $ $ O O O                     + +                                                           ",
"* * * * @ @ @ @       & & & X X X O O O # # # # # # # # #                     * *                                                           ",
"* * * * @ @ @ @       & & & X X X O O O # # # # # # # # #                                                                                   ",
"* * * * @ @ @ @       & & & X X X O O O # # # # # # # # #                                                                                   ",
"* * * *                                                                                                                                     ",
"                                                                                                                                            ",
"                                                                                                                                            ",
"                                                                                                                                            ",
"                                                                                                                                            ",
"                                                                                                                                            ",
"                                                                                                                                            ",
"                                                                                                                                            ",
"                                                                                                                                            ",
"                                                                                                                                            ",
"                                                                                                                                            ",
"                                                                                                                                            ",
"                                                                                                                                            ",
"                                                                                                                                            ",
"                                                                                                                                            "
};
