/* XPM */
static char *result[] = {
/* columns rows colors chars-per-pixel */
"50 50 16 1 ",
"  c black",
". c #161b26",
"X c gray49",
"o c #A00000",
"O c #A05000",
"+ c #F04030",
"@ c #E07020",
"# c #D67E40",
"$ c #A09000",
"% c #F0F040",
"& c #406080",
"* c #508FC0",
"= c gray69",
"- c #F0C090",
"; c #EDE7F6",
": c None",
/* pixels */
"..................................................",
"..................................................",
"..................................................",
".........................   ......................",
".......................  $$$  ....................",
"...................... $%%%%%% ...................",
"..................... $$$$%%%%% ..................",
"..................... $$$$$%%%% ..................",
".................... $$$$$o++++o    ..............",
".................... oooooo%%%%%%%% ..............",
".................... oo$%%%$     $ ...............",
"................... $%%$       @  ................",
".................. %$     X # #@ . ...............",
"................. $$  - @X = -# ..................",
"..................  . -@#=:---- ...   ............",
"....................   #------O .. --  ...........",
"....................... ---  - ... #--- ..........",
"...................    #@---- .... #O--- .........",
".................. -- oo#@oo .... - ##O- .........",
"................. ---- +o#    ... #- O#- .........",
"................. -#--# +o o# ....   @@ ..........",
"................. -##-O +++o## ... @@  ...........",
"................ --##O ++%o ### . @@@ ............",
"............... ---   +++oo  @## @@@ .............",
".............. --#  o+++ooo . @@@@@ ..............",
".............. -#   o+++%o ...  @@ ...............",
"...............     o++++o  ....  ................",
".................. o+++o%ooo .....................",
".................. o+++o ooo   ...................",
".................  +++o &    &&   ................",
"................ &&    &&&&&&&&&&  ...............",
"............... ;;;****&&&&&&&&&=@@ ..............",
".............. ===;;*&&    &&&&=@@@ ..............",
".............. @--=:&  ....  &&=@@ ...............",
".............. @--=; ........  @@ ................",
".............. @@   .......... @ .................",
".............. -  ........... @@ .................",
"............. -- ............ @ ..................",
"............. -- ........... O@ ..................",
"............ --- ........... @@@ .................",
"........... @--@ .......... O@@@@  ...............",
"..........   @    ......... O@@@@ @  .............",
"......... --  --  ......... OOOO O@@@ ............",
"........ @-- ---@ .........           ............",
"........         .................................",
"..................................................",
"..................................................",
"..................................................",
"..................................................",
".................................................."
};
