/* XPM */
static char *_dc74eed8c6945f6cd8ebbca01838275lb4GrgTbKtnAtCSa[] = {
/* columns rows colors chars-per-pixel */
"70 70 13 1 ",
"  c None",
". c gray1",
"X c #2E5B77",
"o c #555555",
"O c #AD0D00",
"+ c #CE7B00",
"@ c #FF9800",
"# c #3C789D",
"$ c #4A94C2",
"% c #5AB3EB",
"& c #AAAAAA",
"* c #C8C8C8",
"= c white",
/* pixels */
"      ....                                                 .....      ",
"     .===...                                              ...===.     ",
"   ..=====..                                              .======.    ",
"  ...=====..                ..............                .======...  ",
"  ...=====..                ..............                .======...  ",
" .========..            ....%%%%%%%%%%%%%%...             .=========. ",
".========.            ..%%%%%%%%%%%%%%%%%%%%%...           ..========.",
".=========..        ..%%%%%%%%%%%%%%%%%%%%%%%%%%..        .==========.",
".===========.      .%%%%%%%%%%%%%%%%%%%%%%%%%%%%%%..     .===========.",
"..====.======.  ...%%%%%%%%%%%%%%%%%%%%%%%%%%%%%%%%%..  .======.====..",
" ..... .======..%%%%%%%%%%%%..............%%%%%%%%%%%%..======. ....  ",
" ..... .======..%%%%%%%%%%%%..............%%%%%%%%%%%%..======. ....  ",
"        .======.%%%%%%%%%%..@@@@@@@@@@@@@@..%%%%%%%%%%.======.        ",
"         .======.%%%%%%...@@@@@@@@@@@@@@@@@@...%%%%%..=====..         ",
"          ..=====..%%%.@@@@@@@@@@@@@@@@@@@@@@@@..%%.======.           ",
"            .======.%.@@@@@@@@@@@@@@@@@@@@@@@@@@@..======.            ",
"          ..X.======.@@@@@@@@@@@@@@@@@@@@@@@@@@@@@.=====.X.           ",
"         .$$$X.====.@@@@@@@@@@@@@@@@@@@@@@@@@@@@@@@.===.$$$..         ",
"         .$$$X.====.@@@@@@@@@@@@@@@@@@@@@@@@@@@@@@@.===.$$$..         ",
"         .$$X$X.=..@@@@@@@@@@@@@@@@@@@@@@@@@@@@@@@@.==.$$$%..         ",
"        .$$$$$$X.@@@@@@@@@@@@@@@@@@@@@@@@@@@@@@@@@@@..%%%%%%%.        ",
"        .%$$%$X.@@@@@@@@@@..................@@@@@@@@@@.%%%%%%.        ",
"        .$%%$$$.@.........OOOOOOOOOOOOOOOOOO........@@.%%%%%%%.       ",
"       .%%$$%$$..OOOOOOOOOOOOOOOOOOOOOOOOOOOOOOOOOOO....%%%%%%.       ",
"       .%%%%$%.OO...................................OOO.%%%%%%.       ",
"       .%%%%$%.OO...................................OOO.%%%%%%.       ",
"       .%%.......+++++++++++++++++++++++++++++++++++.........%%.      ",
"      ....+++++++++++++........................++++++++++++++...      ",
"   ...++++++++++.......*&&&&ooooooooooooooooooo.......++++++++++..    ",
"  .+++++++++++..=*********&&&o&oo&o&oooooooooooooooooo...+++++++++..  ",
"  .++++++++++.*=*==****.....&&o&&o&o&o&&&o.....ooooooooo.+++++++++..  ",
"   ...+++++++.=*=**=*.........&&&&&&o&oo.........&oooooo.+++++++..    ",
"   ...+++++++.=*=**=*.........&&&&&&o&oo.........&oooooo.+++++++..    ",
"      ...++++.*=*==*...........**&&&&&............&o&&o&.++++...      ",
"      .XX.....=*=**..............**&&..............&oo&o.....XX.      ",
"      .##XXXX.*=*==..............*&*&..............&&&&&.XXXXX$.      ",
"      .#####X.===**..............&*&*..............*&&&&.$$$$$$.      ",
"      .$#$###X.====..............***&..............&****.$$$$$$.      ",
"       .$#$$#X.====..............****..............****.%$$$$$$.      ",
"       .$#$$#X.====..............****..............****.%$$$$$$.      ",
"       .$$###X.====..............=***..............*===.$$%$$%.       ",
"       .$$##$#X.===..............*=**..............====.%%$%%$.       ",
"        .$##$#X.====...........**=*=**............====.$$%$$$%.       ",
"        .$$$###X.====.........=====*==**.........=====.%%$%$$.        ",
"        .$$$$$#X.======.....=====....=====.....=====..%%%%%%%.        ",
"         .$$$###X..==============....==============.%%%%%%%..         ",
"         .$$$###X..==============....==============.%%%%%%%..         ",
"         .$$#$$##XX.=============....=============.%%%%%%%%..         ",
"          ..$$#$#..o.============....============.&.%%%%%%.           ",
"            .$$#.&&oo.==========================.&*=..%%%.            ",
"             .$.&&&ooo..=====================...&**===.%%.            ",
"              .&&&&&&.XX...================..$$$.**====..             ",
"             .*&&&&&.X#X..&..============..&.$$$$.======.             ",
"             .*&&&&&.X#X..&..============..&.$$$$.======.             ",
"            .&*&&&&.##X#..&&&............&&&...$$$.======.            ",
"          ..*&&*&..$$##.**.**.**********.**.*..%$$$.======.           ",
"         .*****&.  ..##...&...==========...&...%%%. ..=====..         ",
"        .=****&.     .#...==.=..........=.==...%..    .======.        ",
" ..... .*=****.       ..&&.=.============.=.&...       .======. ....  ",
"..====.==*===.          ..&..============..&.           .======.====. ",
"..====.==*===.          ..&..============..&.           .======.====. ",
".=======*=**.           ..=&..==========..&=.            .===========.",
".=========..              .=**..........**==.             .==========.",
".========.                .===**********===.               ..========.",
" .========..               .==============.               .=========. ",
"  ...=====..                .============.                .======...  ",
"   ..=====..                 ....====....                 .======.    ",
"   ..=====..                 ....====....                 .======.    ",
"     .===.                       ....                     ...===.     ",
"      ...                                                  .....      "
};
