/* XPM */
static char *result[] = {
/* columns rows colors chars-per-pixel */
"70 70 108 2 ",
"   c #00060A",
".  c #00060B",
"X  c #00070B",
"o  c #00070C",
"O  c #00080D",
"+  c #00080E",
"@  c #00090E",
"#  c #00090F",
"$  c #000A10",
"%  c #000A11",
"&  c #000B11",
"*  c #000B12",
"=  c #000D14",
"-  c #000D15",
";  c #020D14",
":  c #000E16",
">  c #000F17",
",  c #010F17",
"<  c #001019",
"1  c #051018",
"2  c #051219",
"3  c #00131C",
"4  c #00131D",
"5  c #00141D",
"6  c #00141E",
"7  c #00151E",
"8  c #00151F",
"9  c #001620",
"0  c #001721",
"q  c #021720",
"w  c #021923",
"e  c #041B25",
"r  c #051B25",
"t  c #071D27",
"y  c #0C1F28",
"u  c #0C222C",
"i  c #0F232C",
"p  c #132028",
"a  c #132129",
"s  c #13222A",
"d  c #13222B",
"f  c #11242D",
"g  c #13252E",
"h  c #112731",
"j  c #122731",
"k  c #152831",
"l  c #142933",
"z  c #162933",
"x  c #152A34",
"c  c #1F2B33",
"v  c #192B35",
"b  c #1B2C35",
"n  c #1C2D36",
"m  c #1F2F38",
"M  c #23282F",
"N  c #202D36",
"B  c #203039",
"V  c #21323B",
"C  c #263139",
"Z  c #26313A",
"A  c #21343E",
"S  c #23343E",
"D  c #27343D",
"F  c #2B343C",
"G  c #30333A",
"H  c #233640",
"J  c #233741",
"K  c #223745",
"L  c #253842",
"P  c #263842",
"I  c #263943",
"U  c #243A42",
"Y  c #253A42",
"T  c #273A44",
"R  c #283A44",
"E  c #2A3B45",
"W  c #2B3B45",
"Q  c #2C3C45",
"!  c #313840",
"~  c #343F49",
"^  c #364048",
"/  c #37414A",
"(  c #3A424A",
")  c #3B434B",
"_  c #3F4249",
"`  c #3F434B",
"'  c #3C444C",
"]  c #3D444C",
"[  c #3E444D",
"{  c #40424A",
"}  c #4A474E",
"|  c #454C53",
" . c #484951",
".. c #494A51",
"X. c #4D4C53",
"o. c #4E4C53",
"O. c #4F4D53",
"+. c #4F4C54",
"@. c #504D54",
"#. c #514E54",
"$. c #524E55",
"%. c #575057",
"&. c #595158",
"*. c #5E545A",
"=. c #6C5B60",
"-. c #6D5B60",
";. c #6F5C61",
":. c None",
/* pixels */
"                                                                                                                                            ",
"                                                                                                                                            ",
"                                                                                                                                            ",
"                                                                                                                                            ",
"                                                                                                                                            ",
"                                                                                                                                            ",
"                                                                                                                                            ",
"                                                                                                                                            ",
"                                                                                                                                            ",
"                                                                                                                                            ",
"                                                                                                                                            ",
"                                                                                                                                            ",
"                                                                                                                                            ",
"                                                                                                                                            ",
"                                                                                                                                    * * * * ",
"                                                                                  # # # # # # # # # O O O X X X & & &       @ @ @ @ * * * * ",
"                                                                                  # # # # # # # # # O O O X X X & & &       @ @ @ @ * * * * ",
"                                                          * *                     # # # # # # # # # O O O X X X & & &       @ @ @ @ * * * * ",
"                                                          + +                     O O O $ $ $ $ $ $ * * * O O O * * * o o o X X X X O O O * ",
"                                                          + +                     O O O $ $ $ $ $ $ * * * O O O * * * o o o X X X X O O O * ",
"                                                          + +                     O O O $ $ $ $ $ $ * * * O O O * * * o o o X X X X O O O * ",
"                                                          + +                     O O O $ $ $ $ $ $ * * * O O O * * * o o o X X X X O O O * ",
"                                                          O O       X X X * * * * * * * * * * * * * * * * x x x 2 2 2 * * * * * * * * * * * ",
"                                                          O O       X X X * * * * * * * * * * * * * * * * x x x 2 2 2 * * * * * * * * * * * ",
"                                                          O O       X X X * * * * * * * * * * * * * * * * x x x 2 2 2 * * * * * * * * * * * ",
"                                                          o o X X X % % % o o o o o o o o o o = = = 5 5 5 b b b ; ; ; * * * * * * * 5 5 5 5 ",
"                                                          o o X X X % % % o o o o o o o o o o = = = 5 5 5 b b b ; ; ; * * * * * * * 5 5 5 5 ",
"                                                            o X X X % % % o o o o o o o o o o = = = 5 5 5 b b b ; ; ; * * * * * * * 5 5 5 5 ",
"                                                              X X X & & & * * * * - - - I I I v v v J J J s s s * * * * * * * * * * q q q t ",
"                                                              X X X & & & * * * * - - - I I I v v v J J J s s s * * * * * * * * * * q q q t ",
"                                                              X X X & & & * * * * - - - I I I v v v J J J s s s * * * * * * * * * * q q q t ",
"                                                            + @ @ @ # # # 3 3 3 3 0 0 0 I I I F F F u u u : : : 3 3 3 M M M d d d d n n n I ",
"                                                            + @ @ @ # # # 3 3 3 3 0 0 0 I I I F F F u u u : : : 3 3 3 M M M d d d d n n n I ",
"                                                            + @ @ @ # # # 3 3 3 3 0 0 0 I I I F F F u u u : : : 3 3 3 M M M d d d d n n n I ",
"                                                            # * * * * * * 0 0 0 0 w w w W W W C C C e e e h h h E E E G G G 6 6 6 6 0 0 0 0 ",
"                                                            # * * * * * * 0 0 0 0 w w w W W W C C C e e e h h h E E E G G G 6 6 6 6 0 0 0 0 ",
"                                                            # * * * * * * 0 0 0 0 w w w W W W C C C e e e h h h E E E G G G 6 6 6 6 0 0 0 0 ",
"                                                            % * * * > > > 0 0 0 0 l l l @.@.@.0 0 0 J J J [ [ [ Z Z Z - - - 9 9 9 9 0 0 0 N ",
"                                                        % % % * * * > > > 0 0 0 0 l l l @.@.@.0 0 0 J J J [ [ [ Z Z Z - - - 9 9 9 9 0 0 0 N ",
"                                                        % % % * * * > > > 0 0 0 0 l l l @.@.@.0 0 0 J J J [ [ [ Z Z Z - - - 9 9 9 9 0 0 0 N ",
"                                                          % % * * * > > > 0 0 0 0 l l l @.@.@.0 0 0 J J J [ [ [ Z Z Z - - - 9 9 9 9 0 0 0 N ",
"                                                          * * * * * 3 3 3 w w w w S S S @.@.@.j j j R R R @.@.@.y y y , , , _ _ _ _ o.o.o.o.",
"                                                          * * * * * 3 3 3 w w w w S S S @.@.@.j j j R R R @.@.@.y y y , , , _ _ _ _ o.o.o.o.",
"                                                          * * * * * 3 3 3 w w w w S S S @.@.@.j j j R R R @.@.@.y y y , , , _ _ _ _ o.o.o.o.",
"                                                          # # 1 1 1 k k k f f f f S S S @.@.@.j j j X.X.X.{ { { z z z c c c ( ( ( ( W W W ) ",
"                                                          # # 1 1 1 k k k f f f f S S S @.@.@.j j j X.X.X.{ { { z z z c c c ( ( ( ( W W W ) ",
"                                                          # # 1 1 1 k k k f f f f S S S @.@.@.j j j X.X.X.{ { { z z z c c c ( ( ( ( W W W ) ",
"                                                          # # * * * s s s B B B B I I I @.@.@.L L L X.X.X.! ! ! A A A ` ` ` m m m m V V V T ",
"                                                          # # * * * s s s B B B B I I I @.@.@.L L L X.X.X.! ! ! A A A ` ` ` m m m m V V V T ",
"                                                          # # * * * s s s B B B B I I I @.@.@.L L L X.X.X.! ! ! A A A ` ` ` m m m m V V V T ",
"                                                o o o   o o o . . . p p p B B B B I I I @.@.@.I I I &.&.&.} } } H H H +.+.+.:.:.:.:.U U U I ",
"                                                o o o   o o o . . . p p p B B B B I I I @.@.@.I I I &.&.&.} } } H H H +.+.+.:.:.:.:.U U U I ",
"                                                o o o   o o o . . . p p p B B B B I I I @.@.@.I I I &.&.&.} } } H H H +.+.+.:.:.:.:.U U U I ",
"                                                o o o   # # # % % % a a a B B B B ......@.@.@./ / / =.=.=.$.$.$.Y Y Y :.:.:.:.:.:.:.:.:.:.I ",
"                                                        # # # % % % a a a B B B B ......@.@.@./ / / =.=.=.$.$.$.Y Y Y :.:.:.:.:.:.:.:.:.:.I ",
"                                                        # # # % % % a a a B B B B ......@.@.@./ / / =.=.=.$.$.$.Y Y Y :.:.:.:.:.:.:.:.:.:.I ",
"                                                        # # # % % % a a a B B B B ......@.@.@./ / / =.=.=.$.$.$.Y Y Y :.:.:.:.:.:.:.:.:.:.I ",
"                                                        < < < 4 4 4 0 0 0 I I I I X.X.X.@.@.@.@.@.@.-.-.-.I I I K K K :.:.:.:.:.:.:.:.:.:.:.",
"                                                        < < < 4 4 4 0 0 0 I I I I X.X.X.@.@.@.@.@.@.-.-.-.I I I K K K :.:.:.:.:.:.:.:.:.:.:.",
"                                                        < < < 4 4 4 0 0 0 I I I I X.X.X.@.@.@.@.@.@.-.-.-.I I I K K K :.:.:.:.:.:.:.:.:.:.:.",
"                                                        * * * 8 8 8 i i i I I I I X.X.X.@.@.@.@.@.@.-.-.-. . . .| | | :.:.:.:.:.:.:.:.:.:.:.",
"                                                        * * * 8 8 8 i i i I I I I X.X.X.@.@.@.@.@.@.-.-.-. . . .| | | :.:.:.:.:.:.:.:.:.:.:.",
"                                                        * * * 8 8 8 i i i I I I I X.X.X.@.@.@.@.@.@.-.-.-. . . .| | | :.:.:.:.:.:.:.:.:.:.:.",
"                                                        6 6 6 r r r m m m R R R R %.%.%.@.@.@.' ' ' I I I @.@.@.@.@.@.:.:.:.:.:.:.:.:.:.:.:.",
"                                                  # #   6 6 6 r r r m m m R R R R %.%.%.@.@.@.' ' ' I I I @.@.@.@.@.@.:.:.:.:.:.:.:.:.:.:.:.",
"                                                  # #   6 6 6 r r r m m m R R R R %.%.%.@.@.@.' ' ' I I I @.@.@.@.@.@.:.:.:.:.:.:.:.:.:.:.:.",
"                                                  # #   : : : r r r m m m Q Q Q Q ;.;.;.@.@.@.D D D P P P ] ] ] @.@.@.O.O.O.:.:.:.:.:.:.:.:.",
"                                                  < <   : : : r r r m m m Q Q Q Q ;.;.;.@.@.@.D D D P P P ] ] ] @.@.@.O.O.O.:.:.:.:.:.:.:.:.",
"                                                  < <   : : : r r r m m m Q Q Q Q ;.;.;.@.@.@.D D D P P P ] ] ] @.@.@.O.O.O.:.:.:.:.:.:.:.:.",
"                                                  < <   * * * 7 7 7 g g g ~ ~ ~ ~ *.*.*.{ { { m m m m m m ^ ^ ^ @.@.@.#.#.#.:.:.:.:.:.:.:.:."
};
