/* XPM */
static char *result[] = {
/* columns rows colors chars-per-pixel */
"50 50 25 1 ",
"  c black",
". c #010000",
"X c #000100",
"o c #010100",
"O c #000001",
"+ c #010001",
"@ c #000101",
"# c #010101",
"$ c #060706",
"% c #191A24",
"& c #181B24",
"* c #5F0F03",
"= c #2E475A",
"- c #A00000",
"; c #A05000",
": c #F04030",
"> c #D67E40",
", c #A09000",
"< c #F0F040",
"1 c #406080",
"2 c #508FC0",
"3 c #70A4CC",
"4 c #F0C090",
"5 c #AAB8E3",
"6 c #FFF9EB",
/* pixels */
"&&&&&&&&&&&&&&&&&&&&&&&&&&&&&&&&&&&&&&&&&&&&&&&&&&",
"&&&&&&&&&&&&&&&&&&&&&&&&&&&&&&&&&&&&&&&&&&&&&&&&&&",
"&&&&&&&&&&&&&&&&&&&&&&&&&&&&&&&&&&&&&&&&&&&&&&&&&&",
"&&&&&&&&&&&&&&&&&&&&&&&&&&&&&&&&&&&&&&&&&&&&&&&&&&",
"&&&&&&&&&&&&&&&&&&&&&oooooooo&&&&&&&&&&&&&&&&&&&&&",
"&&&&&&&&&&&&&&&&&&&&o,<<<<<,,+&&&&&&&&&&&&&&&&&&&&",
"&&&&&&&&&&&&&&&&&&&o,,<<<<<<,,+&&&&&&&&&&&&&&&&&&&",
"&&&&&&&&&&&&&&&&&&& ,<<<::<<<,O&&&&&&&&&&&&&&&&&&&",
"&&&&&&&&&&&&&&&&&&+:::::::::---+&&&&&&&&&&&&&&&&&&",
"&&&&&&&&&&&&&&&&XX,<<<<<<<<<<<<,X&&&&&&&&&&&&&&&&&",
"&&&&&&&&&&&&&&&o,,,<####X..@@,<<,XX&&&&&&&&&&&&&&&",
"&&&&&&&&&&&&&&.,,<,oX@##.X@ OO@,,,,#&&&&&&&&&&&&&&",
"&&&&&&&&&&&&&&.,,,,O @>>>>>>>##,,,,#&&&&&&&&&&&&&&",
"&&&&&&&&&&&&&&&....OO>>>>>>>>>#####&&&&&&&&&&&&&&&",
"&&&&&&&&&&&&&&&&&&&O>46@44@64>XX&&&&&&&&&&&&&&&&&&",
"&&&&&&&&&&&&&&&&&&&OX>6@44@6>OOO&&&&&&&&&&&&&&&&&&",
"&&&&&&&&&&&&&&&&&&&&&X444444>@&O&&&&&&&&&&&&&&&&&&",
"&&&&&&&&&&&&&&&&&&&&&X>44444@&&&&&&&&&&&&&&&&&&&&&",
"&&&&&&&&&&&&&&&&&&&&&&o>444>@&&&&&&&&&&&&&&&&&&&&&",
"&&&&&&&&&&&&&&&&&&&&oo-;;;;;-oo&&&&&&&&&&&&&&&&&&&",
"&&&&&&&&&&&&&&&&&&&#---:;;;:---o&&&&&&&&&&&&&&&&&&",
"&&&&&&&&&&&&&&&&&&X----::::::---o%&&&&&&&&&&&&&&&&",
"&&&&&&&&&&&&&&&&&o----:::<:::----o&&&&&&&&&&&&&&&&",
"&&&&&&&&&&&&&&&&@---#-:::::::-X---O&&&&&&&&&&&&&&&",
"&&&&&&&&&&&&&&&&@**##-:::::::-X---#&&&&&&&&&&&&&&&",
"&&&&&&&&&&&&&&&X**X&#--::<:::-XX>>>#&&&&&&&&&&&&&&",
"&&&&&&&&&&&&&&&X**#& --::::---@&X>>#%&&&&&&&&&&&&&",
"&&&&&&&&&&&&&&&&X#&& ---------@X>>>#%&&&&&&&&&&&&&",
"&&&&&&&&&&&&&&&&&&&& ----<----@X>>>X%&&&&&&&&&&&&&",
"&&&&&&&&&&&&&&&&&&&$@@@@111@@@@%XXX%%&&&&&&&&&&&&&",
"&&&&&&&&&&&&&&&&&&& 1333331111o%%%%%%&&&&&&&&&&&&&",
"&&&&&&&&&&&&&&&&&&&@13333322111o%&%%%%&&&&&&&&&&&&",
"&&&&&&&&&&&&&&&&&& 1133333322211o&&&&&&&&&&&&&&&&&",
"&&&&&&&&&&&&&&&&&&@13333111111211+&&&&&&&&&&&&&&&&",
"&&&&&&&&&&&&&&&&&+113331111112221O&&&&&&&&&&&&&&&&",
"&&&&&&&&&&&&&&&&+1133311#oOo====11=&&&&&&&&&&&&&&&",
"&&&&&&&&&&&&&&&&+133331 &&&&+======X&&&&&&&&&&&&&&",
"&&&&&&&&&&&&&&&&+133331 &&&&+======X&&&&&&&&&&&&&&",
"&&&&&&&&&&&&&&&&+113311O&&&&+=====X&&&&&&&&&&&&&&&",
"&&&&&&&&&&&&&&&&&+11115@&&&&&@;;;X&&&&&&&&&&&&&&&&",
"&&&&&&&&&&&&&&&&&.4444++&&&&&+;;o&&&&&&&&&&&&&&&&&",
"&&&&&&&&&&&&&&&&&X444#+&&&&&&&oo&&&&&&&&&&&&&&&&&&",
"&&&&&&&&&&&&&&&&&X444#&&&&&&&&&&&&&&&&&&&&&&&&&&&&",
"&&&&&&&&&&&&&&&&&X444.&&&&&&&&&&&&&&&&&&&&&&&&&&&&",
"&&&&&&&&&&&&&&&&&.44O&&&&&&&&&&&&&&&&&&&&&&&&&&&&&",
"&&&&&&&&&&&&&&&&&O4>+&&&&&&&&&&&&&&&&&&&&&&&&&&&&&",
"&&&&&&&&&&&&&&&&O>@>.&&&&&&&&&&&&&&&&&&&&&&&&&&&&&",
"&&&&&&&&&&&&&&&#>#>X+&&&&&&&&&&&&&&&&&&&&&&&&&&&&&",
"&&&&&&&&&&&&&&#>#>44#&&&&&&&&&&&&&&&&&&&&&&&&&&&&&",
"&&&&&&&&&&&&&&+++X@ #&&&&&&&&&&&&&&&&&&&&&&&&&&&&&"
};
