/* XPM */
static char *result[] = {
/* columns rows colors chars-per-pixel */
"50 50 31 1 ",
"  c black",
". c #010000",
"X c #000100",
"o c #010100",
"O c #000001",
"+ c #010001",
"@ c #000101",
"# c #010101",
"$ c #181A24",
"% c #191A24",
"& c #181B24",
"* c #191B24",
"= c #181A25",
"- c #191A25",
"; c #181B25",
": c #191B25",
"> c #5F0F03",
", c #2E475A",
"< c #A00000",
"1 c #A05000",
"2 c #F04030",
"3 c #D67E40",
"4 c #A09000",
"5 c #F0F040",
"6 c #406080",
"7 c #687EC1",
"8 c #508FC0",
"9 c #70A4CC",
"0 c #F0C090",
"q c #AAB8E2",
"w c #FEFEFE",
/* pixels */
"************&&&&&&&&&oooooooo&&&&&&&&&&***********",
"************&&&&&&&&o45555554+&&&&&&&&&***********",
"************&&&&&&&o4555555554+&&&&&&&&***********",
"************&&&&&&+445555555544X&&&&&&&***********",
"************&&&&XX<444455555444<X&&&&&&***********",
"************&&&o444<<44455554<<54XX&&&&***********",
"************&&.44544422222222455444#&&&***********",
"************&&.44555555544444555444#&&&***********",
"************&&&.4444455545555444.##&&&&***********",
"************&&&&OOO.4444444444...&&&&&&***********",
"************&&&&&OOOOO.......OOO&&&&&&&***********",
"************&&&&&&O&OOOOOOOOOO&O&&&&&&&***********",
"************&&&&&&&&&XOOOOOO@&&&&&&&&&&***********",
"************&&&&&&&&#<<<<<<<oo&&&&&&&&&***********",
"*************&&&&&&#<<<222<<<<o&&&&&&*************",
"*************&&&&&#<<<22222<<<<o&&&&&*************",
"*************&&&&X<<<<22222<X<<>o&&&&*************",
"*************&&&@<<<<<22222<XX<>o&&&&*************",
"*************&&&<<<X<2222222<X>>>o&&&*************",
"*************&&@<<#X<2222222<XX>>O&&&*************",
"*************&X>>>##<2222222<X&X>#&&&*************",
"*************&X>>X&#<2222222<X&X33#&&*************",
"*************&X>>#& <2222222<@X333#%&*************",
"*************&&X#&& <2222222<@X333#%&*************",
"*************&&&&&& <<222222<@X333X%&*************",
"*************&&&&&&@<<<<<<<<<@&XXX%%&*************",
"******************@@@@@@<<<<<<@*******************",
"*************&***&@,,888@@@@@@O*******************",
"*************&**%O,,,,88888888O*&&****************",
"*************%**%O,,,,,99888888o;&****************",
"*************$**;O,666,,9988888o;&****************",
"*************=***.,6,,,oo988888o;;****************",
"*****************.,,,,o$o,8888#;;;****************",
"*************;**=.,,,,o$o68888#;;;****************",
"*************;**;.,,,,o;o,8888#;;;****************",
"*************;***:#11O&%o78888#;$=****************",
"*************%***%O11O&$oqqqw#$;$=****************",
"*************$**&&#11 &%o+333#$$;&****************",
"*************-**%-+33#;%&o333 $==&****************",
"*************%**--+33.%$$o300 ;$*&****************",
"****************---++-----o00X%%*=****************",
"*************:**--------;-o00o$*%$****************",
"*************=**-------:;#300.;;%%****************",
"*************%**-------:#3300 -=*$****************",
"*************-**------==OX330O-:==****************",
"*************--------&===  OO%%=:-****************",
"*************-------==***********=****************",
"**************************************************",
"**************************************************",
"**************************************************"
};
