/* XPM */
static char *result[] = {
/* columns rows colors chars-per-pixel */
"50 50 29 1 ",
"  c black",
". c #010000",
"X c #000100",
"o c #010100",
"O c #000001",
"+ c #010001",
"@ c #000101",
"# c #010101",
"$ c #181A24",
"% c #191A24",
"& c #181B24",
"* c #191B24",
"= c #181A25",
"- c #191A25",
"; c #181B25",
": c #191B25",
"> c #5F0F03",
", c #2E475A",
"< c #A00000",
"1 c #A05000",
"2 c #F04030",
"3 c #D67E40",
"4 c #A09000",
"5 c #F0F040",
"6 c #508FC0",
"7 c #70A4CC",
"8 c #F0C090",
"9 c #AAB8E2",
"0 c #FEFEFE",
/* pixels */
"************&&&&&&&&&oooooooo&&&&&&&&&&***********",
"************&&&&&&&&o45555554+&&&&&&&&&***********",
"************&&&&&&&o4455555544+&&&&&&&&***********",
"************&&&&&&+444555555544X&&&&&&&***********",
"************&&&&XX<444555555444<X&&&&&&***********",
"************&&&o444<<44555554<<54XX&&&&***********",
"************&&.44544422222222455444#&&&***********",
"************&&.44555544444445555444#&&&***********",
"************&&&.4444445545555444.##&&&&***********",
"************&&&&OOO.4445444444...&&&&&&***********",
"************&&&&&OOOOO.......OOO&&&&&&&***********",
"************&&&&&&O&OOOOOOOOOO&O&&&&&&&***********",
"************&&&&&&&&&XOOOOOO@&&&&&&&&&&***********",
"************&&&&&&&&#<<<<<<<oo&&&&&&&&&***********",
"*************&&&&&&#<<<222<<<<o&&&&&&*************",
"*************&&&&&#<<<22222<<<<o&&&&&*************",
"*************&&&&X<<<<22222<X<<>o&&&&*************",
"*************&&&@<<<<<22222<XX<>3o&&&*************",
"*************&&&<<<X<2222222<X>33o&&&*************",
"*************&&@33#X<2222222<Xo33o&&&*************",
"*************&X333##<2222222<X&oo&&&&*************",
"*************X333X&#<2222222<X&&&&&&&*************",
"*************X388X& <2222222<@&&&&&&&*************",
"*************X388X& <2222222<@&&&&&%&*************",
"*************&XXX&& <<222222<@&&&&&%&*************",
"*************&&&&&&@<<<<<<<<<@&&&&%%&*************",
"******************@@@@@@<<<<<<@*******************",
"*************&***&@,,,,, @@@@@O*******************",
"*************&**%O,,,,66,,,,,,O*&&****************",
"*************%**%O,,,,,66,,,777o;&****************",
"*************$**;O,,,,,,,6,,777o;&****************",
"*************=***.,,,,,oo667777o;;****************",
"*****************.,,,,o$o,6777#;;;****************",
"*************;**=.,,,,o$o66677#;;;****************",
"*************;**;&O11O&;o,6777#;;;****************",
"*************;***:#11O&%o77777#;$=****************",
"*************%**%%%%%%%$o9990#$;$=****************",
"*************$**&&;;;%%%$+888#$$;&****************",
"*************-**%-**;;;%&+88 %$==&****************",
"*************%**--;;*;%$$+88 %;$*&****************",
"****************--;;;;***+88 %&&*=****************",
"******************------;+88 %$%%$****************",
"*************=**--------;#38 %;*%%****************",
"*************%**-------:#3388 -;*$****************",
"*************-**-------:O3338O-===****************",
"*************--------&===  OO%%::-****************",
"**************************************************",
"**************************************************",
"**************************************************",
"**************************************************"
};
