/* XPM */
static char *result[] = {
/* columns rows colors chars-per-pixel */
"50 50 31 1 ",
"  c black",
". c #010000",
"X c #000100",
"o c #010100",
"O c #000001",
"+ c #010001",
"@ c #000101",
"# c #010101",
"$ c #181A24",
"% c #191A24",
"& c #181B24",
"* c #191B24",
"= c #181A25",
"- c #191A25",
"; c #181B25",
": c #191B25",
"> c #5F0F03",
", c #2E475A",
"< c #A00000",
"1 c #A05000",
"2 c #F04030",
"3 c #D67E40",
"4 c #A09000",
"5 c #D89B47",
"6 c #F0F040",
"7 c #406080",
"8 c #508FC0",
"9 c #70A4CC",
"0 c #F0C090",
"q c #AAB8E2",
"w c #FEFEFE",
/* pixels */
"***********&&&&&&&&&&oooooooo&&&&&&&&&************",
"***********&&&&&&&&&+44666664o&&&&&&&&************",
"***********&&&&&&&&+4446666644o&&&&&&&************",
"***********&&&&&&&X444666666644+&&&&&&************",
"***********&&&&&&X24446666666442XX&&&&************",
"***********&&&&XX46224466666422444o&&&************",
"***********&&&#44466422222222444644.&&************",
"***********&&&#44466664444444666644.&&************",
"***********&&&&##.4446666664444444.&&&************",
"***********&&&&&&...4444446444.OOO&&&&************",
"***********&&&&&&&OOO.......OOOOO&&&&&************",
"***********&&&&&&&O&OOOOOOOOOO&O&&&&&&************",
"***********&&&&&&&&&&@OOOOOOX&&&&&&&&&************",
"***********&&&&&&&&&oo<<<<<<<#&&&&&&&&************",
"*************&&&&&&o<<<<222<<<#&&&&&&*************",
"*************&&&&&o<<<<22222<<<#&&&&&*************",
"*************&&&&o><<X<22222<<<<X&&&&*************",
"*************&&&o3><XX<22222<<<<<@&&&*************",
"*************&&&o33>X<2222222<X<<<&&&*************",
"*************&&&o33oX<2222222<X#33@&&*************",
"*************&&&&oo&X<2222222<##333X&*************",
"*************&&&&&&&X<2222222<#&X333X*************",
"*************&&&&&&&@<2222222< &X053X*************",
"*************&%&&&&&@<2222222< &X553X*************",
"*************&%&&&&&@<222222<< &&XXX&*************",
"*************&%%&&&&@<<<<<<<<<@&&&&&&*************",
"*******************@<<<<<<@@@@@@******************",
"*******************O@@@@@@777,,@&***&*************",
"****************&&*O77777777,,,,O%**&*************",
"****************&;o77778888,,,,,O%**%*************",
"****************&;o7999888,,,,,,O;**$*************",
"****************;;o799987oo,,,,,.***=*************",
"****************;;;#9998,o$o,,,,.*****************",
"****************;;;#99887o$o,,,,.=**;*************",
"****************;;;#9988,o;&O11O&;**;*************",
"****************=$;#99999o%&O11#:***;*************",
"****************=$;$#wqqqo$%%%%%%%**%*************",
"****************&;$$#000+$%%%;;;&&**$*************",
"****************&==$% 00+&%;;;**-%**-*************",
"****************&*&&% 00+***;*;;--**%*************",
"****************=%%$% 00+;--;;;;--****************",
"****************$%*;% 03#;------******************",
"****************%*;- 0033#:-------**=*************",
"****************$==-O0333O:-------**%*************",
"****************=::%%OO  ===------**-*************",
"****************-***********&--------*************",
"**************************************************",
"**************************************************",
"**************************************************",
"**************************************************"
};
