/* XPM */
static char *result[] = {
/* columns rows colors chars-per-pixel */
"50 50 29 1 ",
"  c black",
". c #010000",
"X c #000100",
"o c #010100",
"O c #000001",
"+ c #010001",
"@ c #000101",
"# c #010101",
"$ c #181A24",
"% c #191A24",
"& c #181B24",
"* c #191B24",
"= c #181A25",
"- c #191A25",
"; c #181B25",
": c #191B25",
"> c #5F0F03",
", c #2E475A",
"< c #A00000",
"1 c #F04030",
"2 c #D67E40",
"3 c #A09000",
"4 c #F0F040",
"5 c #406080",
"6 c #508FC0",
"7 c #70A4CC",
"8 c #F0C090",
"9 c #AAB8E2",
"0 c #FEFEFE",
/* pixels */
"*******&&&&&&&&&&&&&&&&&&&&&&&&&&&&&&&&&&&&&&&&***",
"**************************************************",
"***********&&*************************************",
"*********&&&&&&&&&&&&&&&&&&&&&&&&&&&&&&&&&&&&*****",
"***********&&&&&&&&&&oooooooo&&&&&&&&&************",
"***********&&&&&&&&&+33444443o&&&&&&&&************",
"***********&&&&&&&&+3344444433o&&&&&&&************",
"***********&&&&&&&X333444444333+&&&&&&************",
"***********&&&&&&X13344444433331XX&&&&************",
"***********&&&&XX34114444433311333o&&&************",
"***********&&&#33344311111111333433.&&************",
"***********&&&#33344443334443444433.&&************",
"***********&&&&##.3334444344333333.&&&************",
"***********&&&&&&...3333333333.OOO&&&&************",
"***********&&&&&&&OOO.......OOOOO&&&&&************",
"***********&&&&&&&O&OOOOOOOOOO&O&&&&&&************",
"***********&&&&&&&&&&@OOOOOOX&&&&&&&&&************",
"*************&&&&&&&oo<<<<<<<o&&&&&&&&************",
"*************&&&&&&o<<<<111<<<o&&&&&&*************",
"*************&&&&&o<<<<11111<<<o&&&&&*************",
"*************&&&&o><<X<11111<<<>o&&&&*************",
"*************&&&&o><XX<11111<X<>o&&&&*************",
"*************&&&o>>>X<1111111X>>>o&&&*************",
"*************&&&O>>XX<1111111XX>>O&&&*************",
"*************&&#22X&X<1111111X&X22#&&*************",
"*************&%#222X@<1111111@X222#%&*************",
"*************&%#222X@<1111111@X222#%&*************",
"*************&%X222X@<111111<@X222X%&*************",
"*************&%%XXX&@<<<<<<<<@&XXX%%&*************",
"*******************@<<<<<<@@@<@*******************",
"*******************O@@@@@@555,,@&***&*************",
"****************&&*O55555556,,,,O%**&*************",
"****************&;o55777777,,,,,O%**%*************",
"****************&;o5777776,,,,6,O;**$*************",
"****************;;o57777666,,,777o**=*************",
"****************;;;#5777ooo667777o**;*************",
"****************;;;#5777o$o,6777#;**;*************",
"****************=$;#5577o$o66677#;**;*************",
"****************=$;$#099o%o77777#;**%*************",
"****************&;$$#222+$o9990#$;**$*************",
"****************&==$ 222o%$+888#$$**-*************",
"****************&*$; 882o%&+88 %$=**%*************",
"****************$%%$o88o-**+88 %&&**:*************",
"****************%%*;.882#-;#28 %;***=*************",
"****************$*;- 8822:#2288 -;**%*************",
"****************===-O822X:O2228O-=**-*************",
"****************-::%%OO  ==  OO%%:---*************",
"&&&&&&&&&&&&&&&&&&&&&&&&&&&&&&&&&&&&&&&&&&&&&&&&&&",
"&&&&&&&&&&&&&&&&&&&&&&&&&&&&&&&&&&&&&&&&&&&&&&&&&&",
"&&&&&&&&&&&&&&&&&&&&&&&&&&&&&&&&&&&&&&&&&&&&&&&&&&"
};
