/* XPM */
static char *result[] = {
/* columns rows colors chars-per-pixel */
"70 70 8 1 ",
"  c #000B0C",
". c #000F11",
"X c #00181B",
"o c #212B2B",
"O c #283434",
"+ c #4F4541",
"@ c #6E524C",
"# c None",
/* pixels */
"######################################################################",
"######################################################################",
"###############++++++++++++++++++++++#####+++++++++++++++++++++#######",
"###############++++++++++++++++++++++#####+++++++++++++++++++++#######",
"##############+++++++++++++++++++++++###+++++++++++++++++++++++#######",
"##############+++++++++++++++++++++++###+++++++++++++++++++++++#######",
"###++++++++++++OOOOOOOO++++++++++++++ooo+++++++++++++++++++++++#######",
"###++++++++++++OOOOOOOO++++++++++++++ooo+++++++++++++++++++++++#######",
"###OO++++++++++++++++++.....++++++OOooooOOO++++++++++++++OOOOOO#######",
"###OO++++++++++++++++++.....++++++OOooooOOO++++++++++++++OOOOOO#######",
"###+++++++++++OooOOOOOOOO....OOOOOOOooooOOO+++++++++++OOOOOOOOO#######",
"###+++++++++++OooOOOOOOOO....OOOOOOOooooOOO+++++++++++OOOOOOOOO#######",
"###++++++OOOOO+++ooooo+++OOOOoo   ......  o+++OOO+++++OO+++++++#######",
"###++++++OOOOO+++ooooo+++OOOOoo   ......  o+++OOO+++++OO+++++++#######",
"###++++++++OOO+++OOooo++++++Ooo   ........o@@@++O+++OOOOO++++++#######",
"###++++++++OOO+++OOooo++++++Ooo   ........o@@@++O+++OOOOO++++++#######",
"###++++++++OOO+@@OOooo++++++Ooo   ......ooo@@@++++++OOOOO++++++#######",
"###++++++++++++@@OOooo++++++Ooo   ......ooo@@@++++++OOoooOOO++++++####",
"###++++++++++++@@OOooo++++++Ooo   ......ooo@@@++++++OOoooOOO++++++####",
"###++++++++++++@@OOooo++++++Ooo...   .....oOOO@@++++OOoooooo++O+++++##",
"###++++++++++++@@OOooo++++++Ooo...   .....oOOO@@++++OOoooooo++O+++++##",
"###+++++++++++@@@OOooo+++OOOooo...   .....oOOO@@+OOOOOooOOOO++O+++++##",
"###+++++++++++@@@OOooo+++OOOooo...   .....oOOO@@+OOOOOooOOOO++O+++++##",
"###+++++++++++@OOOOooooooooooXX...........oOOO@@+OOO++..OOOO++O+++++##",
"###+++++++++++@OOOOooooooooooXX...........oOOO@@+OOO++..OOOO++O+++++##",
"###+++++++++++@OOooooo+OOXXXX..   ...ooooooOOO@@+OOO++..OOOO++O+++++##",
"###+++++++++++@OOooooo+OOXXXX..   ...ooooooOOO@@+OOO++..OOOO++O+++++##",
"###++++++OOOOO@OOoo++++OOoooX..   ..ooooooOOOO+++OOO++...OOO..++++++##",
"###++++++OOOOO@OOoo++++OOoooX..   ..ooooooOOOO+++OOO++...OOO..++++++##",
"#####++++OOOOOOoooo++++OOoooo.......ooooOOO++++++OOO++++......++++++##",
"#####++++OOOOOOoooo++++OOoooo.......ooooOOO++++++OOO++++......++++++##",
"########oooooooooOOOOOO+++++o........OOOOO+++++++OOO++++....++++++++##",
"########oooooooooOOOOOO+++++o........OOOOO+++++++OOO++++....++++++++##",
"###++++++oooooooo+++++O++++++oooooOOOOOO+++++++++OOO++++.OOO++++++++##",
"###++++++OOOOOo+++++++OOO++++++OOOOOO+++++++++++++++++++OOOO++++++++##",
"###++++++OOOOOo+++++++OOO++++++OOOOOO+++++++++++++++++++OOOO++++++++##",
"###++++++++OOOO++++++++++++++++OOOOOO+++++++++OOO+++++++oOOOOO++++++##",
"###++++++++OOOO++++++++++++++++OOOOOO+++++++++OOO+++++++oOOOOO++++++##",
"###++++++++OOO.++++OOO+++++++++OOOoooooooo++++++O+++++oooooooo++++++##",
"###++++++++OOO.++++OOO+++++++++OOOoooooooo++++++O+++++oooooooo++++++##",
"###++++++++....++++OOO+++++++OO...........o+++++OOOOOOooooooooo#######",
"###++++++++....++++OOO+++++++OO...........o+++++OOOOOOooooooooo#######",
"###++++++......++++OOO++++++OOO...........ooooOO++++ooooOOOOOO++++####",
"###++++++......++++OOO++++++OOO...........ooooOO++++ooooOOOOOO++++####",
"###++++++..OOO...++OOO+++OOOOoo...  ......XoooOO++++ooOO@OOOOO++++++##",
"###++++++..OOO...++OOO+++OOOOoo...  ......XoooOO++++ooOO@OOOOO++++++##",
"###+++++O++OOOO..++OOO+@@OOOooo...  ......XXXXOO+oooooOO@+++++++++++##",
"###+++++O++OOOO..++OOO+@@OOOooo...  ......XXXXOO+oooooOO@+++++++++++##",
"###+++++O++OOOO..++OOO+@@OOOo...........XXooooooooooOOOO@+++++++++++##",
"###+++++O++OOOO..++OOO+@@OOOo...........XXooooooooooOOOO@+++++++++++##",
"###+++++O++OOOOooOOOOO+@@OOOo..   ......oooOOO+++oooOO@@@+++++++++++##",
"###+++++O++ooooooOO++++@@OOOo..   ......ooO++++++oooOO@@++++++++++++##",
"###+++++O++ooooooOO++++@@OOOo..   ......ooO++++++oooOO@@++++++++++++##",
"#####++++++OOOoooOO++++++@@@ooo...  .oooooO++++++oooOO@@++++++++++++##",
"#####++++++OOOoooOO++++++@@@ooo...  .oooooO++++++oooOO@@++++++++++++##",
"########++++++OOOOO++++++@@@ooo...  .oooooO++++++oooOO@@+OOO++++++++##",
"########++++++OOOOO++++++@@@ooo...  .oooooO++++++oooOO@@+OOO++++++++##",
"########++++++OOOOO+++O++@@@o.....  .oooooO++++++oooOO+++OOO++++++++##",
"########++++++OOOOO+++O++@@@o.....  .oooooO++++++oooOO+++OOO++++++++##",
"########+++++++OO+++++Ooo+++o  ...  ....ooOOOO+++ooooo+++OOOOO++++++##",
"########+++++++OO+++++Ooo+++o  ...  ....ooOOOO+++ooooo+++OOOOO++++++##",
"########+++++++++++++++++++++++ooo++++++++++++++OOOOOOOO++++++++++++##",
"########+++++++++++++++++++++++ooo++++++++++++++OOOOOOOO++++++++++++##",
"########+++++++++++++++++++++++###+++++++++++++++++++++++#############",
"########+++++++++++++++++++++++###+++++++++++++++++++++++#############",
"########+++++++++++++++++++++#####++++++++++++++++++++++##############",
"########+++++++++++++++++++++#####++++++++++++++++++++++##############",
"######################################################################",
"######################################################################",
"######################################################################"
};
