/* XPM */
static char *result[] = {
/* columns rows colors chars-per-pixel */
"50 50 31 1 ",
"  c black",
". c #010000",
"X c #000100",
"o c #010100",
"O c #000001",
"+ c #010001",
"@ c #000101",
"# c #010101",
"$ c #060706",
"% c #161B26",
"& c #181A24",
"* c #191A24",
"= c #181B24",
"- c #191B24",
"; c #181A25",
": c #191A25",
"> c #5F0F03",
", c #73621C",
"< c #72621D",
"1 c #334D67",
"2 c #A00000",
"3 c #A05000",
"4 c #F04030",
"5 c #D67E40",
"6 c #A09000",
"7 c #D99A47",
"8 c #F0F040",
"9 c #406080",
"0 c #508FC0",
"q c #F0C090",
"w c #FFF9EB",
/* pixels */
"==================================================",
"==================================================",
"%%%%%%%%%%%%%%%%%%%%%%%%%%%%%%%%%%%%%%%%%%%%%%%%%%",
"%%%%%%%%%%%%%%%%%%%%%%%%%%%%%%%%%%%%%%%%%%%%%%%%%%",
"%%%%%%%%%%%%%%%%%%%%%+ooooooo%%%%%%%%%%%%%%%%%%%%%",
"%%%%%%%%%%%%%%%%%%%%+66888866o%%%%%%%%%%%%%%%%%%%%",
"%%%%%%%%%%%%%%%%%%%+6888888886o%%%%%%%%%%%%%%%%%%%",
"%%%%%%%%%%%%%%%%%%%O6844444466 %%%%%%%%%%%%%%%%%%%",
"%%%%%%%%%%%%%%%%%%+222488884444+%%%%%%%%%%%%%%%%%%",
"%%%%%%%%%%%%%%%%%X68888888888886XX%%%%%%%%%%%%%%%%",
"%%%%%%%%%%%%%%%XX6886@@..X####6666o%%%%%%%%%%%%%%%",
"%%%%%%%%;%%%%%#6666@OO @X.##@Xo6666.%%%%%%%%%%%%%%",
"%%%%%%%%%%%%%%#,,<<##5555555@ O,,66.%%%%%%%%%%%%%%",
"%%%%%%%%%%%%%%%#####555555555OO....%%%%%%%%%%%%%%%",
"%%%%%%%%%%&%%%%%%%XX5qw@qq@wq5O%%%%%%%%%%%%%%%%%%%",
"%%%%%%%%%%;%%%%%%%OOO5w@qq@w5XO%%%%%%%%%%%%%%%%%%%",
"%%%%%%%%%%%%%%%%%%O%@5qqqqqqX%%%%%%%%%%%%%%%%%%%%%",
"%%%%%%%%%;%%%&%%%%%%%@qqqqq5X%&&&&%%%%%%%%%%%%%%%%",
"%%%%%%%%*%%%%&%%%%%%%@5qqq5o%%&&&&%%%%%%%%%%%%%%%%",
"%%%%%%%%%%%%%%&&&&%oo2333332oo&&&&&%&%%%%%%%%%%%%%",
"%%%%%%%%%%%%%&&%&oo22243334222#&&&&%&%%%%%%%%%%%%%",
"%%%%%%%%%%%%%&&&O22224444442222X&&&&%*%%%%%%%%%%%%",
"%%%%%%%%%%%%%&&O2222244484442222o&&&%%%%%%%%%%%%%%",
"%%%%%%%%%%&&&&&O22XX244444442#222@&&&%%%%%%%%%%%%%",
"%%%%%%%%%&&&&&#222&X244444442##2>@&&&%%%%%%%%%%%%%",
"%%%%%%%%&&=&&&#55X&X244484442#*X55X&&%&%%%%%%%%%%%",
"%%%%%%%%&&&&&X55X&&@224444422 *#55X&&%%%%%%%%%%%%%",
"%%%%%%%%&&=&&.55#**@222284222 **#55.&&%%%%%%%%%%%%",
"%%%%%%%%%%==#qqqq@$@@@@999@@@@$@qqqq#%%%%%%%%%%%%%",
"%%%%%%%%%%==.qqq@q 99999999999 q@qqq.%%%%%%%%%%%%%",
"%%%%%%%%%%==+qqoqq@90000999999@qqoqq+%%%%%%%%%%%%%",
"%%%%%%*%%%=*=Oqqq 9000000000999 qqqO%*%%%%%%%%%%%%",
"%%%%%%%%%%%===@@@@9000000000009@@@@%%%%%%%%%%%%%%%",
"%%%%%%%%%%%%%%%&O900099999000099+%%%%%%%%%%%%%%%%%",
"%%%%==----%%%%*+900099oOo#9000099+%%%:%%%%%%%%%%%%",
"%%%%------%%%%+990099o%%%% 900009+%%%%%%%%%%%%%%%%",
"%%%%---------%X199999+%%%%O999999+%%%%%%%%%%%%%%%%",
"%%%%---------%=#11111+%%%%++3333.%%%%%%%%%%%%%%%%%",
"%%%%---------==X555#+#%%%%%+#553X%%%%%%%%%%%%%%%%%",
"%%%%---------==X5qq#==%%%%%%#qq5X%%%%%%%%%%%%%%%%%",
"%%%%---------==Xqq5.==%%%%%%.5qqX%%%%%%%%%%%%%%%%%",
"%%%%---------==+5q+===%%%%%%%+q5+%%%%%%%%%%%%%%%%%",
"%%%%---------===5q5+==%%%%%%+555%%%%%%%%%%%%%%%%%%",
"%%%%---------==O5@5.==%%%%%%.5@5O%%%%%%%%%%%%%%%%%",
"%%%%---------=#5#5X+==%%%%%%+X5#5#%%%%%%%%%%%%%%%%",
"%%%%%%%%%%%%%#5#5qq#==%%%%%%#775#5#%%%%%%%%%%%%%%%",
"%%%%%%%%%%%%%+++X@ #==%%%%%%# @X+++%%%%%%%%%%%%%%%",
"--------------------------------------------------",
"--------------------------------------------------",
"=================================================="
};
